<!-- Generated by IcoMoon.io -->
<svg version="1.1" xmlns="http://www.w3.org/2000/svg" width="28" height="28" viewBox="0 0 28 28">
<title>artisan-made</title>
<path d="M26.25 12.25c0.116 0 0.227-0.046 0.309-0.128s0.128-0.193 0.128-0.309c0-0.116-0.046-0.227-0.128-0.309s-0.193-0.128-0.309-0.128h-0.875v-3.5h0.875c0.116 0 0.227-0.046 0.309-0.128s0.128-0.193 0.128-0.309c0-0.116-0.046-0.227-0.128-0.309s-0.193-0.128-0.309-0.128h-0.875v-3.938c0-0.116-0.046-0.227-0.128-0.309s-0.193-0.128-0.309-0.128h-3.938v-0.875c0-0.116-0.046-0.227-0.128-0.309s-0.193-0.128-0.309-0.128c-0.116 0-0.227 0.046-0.309 0.128s-0.128 0.193-0.128 0.309v0.875h-3.5v-0.875c0-0.116-0.046-0.227-0.128-0.309s-0.193-0.128-0.309-0.128c-0.116 0-0.227 0.046-0.309 0.128s-0.128 0.193-0.128 0.309v0.875h-3.5v-0.875c0-0.116-0.046-0.227-0.128-0.309s-0.193-0.128-0.309-0.128c-0.116 0-0.227 0.046-0.309 0.128s-0.128 0.193-0.128 0.309v0.875h-3.5v-0.875c0-0.116-0.046-0.227-0.128-0.309s-0.193-0.128-0.309-0.128c-0.116 0-0.227 0.046-0.309 0.128s-0.128 0.193-0.128 0.309v0.875h-3.938c-0.116 0-0.227 0.046-0.309 0.128s-0.128 0.193-0.128 0.309v3.938h-0.875c-0.116 0-0.227 0.046-0.309 0.128s-0.128 0.193-0.128 0.309c0 0.116 0.046 0.227 0.128 0.309s0.193 0.128 0.309 0.128h0.875v3.5h-0.875c-0.116 0-0.227 0.046-0.309 0.128s-0.128 0.193-0.128 0.309c0 0.116 0.046 0.227 0.128 0.309s0.193 0.128 0.309 0.128h0.875v3.5h-0.875c-0.116 0-0.227 0.046-0.309 0.128s-0.128 0.193-0.128 0.309c0 0.116 0.046 0.227 0.128 0.309s0.193 0.128 0.309 0.128h0.875v3.5h-0.875c-0.116 0-0.227 0.046-0.309 0.128s-0.128 0.193-0.128 0.309c0 0.116 0.046 0.227 0.128 0.309s0.193 0.128 0.309 0.128h0.875v3.938c0 0.116 0.046 0.227 0.128 0.309s0.193 0.128 0.309 0.128h3.938v0.875c0 0.116 0.046 0.227 0.128 0.309s0.193 0.128 0.309 0.128c0.116 0 0.227-0.046 0.309-0.128s0.128-0.193 0.128-0.309v-0.875h3.5v0.875c0 0.116 0.046 0.227 0.128 0.309s0.193 0.128 0.309 0.128c0.116 0 0.227-0.046 0.309-0.128s0.128-0.193 0.128-0.309v-0.875h3.5v0.875c0 0.116 0.046 0.227 0.128 0.309s0.193 0.128 0.309 0.128c0.116 0 0.227-0.046 0.309-0.128s0.128-0.193 0.128-0.309v-0.875h3.5v0.875c0 0.116 0.046 0.227 0.128 0.309s0.193 0.128 0.309 0.128c0.116 0 0.227-0.046 0.309-0.128s0.128-0.193 0.128-0.309v-0.875h3.938c0.116 0 0.227-0.046 0.309-0.128s0.128-0.193 0.128-0.309v-3.938h0.875c0.116 0 0.227-0.046 0.309-0.128s0.128-0.193 0.128-0.309c0-0.116-0.046-0.227-0.128-0.309s-0.193-0.128-0.309-0.128h-0.875v-3.5h0.875c0.116 0 0.227-0.046 0.309-0.128s0.128-0.193 0.128-0.309c0-0.116-0.046-0.227-0.128-0.309s-0.193-0.128-0.309-0.128h-0.875v-3.5h0.875zM24.5 15.75h-0.875c-0.116 0-0.227 0.046-0.309 0.128s-0.128 0.193-0.128 0.309c0 0.116 0.046 0.227 0.128 0.309s0.193 0.128 0.309 0.128h0.875v3.5h-0.875c-0.116 0-0.227 0.046-0.309 0.128s-0.128 0.193-0.128 0.309c0 0.116 0.046 0.227 0.128 0.309s0.193 0.128 0.309 0.128h0.875v3.5h-3.5v-0.875c0-0.116-0.046-0.227-0.128-0.309s-0.193-0.128-0.309-0.128c-0.116 0-0.227 0.046-0.309 0.128s-0.128 0.193-0.128 0.309v0.875h-3.5v-0.875c0-0.116-0.046-0.227-0.128-0.309s-0.193-0.128-0.309-0.128c-0.116 0-0.227 0.046-0.309 0.128s-0.128 0.193-0.128 0.309v0.875h-3.5v-0.875c0-0.116-0.046-0.227-0.128-0.309s-0.193-0.128-0.309-0.128c-0.116 0-0.227 0.046-0.309 0.128s-0.128 0.193-0.128 0.309v0.875h-3.5v-0.875c0-0.116-0.046-0.227-0.128-0.309s-0.193-0.128-0.309-0.128c-0.116 0-0.227 0.046-0.309 0.128s-0.128 0.193-0.128 0.309v0.875h-3.5v-3.5h0.875c0.116 0 0.227-0.046 0.309-0.128s0.128-0.193 0.128-0.309c0-0.116-0.046-0.227-0.128-0.309s-0.193-0.128-0.309-0.128h-0.875v-3.5h0.875c0.116 0 0.227-0.046 0.309-0.128s0.128-0.193 0.128-0.309c0-0.116-0.046-0.227-0.128-0.309s-0.193-0.128-0.309-0.128h-0.875v-3.5h0.875c0.116 0 0.227-0.046 0.309-0.128s0.128-0.193 0.128-0.309c0-0.116-0.046-0.227-0.128-0.309s-0.193-0.128-0.309-0.128h-0.875v-3.5h0.875c0.116 0 0.227-0.046 0.309-0.128s0.128-0.193 0.128-0.309c0-0.116-0.046-0.227-0.128-0.309s-0.193-0.128-0.309-0.128h-0.875v-3.5h3.5v0.875c0 0.116 0.046 0.227 0.128 0.309s0.193 0.128 0.309 0.128c0.116 0 0.227-0.046 0.309-0.128s0.128-0.193 0.128-0.309v-0.875h3.5v0.875c0 0.116 0.046 0.227 0.128 0.309s0.193 0.128 0.309 0.128c0.116 0 0.227-0.046 0.309-0.128s0.128-0.193 0.128-0.309v-0.875h3.5v0.875c0 0.116 0.046 0.227 0.128 0.309s0.193 0.128 0.309 0.128c0.116 0 0.227-0.046 0.309-0.128s0.128-0.193 0.128-0.309v-0.875h3.5v0.875c0 0.116 0.046 0.227 0.128 0.309s0.193 0.128 0.309 0.128c0.116 0 0.227-0.046 0.309-0.128s0.128-0.193 0.128-0.309v-0.875h3.5v3.5h-0.875c-0.116 0-0.227 0.046-0.309 0.128s-0.128 0.193-0.128 0.309c0 0.116 0.046 0.227 0.128 0.309s0.193 0.128 0.309 0.128h0.875v3.5h-0.875c-0.116 0-0.227 0.046-0.309 0.128s-0.128 0.193-0.128 0.309c0 0.116 0.046 0.227 0.128 0.309s0.193 0.128 0.309 0.128h0.875v3.5z"></path>
<path d="M16.933 7.875c-1.090-0-2.139 0.415-2.933 1.163-0.609-0.573-1.373-0.955-2.197-1.099s-1.672-0.044-2.439 0.288c-0.768 0.332-1.421 0.882-1.88 1.581s-0.703 1.517-0.703 2.354c0 4.798 6.737 8.212 7.024 8.355 0.061 0.030 0.127 0.046 0.195 0.046s0.135-0.016 0.195-0.046c0.287-0.143 7.024-3.557 7.024-8.355-0.001-1.136-0.453-2.226-1.257-3.030s-1.893-1.255-3.030-1.257zM14 19.631c-1.088-0.588-6.344-3.63-6.344-7.469-0-0.698 0.214-1.38 0.614-1.953s0.966-1.009 1.621-1.249c0.656-0.241 1.369-0.274 2.045-0.096s1.28 0.559 1.731 1.092c0.042 0.046 0.094 0.083 0.151 0.109s0.119 0.038 0.182 0.038 0.125-0.013 0.182-0.038c0.057-0.025 0.109-0.062 0.151-0.109 0.452-0.533 1.056-0.914 1.731-1.092s1.389-0.145 2.045 0.096 1.222 0.677 1.621 1.249c0.4 0.573 0.614 1.254 0.614 1.953 0 3.835-5.256 6.88-6.344 7.469z"></path>
</svg>
