<!-- Generated by IcoMoon.io -->
<svg version="1.1" xmlns="http://www.w3.org/2000/svg" width="37" height="28" viewBox="0 0 37 28">
<title>canvas-menu</title>
<path d="M35.778 12.444h-34.222c-0.413 0-0.808 0.164-1.1 0.456s-0.456 0.687-0.456 1.1c0 0.413 0.164 0.808 0.456 1.1s0.687 0.456 1.1 0.456h34.222c0.413 0 0.808-0.164 1.1-0.456s0.456-0.687 0.456-1.1c0-0.413-0.164-0.808-0.456-1.1s-0.687-0.456-1.1-0.456z"></path>
<path d="M1.556 3.111h34.222c0.413 0 0.808-0.164 1.1-0.456s0.456-0.687 0.456-1.1c0-0.413-0.164-0.808-0.456-1.1s-0.687-0.456-1.1-0.456h-34.222c-0.413 0-0.808 0.164-1.1 0.456s-0.456 0.687-0.456 1.1c0 0.413 0.164 0.808 0.456 1.1s0.687 0.456 1.1 0.456z"></path>
<path d="M35.778 24.889h-34.222c-0.413 0-0.808 0.164-1.1 0.456s-0.456 0.687-0.456 1.1c0 0.413 0.164 0.808 0.456 1.1s0.687 0.456 1.1 0.456h34.222c0.413 0 0.808-0.164 1.1-0.456s0.456-0.687 0.456-1.1c0-0.413-0.164-0.808-0.456-1.1s-0.687-0.456-1.1-0.456z"></path>
</svg>
