<!-- Generated by IcoMoon.io -->
<svg version="1.1" xmlns="http://www.w3.org/2000/svg" width="32" height="32" viewBox="0 0 32 32">
<title>card-shield</title>
<path d="M4.227 22.862h14c0.133 0 0.26-0.053 0.354-0.146s0.146-0.221 0.146-0.354c0-0.133-0.053-0.26-0.146-0.354s-0.221-0.146-0.354-0.146h-14c-0.133 0-0.26 0.053-0.354 0.146s-0.146 0.221-0.146 0.354c0 0.133 0.053 0.26 0.146 0.354s0.221 0.146 0.354 0.146z"></path>
<path d="M4.227 25.362h14c0.133 0 0.26-0.053 0.354-0.146s0.146-0.221 0.146-0.354c0-0.133-0.053-0.26-0.146-0.354s-0.221-0.146-0.354-0.146h-14c-0.133 0-0.26 0.053-0.354 0.146s-0.146 0.221-0.146 0.354c0 0.133 0.053 0.26 0.146 0.354s0.221 0.146 0.354 0.146z"></path>
<path d="M4.227 17.362h12c0.133 0 0.26-0.053 0.354-0.146s0.146-0.221 0.146-0.354v-3c0-0.133-0.053-0.26-0.146-0.354s-0.221-0.146-0.354-0.146h-12c-0.133 0-0.26 0.053-0.354 0.146s-0.146 0.221-0.146 0.354v3c0 0.133 0.053 0.26 0.146 0.354s0.221 0.146 0.354 0.146zM4.727 14.362h11v2h-11v-2z"></path>
<path d="M4.227 20.362h4c0.133 0 0.26-0.053 0.354-0.146s0.146-0.221 0.146-0.354c0-0.133-0.053-0.26-0.146-0.354s-0.221-0.146-0.354-0.146h-4c-0.133 0-0.26 0.053-0.354 0.146s-0.146 0.221-0.146 0.354c0 0.133 0.053 0.26 0.146 0.354s0.221 0.146 0.354 0.146z"></path>
<path d="M10.227 19.362c-0.133 0-0.26 0.053-0.354 0.146s-0.146 0.221-0.146 0.354c0 0.133 0.053 0.26 0.146 0.354s0.221 0.146 0.354 0.146h3c0.133 0 0.26-0.053 0.354-0.146s0.146-0.221 0.146-0.354c0-0.133-0.053-0.26-0.146-0.354s-0.221-0.146-0.354-0.146h-3z"></path>
<path d="M22.727 25.362c0.396 0 0.782-0.117 1.111-0.337s0.585-0.532 0.737-0.898c0.151-0.365 0.191-0.768 0.114-1.156s-0.268-0.744-0.547-1.024-0.636-0.47-1.024-0.547c-0.388-0.077-0.79-0.038-1.156 0.114s-0.678 0.408-0.898 0.737c-0.22 0.329-0.337 0.716-0.337 1.111 0.001 0.53 0.212 1.039 0.586 1.414s0.883 0.586 1.414 0.586zM22.727 22.362c0.198 0 0.391 0.059 0.556 0.169s0.293 0.266 0.368 0.449c0.076 0.183 0.096 0.384 0.057 0.578s-0.134 0.372-0.274 0.512-0.318 0.235-0.512 0.274c-0.194 0.039-0.395 0.019-0.578-0.057s-0.339-0.204-0.449-0.368-0.169-0.358-0.169-0.556c0-0.265 0.106-0.519 0.293-0.707s0.442-0.293 0.707-0.293z"></path>
<path d="M21.367 15.645c0.63 0.604 1.348 1.11 2.129 1.499 0.069 0.034 0.145 0.052 0.221 0.052s0.153-0.018 0.222-0.052c0.785-0.389 1.506-0.895 2.139-1.501 1.512-1.451 2.387-3.352 2.599-5.652 0.009-0.093-0.009-0.186-0.051-0.269s-0.106-0.153-0.185-0.202c-1.077-0.663-2.874-1.768-4.453-2.736-0.079-0.048-0.169-0.074-0.262-0.074s-0.183 0.026-0.262 0.074l-4.45 2.74c-0.079 0.049-0.143 0.119-0.185 0.202s-0.059 0.177-0.051 0.269c0.212 2.299 1.083 4.199 2.589 5.649zM23.727 7.797c1.385 0.85 2.895 1.778 3.921 2.409-0.235 1.915-0.995 3.501-2.262 4.716-0.499 0.477-1.060 0.884-1.667 1.211-0.604-0.327-1.162-0.733-1.658-1.209-1.262-1.214-2.020-2.799-2.254-4.714l3.92-2.413z"></path>
<path d="M23.227 13.862c0.066 0 0.131-0.013 0.191-0.038s0.116-0.062 0.162-0.108l2.5-2.5c0.094-0.094 0.146-0.221 0.146-0.354s-0.053-0.26-0.146-0.354c-0.094-0.094-0.221-0.146-0.354-0.146s-0.26 0.053-0.354 0.146l-2.146 2.147-0.646-0.647c-0.094-0.094-0.221-0.146-0.354-0.146s-0.26 0.053-0.354 0.146c-0.094 0.094-0.146 0.221-0.146 0.354s0.053 0.26 0.146 0.354l1 1c0.046 0.047 0.101 0.083 0.162 0.108s0.126 0.038 0.191 0.038z"></path>
<path d="M3.227 28.362h22c0.663-0.001 1.298-0.264 1.767-0.733s0.732-1.104 0.733-1.767v-9.033c1.452-1.502 2.997-4.027 2.997-7.968 0-0.085-0.022-0.169-0.064-0.244s-0.102-0.137-0.174-0.182l-6.497-4c-0.080-0.048-0.171-0.073-0.263-0.073s-0.184 0.025-0.263 0.073l-6.497 4c-0.073 0.045-0.133 0.107-0.174 0.182s-0.064 0.159-0.064 0.244c-0 0.501 0.026 1.002 0.079 1.5h-13.579c-0.663 0.001-1.298 0.264-1.767 0.733s-0.732 1.104-0.733 1.767v13c0.001 0.663 0.264 1.298 0.733 1.767s1.104 0.732 1.767 0.733zM23.726 5.449l5.996 3.691c-0.059 3.028-1.084 5.491-3.049 7.325-0.856 0.803-1.856 1.438-2.948 1.871-1.078-0.426-2.066-1.050-2.914-1.841-1.986-1.837-3.022-4.31-3.082-7.355l5.996-3.691zM1.727 12.862c0-0.398 0.159-0.779 0.44-1.060s0.662-0.439 1.060-0.44h13.726c0.54 2.861 1.952 4.733 3.179 5.867 1.687 1.559 3.366 2.089 3.437 2.111 0.048 0.015 0.097 0.022 0.147 0.022h0.018c0.050-0 0.1-0.008 0.147-0.022 0.062-0.019 1.378-0.434 2.845-1.603v8.125c-0 0.398-0.159 0.779-0.44 1.060s-0.662 0.439-1.060 0.44h-22c-0.398-0-0.779-0.159-1.060-0.44s-0.439-0.662-0.44-1.060v-13z"></path>
</svg>
