<svg width="24" height="24" xmlns="http://www.w3.org/2000/svg"><path d="M5.32.044C3.596.236 1.971 1.225 1.021 2.66a6.292 6.292 0 0 0-.912 2.188L.02 5.26v13.48l.09.415c.527 2.436 2.299 4.208 4.735 4.735l.415.09h13.48l.415-.09c2.436-.527 4.208-2.299 4.735-4.735l.09-.415V5.26l-.09-.415c-.57-2.633-2.637-4.52-5.258-4.803C18.161-.009 5.776-.007 5.32.044m10.817 8.493c.419.205.641.573.642 1.066.001.26-.016.334-.119.529-.088.166-.72.866-2.373 2.626-1.238 1.32-2.332 2.47-2.429 2.555-.34.3-.869.367-1.275.161-.103-.052-.832-.668-1.639-1.385-1.624-1.443-1.66-1.485-1.695-1.97a1.087 1.087 0 0 1 .299-.88c.254-.282.44-.369.832-.39.302-.016.334-.01.57.117.156.084.558.41 1.078.874.455.407.868.771.916.81.087.069.099.057 1.989-1.96 1.046-1.117 1.96-2.064 2.031-2.106a1.24 1.24 0 0 1 1.173-.047"/></svg>