<!-- Generated by IcoMoon.io -->
<svg version="1.1" xmlns="http://www.w3.org/2000/svg" width="32" height="32" viewBox="0 0 32 32">
<title>clock</title>
<path d="M15.636 2.182c-7.431 0-13.455 6.024-13.455 13.455s6.024 13.455 13.455 13.455c7.431 0 13.455-6.024 13.455-13.455s-6.024-13.455-13.455-13.455zM0 15.636c0-8.636 7.001-15.636 15.636-15.636s15.636 7.001 15.636 15.636c0 8.636-7.001 15.636-15.636 15.636s-15.636-7.001-15.636-15.636zM15.636 8.727c0.602 0 1.091 0.488 1.091 1.091v5.234l3.878 2.585c0.501 0.334 0.637 1.012 0.303 1.513s-1.012 0.637-1.513 0.303l-4.040-2.693c-0.506-0.337-0.81-0.905-0.81-1.513v-5.429c0-0.603 0.488-1.091 1.091-1.091z"></path>
</svg>
