<!-- Generated by IcoMoon.io -->
<svg version="1.1" xmlns="http://www.w3.org/2000/svg" width="32" height="32" viewBox="0 0 32 32">
<title>clock-1</title>
<path d="M24.357 8.045c-0.008-0.020-0.009-0.041-0.020-0.060-0.014-0.024-0.036-0.038-0.052-0.059-1.037-1.762-2.508-3.233-4.27-4.27-0.021-0.016-0.035-0.038-0.059-0.052-0.019-0.011-0.040-0.012-0.060-0.020-1.749-1.002-3.769-1.583-5.926-1.583s-4.176 0.581-5.925 1.583c-0.020 0.009-0.041 0.009-0.060 0.020-0.024 0.014-0.038 0.036-0.059 0.052-1.762 1.037-3.234 2.509-4.271 4.271-0.016 0.021-0.038 0.035-0.051 0.058-0.011 0.019-0.011 0.039-0.020 0.059-1.002 1.75-1.584 3.77-1.584 5.927s0.582 4.177 1.584 5.927c0.008 0.019 0.009 0.040 0.020 0.058 0.010 0.017 0.029 0.024 0.040 0.040 1.037 1.771 2.513 3.249 4.282 4.29 0.021 0.016 0.035 0.038 0.059 0.052 0.015 0.009 0.032 0.006 0.048 0.013 1.752 1.006 3.776 1.591 5.937 1.591 0.803 0 1.602-0.084 2.385-0.242l0 0.002c0.063 0.274 0.319 0.466 0.599 0.433l1.225-0.116c0.276 0.475 0.621 0.91 1.020 1.282l-0.385 1.166c-0.088 0.267 0.035 0.558 0.288 0.68l1.661 0.8c0.254 0.12 0.558 0.037 0.712-0.199l0.671-1.028c0.549 0.084 1.090 0.085 1.641 0l0.67 1.028c0.106 0.163 0.285 0.254 0.469 0.254 0.082 0 0.165-0.018 0.243-0.055l1.661-0.8c0.254-0.122 0.377-0.413 0.288-0.681l-0.385-1.165c0.399-0.372 0.745-0.807 1.020-1.282l1.224 0.116c0.282 0.033 0.536-0.159 0.599-0.433l0.41-1.797c0.063-0.275-0.088-0.553-0.352-0.65l-1.15-0.424c-0.041-0.549-0.164-1.083-0.367-1.598l0.853-0.884c0.196-0.202 0.211-0.518 0.035-0.738l-1.149-1.441c-0.176-0.22-0.487-0.276-0.728-0.13l-1.051 0.636c-0.289-0.197-0.598-0.354-0.916-0.492 0.507-1.344 0.778-2.755 0.778-4.211 0-2.156-0.581-4.176-1.583-5.925zM14.53 24.803v-1.243c0-0.31-0.251-0.56-0.56-0.56s-0.56 0.25-0.56 0.56v1.232c-1.566-0.081-3.044-0.489-4.367-1.167l0.617-1.069c0.154-0.268 0.063-0.61-0.205-0.765-0.269-0.155-0.611-0.063-0.765 0.205l-0.617 1.069c-1.277-0.831-2.367-1.921-3.197-3.197l1.069-0.617c0.268-0.155 0.36-0.497 0.205-0.765s-0.498-0.36-0.765-0.205l-1.069 0.617c-0.678-1.323-1.087-2.801-1.167-4.367h1.232c0.309 0 0.56-0.25 0.56-0.56s-0.251-0.56-0.56-0.56h-1.232c0.081-1.566 0.489-3.045 1.167-4.367l1.069 0.617c0.088 0.051 0.185 0.075 0.279 0.075 0.194 0 0.382-0.1 0.486-0.28 0.154-0.268 0.063-0.61-0.205-0.765l-1.069-0.617c0.831-1.277 1.921-2.367 3.197-3.197l0.617 1.069c0.104 0.18 0.292 0.28 0.486 0.28 0.095 0 0.191-0.024 0.279-0.075 0.268-0.155 0.36-0.497 0.205-0.765l-0.617-1.069c1.323-0.678 2.801-1.087 4.367-1.167v1.231c0 0.31 0.251 0.56 0.56 0.56s0.56-0.25 0.56-0.56v-1.232c1.566 0.081 3.044 0.489 4.367 1.167l-0.617 1.069c-0.154 0.268-0.063 0.61 0.205 0.765 0.088 0.051 0.185 0.075 0.279 0.075 0.194 0 0.382-0.1 0.486-0.28l0.617-1.069c1.277 0.831 2.367 1.921 3.197 3.197l-1.069 0.617c-0.268 0.155-0.36 0.497-0.205 0.765 0.104 0.18 0.292 0.28 0.486 0.28 0.095 0 0.191-0.024 0.279-0.075l1.069-0.617c0.678 1.323 1.087 2.801 1.167 4.367h-1.232c-0.309 0-0.56 0.25-0.56 0.56s0.251 0.56 0.56 0.56h1.232c-0.038 0.759-0.154 1.502-0.347 2.228l-0.002-0.014c-0.036-0.279-0.274-0.488-0.555-0.488h-1.844c-0.281 0-0.519 0.209-0.555 0.488l-0.158 1.217c-0.527 0.162-1.022 0.4-1.477 0.712l-1.050-0.636c-0.241-0.145-0.552-0.090-0.728 0.13l-1.15 1.442c-0.176 0.22-0.161 0.536 0.035 0.738l0.854 0.884c-0.203 0.515-0.326 1.050-0.368 1.598l-1.149 0.424c-0.264 0.097-0.415 0.376-0.352 0.65l0.161 0.704c-0.519 0.104-1.045 0.169-1.576 0.196zM26.338 19.824l0.95-0.574 0.536 0.672-0.772 0.8c-0.162 0.168-0.203 0.419-0.103 0.63 0.283 0.594 0.428 1.225 0.431 1.875 0.001 0.234 0.147 0.442 0.366 0.523l1.039 0.383-0.191 0.838-1.106-0.105c-0.235-0.028-0.454 0.102-0.556 0.312-0.285 0.584-0.7 1.105-1.199 1.506-0.182 0.147-0.254 0.391-0.181 0.613l0.348 1.052-0.774 0.373-0.606-0.929c-0.105-0.16-0.282-0.254-0.469-0.254-0.040 0-0.081 0.004-0.122 0.014-0.648 0.145-1.28 0.144-1.926 0-0.229-0.053-0.463 0.045-0.591 0.24l-0.606 0.929-0.775-0.373 0.348-1.053c0.073-0.221 0.002-0.465-0.18-0.611-0.499-0.402-0.913-0.923-1.198-1.507-0.102-0.21-0.328-0.34-0.556-0.312l-1.106 0.105-0.191-0.838 1.038-0.383c0.219-0.081 0.365-0.289 0.366-0.523 0.003-0.651 0.148-1.282 0.431-1.875 0.101-0.211 0.060-0.462-0.102-0.63l-0.772-0.8 0.536-0.672 0.95 0.574c0.199 0.12 0.454 0.104 0.637-0.040 0.513-0.406 1.096-0.687 1.733-0.835 0.228-0.053 0.399-0.241 0.429-0.473l0.143-1.1h0.86l0.143 1.1c0.030 0.232 0.201 0.42 0.429 0.473 0.637 0.148 1.22 0.429 1.733 0.835 0.183 0.144 0.438 0.161 0.637 0.040z"></path>
<path d="M13.97 7.040c-0.309 0-0.56 0.25-0.56 0.56v6.138l-4.822 4.822c-0.219 0.219-0.219 0.573 0 0.792 0.109 0.109 0.253 0.164 0.396 0.164s0.287-0.055 0.396-0.164l4.986-4.986c0.105-0.105 0.164-0.247 0.164-0.396v-6.37c0-0.31-0.251-0.56-0.56-0.56z"></path>
<path d="M19.874 23.246c0 1.705 1.387 3.093 3.092 3.093s3.092-1.387 3.092-3.093c0-1.705-1.387-3.092-3.092-3.092s-3.092 1.387-3.092 3.092zM24.938 23.246c0 1.088-0.885 1.973-1.972 1.973s-1.972-0.885-1.972-1.973c0-1.087 0.885-1.972 1.972-1.972s1.972 0.884 1.972 1.972z"></path>
</svg>
