<!-- Generated by IcoMoon.io -->
<svg version="1.1" xmlns="http://www.w3.org/2000/svg" width="32" height="32" viewBox="0 0 32 32">
<title>clock-2</title>
<path d="M16 2.667c-7.351 0-13.333 5.982-13.333 13.333s5.982 13.333 13.333 13.333c7.351 0 13.333-5.982 13.333-13.333s-5.982-13.333-13.333-13.333zM16 27.892c-6.559 0-11.892-5.333-11.892-11.892s5.333-11.892 11.892-11.892c6.559 0 11.892 5.333 11.892 11.892s-5.333 11.892-11.892 11.892z"></path>
<path d="M16 9.153c0.396 0 0.721-0.324 0.721-0.721v-2.162c0-0.396-0.324-0.721-0.721-0.721s-0.721 0.324-0.721 0.721v2.162c0 0.396 0.324 0.721 0.721 0.721z"></path>
<path d="M16 22.846c-0.396 0-0.721 0.324-0.721 0.721v2.162c0 0.396 0.324 0.721 0.721 0.721s0.721-0.324 0.721-0.721v-2.162c0-0.396-0.324-0.721-0.721-0.721z"></path>
<path d="M22.847 16.001c0 0.396 0.324 0.721 0.721 0.721h2.162c0.396 0 0.721-0.324 0.721-0.721s-0.324-0.721-0.721-0.721h-2.162c-0.396 0-0.721 0.324-0.721 0.721z"></path>
<path d="M9.153 16.001c0-0.396-0.324-0.721-0.721-0.721h-2.162c-0.396 0-0.721 0.324-0.721 0.721s0.324 0.721 0.721 0.721h2.162c0.396 0 0.721-0.324 0.721-0.721z"></path>
<path d="M21.351 11.37c0.184 0 0.368-0.072 0.508-0.213l1.528-1.528c0.281-0.281 0.281-0.739 0-1.020s-0.739-0.281-1.020 0l-1.528 1.528c-0.281 0.281-0.281 0.739 0 1.020 0.144 0.144 0.328 0.213 0.512 0.213z"></path>
<path d="M10.141 20.844l-1.528 1.528c-0.281 0.281-0.281 0.739 0 1.020 0.141 0.141 0.324 0.213 0.508 0.213s0.368-0.072 0.508-0.213l1.528-1.528c0.281-0.281 0.281-0.739 0-1.020s-0.735-0.285-1.016 0z"></path>
<path d="M21.859 20.844c-0.281-0.281-0.739-0.281-1.020 0s-0.281 0.739 0 1.020l1.528 1.528c0.141 0.141 0.324 0.213 0.508 0.213s0.368-0.072 0.508-0.213c0.281-0.281 0.281-0.739 0-1.020l-1.524-1.528z"></path>
<path d="M9.629 8.609c-0.281-0.281-0.739-0.281-1.020 0s-0.281 0.739 0 1.020l1.528 1.528c0.14 0.141 0.324 0.213 0.508 0.213s0.368-0.072 0.508-0.213c0.281-0.281 0.281-0.739 0-1.020l-1.524-1.528z"></path>
<path d="M19.059 11.744l-3.005 3.485-1.859-2.058c-0.267-0.295-0.724-0.317-1.020-0.050s-0.317 0.724-0.050 1.020l1.982 2.191-0.551 0.638c-0.259 0.303-0.227 0.757 0.076 1.016 0.137 0.119 0.303 0.177 0.468 0.177 0.202 0 0.404-0.086 0.548-0.249l0.432-0.504 0.469 0.515c0.14 0.159 0.339 0.238 0.533 0.238 0.173 0 0.346-0.061 0.483-0.187 0.295-0.267 0.317-0.724 0.050-1.020l-0.587-0.649 3.121-3.622c0.259-0.303 0.227-0.757-0.076-1.016-0.299-0.259-0.753-0.223-1.013 0.076z"></path>
</svg>
