<!-- Generated by IcoMoon.io -->
<svg version="1.1" xmlns="http://www.w3.org/2000/svg" width="32" height="32" viewBox="0 0 32 32">
<title>close</title>
<path d="M0.364 8.364c0-4.619 3.745-8.364 8.364-8.364h14.545c4.619 0 8.364 3.745 8.364 8.364v14.545c0 4.619-3.745 8.364-8.364 8.364h-14.545c-4.619 0-8.364-3.745-8.364-8.364v-14.545zM8.727 2.182c-3.414 0-6.182 2.768-6.182 6.182v14.545c0 3.414 2.768 6.182 6.182 6.182h14.545c3.414 0 6.182-2.768 6.182-6.182v-14.545c0-3.414-2.768-6.182-6.182-6.182h-14.545z"></path>
<path d="M19.857 11.78c0.426 0.426 0.426 1.117 0 1.543l-6.171 6.171c-0.426 0.426-1.117 0.426-1.543 0s-0.426-1.117 0-1.543l6.171-6.171c0.426-0.426 1.117-0.426 1.543 0z"></path>
<path d="M19.857 19.494c-0.426 0.426-1.117 0.426-1.543 0l-6.171-6.171c-0.426-0.426-0.426-1.117 0-1.543s1.117-0.426 1.543 0l6.171 6.171c0.426 0.426 0.426 1.117 0 1.543z"></path>
</svg>
