<!-- Generated by IcoMoon.io -->
<svg version="1.1" xmlns="http://www.w3.org/2000/svg" width="32" height="32" viewBox="0 0 32 32">
<title>communication</title>
<path d="M16.421 9.858c0.002 0.199 0.083 0.388 0.224 0.528s0.332 0.218 0.531 0.218 0.389-0.078 0.531-0.218c0.141-0.14 0.222-0.329 0.224-0.528-0.003-0.198-0.084-0.388-0.225-0.527s-0.332-0.217-0.53-0.217-0.389 0.078-0.53 0.217c-0.141 0.139-0.222 0.328-0.225 0.527z"></path>
<path d="M20.366 9.858c0.003 0.198 0.084 0.387 0.225 0.527s0.332 0.217 0.53 0.217c0.198 0 0.389-0.078 0.53-0.217s0.222-0.328 0.225-0.527c-0.003-0.198-0.084-0.387-0.225-0.527s-0.332-0.217-0.53-0.217-0.389 0.078-0.53 0.217c-0.141 0.139-0.222 0.328-0.225 0.527z"></path>
<path d="M24.31 9.858c0.003 0.198 0.084 0.387 0.225 0.527s0.332 0.217 0.53 0.217 0.389-0.078 0.53-0.217c0.141-0.139 0.222-0.328 0.225-0.527-0.003-0.198-0.084-0.387-0.225-0.527s-0.332-0.217-0.53-0.217c-0.198 0-0.389 0.078-0.53 0.217s-0.222 0.328-0.225 0.527z"></path>
<path d="M28.302 4.331l-13.735-2.298c-0.269-0.045-0.545-0.030-0.808 0.042s-0.507 0.202-0.716 0.378c-0.208 0.176-0.376 0.396-0.491 0.644s-0.175 0.517-0.175 0.79v10.808c-0.001 0.498 0.196 0.976 0.548 1.329s0.828 0.552 1.326 0.554h8.059l3.117 3.528c0.068 0.074 0.157 0.127 0.255 0.15s0.201 0.017 0.295-0.019c0.094-0.036 0.176-0.099 0.233-0.181s0.090-0.18 0.091-0.281v-3.697c-0.002-0.131-0.056-0.256-0.15-0.348s-0.219-0.143-0.35-0.143c-0.131 0-0.257 0.051-0.35 0.143s-0.147 0.217-0.15 0.348v2.376l-2.392-2.707c-0.047-0.053-0.105-0.096-0.169-0.125s-0.135-0.044-0.205-0.044h-8.284c-0.233-0.001-0.456-0.095-0.619-0.261s-0.255-0.389-0.255-0.622v-10.808c-0.001-0.128 0.026-0.254 0.079-0.37s0.131-0.219 0.228-0.302c0.097-0.083 0.212-0.143 0.335-0.177s0.252-0.040 0.378-0.019l13.737 2.299c0.204 0.037 0.388 0.144 0.521 0.303s0.207 0.359 0.208 0.566v8.509c0.001 0.233-0.091 0.456-0.254 0.622s-0.386 0.259-0.619 0.261c-0.131 0.003-0.256 0.056-0.347 0.15s-0.143 0.219-0.143 0.35c0 0.131 0.051 0.257 0.143 0.35s0.216 0.147 0.347 0.15c0.498-0.002 0.975-0.201 1.326-0.554s0.548-0.831 0.547-1.329v-8.509c0.001-0.444-0.155-0.874-0.441-1.214s-0.683-0.567-1.121-0.641z"></path>
<path d="M15.581 19.588c-0.001-0.199-0.082-0.39-0.223-0.53s-0.333-0.219-0.532-0.219c-0.199-0-0.39 0.079-0.532 0.219s-0.222 0.331-0.223 0.53c0.001 0.199 0.082 0.39 0.223 0.53s0.333 0.219 0.532 0.219c0.199 0 0.39-0.079 0.532-0.219s0.222-0.331 0.223-0.53z"></path>
<path d="M10.126 19.588c0.003 0.198 0.084 0.387 0.225 0.527s0.332 0.217 0.53 0.217c0.198 0 0.389-0.078 0.53-0.217s0.222-0.328 0.225-0.527c-0.003-0.198-0.084-0.387-0.225-0.527s-0.332-0.217-0.53-0.217c-0.198 0-0.389 0.078-0.53 0.217s-0.222 0.328-0.225 0.527z"></path>
<path d="M6.181 19.587c0.003 0.198 0.084 0.387 0.225 0.527s0.332 0.217 0.53 0.217c0.198 0 0.389-0.078 0.53-0.217s0.222-0.328 0.225-0.527c-0.003-0.198-0.084-0.387-0.225-0.527s-0.332-0.217-0.53-0.217c-0.198 0-0.389 0.078-0.53 0.217s-0.222 0.328-0.225 0.527z"></path>
<path d="M4.011 25.307c-0.233-0.002-0.457-0.096-0.621-0.262s-0.256-0.39-0.254-0.623v-8.509c0.001-0.207 0.074-0.407 0.207-0.565s0.317-0.265 0.521-0.302l7.095-1.19c0.129-0.024 0.244-0.097 0.319-0.205s0.106-0.24 0.084-0.37c-0.022-0.13-0.093-0.245-0.2-0.322s-0.239-0.109-0.368-0.089l-7.095 1.19c-0.436 0.078-0.831 0.305-1.116 0.644s-0.443 0.766-0.446 1.209v8.509c-0.001 0.498 0.196 0.977 0.548 1.33s0.829 0.553 1.327 0.555c0.131-0.002 0.256-0.056 0.348-0.15s0.143-0.219 0.143-0.35c0-0.131-0.051-0.257-0.143-0.35s-0.217-0.147-0.348-0.15z"></path>
<path d="M19.126 17.578c-0.066-0-0.131 0.013-0.191 0.038s-0.116 0.062-0.162 0.108c-0.046 0.046-0.083 0.102-0.108 0.162s-0.038 0.126-0.038 0.191v6.344c0.001 0.233-0.090 0.458-0.254 0.624s-0.387 0.26-0.62 0.262h-8.285c-0.071 0-0.141 0.015-0.205 0.044s-0.122 0.072-0.169 0.125l-2.39 2.705v-2.374c-0.002-0.131-0.056-0.257-0.149-0.349s-0.22-0.144-0.351-0.144c-0.131 0-0.257 0.052-0.351 0.144s-0.147 0.217-0.149 0.349v3.695c0.002 0.101 0.033 0.199 0.091 0.281s0.139 0.146 0.234 0.181c0.094 0.036 0.197 0.042 0.295 0.019s0.187-0.076 0.255-0.15l3.116-3.526h8.059c0.498-0.002 0.976-0.201 1.327-0.555s0.548-0.832 0.548-1.33v-6.344c0-0.066-0.013-0.131-0.038-0.191s-0.062-0.116-0.108-0.162c-0.046-0.046-0.102-0.083-0.162-0.108s-0.126-0.038-0.191-0.038z"></path>
</svg>
