<svg width="18" height="16" fill="none" xmlns="http://www.w3.org/2000/svg"><path d="M8.477.273C6.833.367 5.31.94 3.915 1.991c-.491.37-1.201 1.128-1.629 1.74l-.122.174-.031-.115a73.716 73.716 0 0 1-.215-.88 23.728 23.728 0 0 0-.223-.879.655.655 0 0 0-.328-.397c-.165-.082-.267-.09-.503-.04-.396.084-.616.31-.622.641-.002.138.68 3.002.777 3.262.169.449.619.835 1.132.968.351.092.506.07 2.176-.3.855-.19 1.603-.365 1.661-.389.286-.12.414-.308.409-.601-.007-.492-.269-.825-.649-.825-.079 0-.636.108-1.239.24a56.23 56.23 0 0 1-1.123.24c-.036 0 .214-.37.457-.677.789-.997 2.08-1.824 3.388-2.17a7.01 7.01 0 0 1 3.512-.006c1.1.284 2.172.897 2.989 1.707a6.537 6.537 0 0 1 1.236 1.743c.199.395.443.552.755.485.303-.065.59-.265.676-.473.094-.224.033-.46-.256-.995a7.204 7.204 0 0 0-1.248-1.711 8.14 8.14 0 0 0-4.65-2.386C9.984.308 9.009.233 8.925.245c-.016.002-.218.015-.448.028m6.688 9.228-1.555.342c-.822.18-1.542.348-1.599.372-.285.119-.413.307-.408.6.007.499.268.825.662.825.085 0 .641-.108 1.235-.24.594-.132 1.094-.24 1.111-.24.038 0-.204.361-.454.677-.885 1.116-2.357 1.992-3.822 2.274-.518.1-.742.12-1.32.121-1.086.001-1.992-.2-2.94-.654a6.406 6.406 0 0 1-3.032-2.994c-.19-.38-.354-.509-.649-.508-.314.002-.689.226-.793.475-.094.224-.033.46.256.995a7.679 7.679 0 0 0 2.328 2.648 8.295 8.295 0 0 0 6.84 1.299 8.524 8.524 0 0 0 3.052-1.487c.509-.385 1.409-1.357 1.678-1.813.046-.078.071-.097.086-.068.012.022.113.418.224.88.229.957.25 1.027.356 1.18.146.211.403.288.713.215.406-.096.618-.315.624-.645.002-.138-.68-3.002-.777-3.262-.17-.452-.615-.832-1.132-.966-.169-.044-.544-.058-.684-.026" fill-rule="evenodd" fill="#000"/></svg>