<!-- Generated by IcoMoon.io -->
<svg version="1.1" xmlns="http://www.w3.org/2000/svg" width="34" height="32" viewBox="0 0 34 32">
<title>config</title>
<path d="M24 4.8c0-0.884 0.716-1.6 1.6-1.6h4.8c0.884 0 1.6 0.716 1.6 1.6s-0.716 1.6-1.6 1.6h-4.8c-0.884 0-1.6-0.716-1.6-1.6z"></path>
<path d="M19.2 0c0.884 0 1.6 0.716 1.6 1.6v6.4c0 0.884-0.716 1.6-1.6 1.6s-1.6-0.716-1.6-1.6v-6.4c0-0.884 0.716-1.6 1.6-1.6z"></path>
<path d="M0 4.8c0-0.884 0.716-1.6 1.6-1.6h17.6c0.884 0 1.6 0.716 1.6 1.6s-0.716 1.6-1.6 1.6h-17.6c-0.884 0-1.6-0.716-1.6-1.6z"></path>
<path d="M0 16c0-0.884 0.716-1.6 1.6-1.6h6.4c0.884 0 1.6 0.716 1.6 1.6s-0.716 1.6-1.6 1.6h-6.4c-0.884 0-1.6-0.716-1.6-1.6z"></path>
<path d="M14.4 11.2c0.884 0 1.6 0.716 1.6 1.6v6.4c0 0.884-0.716 1.6-1.6 1.6s-1.6-0.716-1.6-1.6v-6.4c0-0.884 0.716-1.6 1.6-1.6z"></path>
<path d="M12.8 16c0-0.884 0.716-1.6 1.6-1.6h17.6c0.884 0 1.6 0.716 1.6 1.6s-0.716 1.6-1.6 1.6h-17.6c-0.884 0-1.6-0.716-1.6-1.6z"></path>
<path d="M24 27.2c0-0.884 0.716-1.6 1.6-1.6h4.8c0.884 0 1.6 0.716 1.6 1.6s-0.716 1.6-1.6 1.6h-4.8c-0.884 0-1.6-0.716-1.6-1.6z"></path>
<path d="M19.2 22.4c0.884 0 1.6 0.716 1.6 1.6v6.4c0 0.884-0.716 1.6-1.6 1.6s-1.6-0.716-1.6-1.6v-6.4c0-0.884 0.716-1.6 1.6-1.6z"></path>
<path d="M0 27.2c0-0.884 0.716-1.6 1.6-1.6h17.6c0.884 0 1.6 0.716 1.6 1.6s-0.716 1.6-1.6 1.6h-17.6c-0.884 0-1.6-0.716-1.6-1.6z"></path>
</svg>
