<svg width="16" height="16" fill="none" xmlns="http://www.w3.org/2000/svg"><path d="M6.45.615c-.499.054-.865.218-1.219.546-.281.26-.464.575-.57.986-.051.195-.057.307-.067 1.324l-.012 1.11-1.098.013c-1.168.014-1.32.029-1.631.161a2.12 2.12 0 0 0-.907.739c-.147.221-.23.418-.296.706C.603 6.402.6 6.598.6 10c0 3.402.003 3.598.05 3.8.098.425.282.757.57 1.031.285.272.573.425.98.519.202.047.398.05 3.813.05h3.6l.235-.06a2.015 2.015 0 0 0 1.488-1.473c.055-.212.06-.302.07-1.338l.012-1.111 1.111-.012c1.036-.01 1.126-.015 1.338-.07a2.012 2.012 0 0 0 1.473-1.488l.06-.235v-3.6c0-3.415-.003-3.611-.05-3.813a1.96 1.96 0 0 0-.593-1.05 2.031 2.031 0 0 0-.944-.5c-.186-.044-.445-.047-3.68-.052C8.219.595 6.562.603 6.45.615m7.068 1.505c.056.013.141.07.218.147.111.111.129.144.148.283.029.202.03 6.694.001 6.895a.43.43 0 0 1-.128.272.529.529 0 0 1-.205.152c-.064.02-.453.036-1.117.044l-1.019.013-.009-1.783c-.01-1.713-.013-1.791-.067-1.996-.11-.419-.293-.732-.583-.997a2.021 2.021 0 0 0-.944-.499c-.176-.041-.405-.047-1.966-.057L6.08 4.583l.001-.765c0-.421.011-.907.025-1.08.021-.276.033-.326.092-.405.128-.167.208-.204.491-.226.332-.027 6.708-.014 6.829.013m-4 4c.056.013.141.07.218.147.111.111.129.144.148.283.029.202.03 6.694.001 6.895a.543.543 0 0 1-.347.428c-.163.049-6.913.049-7.076 0-.133-.04-.313-.23-.342-.36-.032-.138-.047-6.326-.017-6.733.024-.32.034-.366.095-.447.128-.167.208-.204.491-.226.332-.027 6.708-.014 6.829.013" fill-rule="evenodd" fill="#000"/></svg>