<!-- Generated by IcoMoon.io -->
<svg version="1.1" xmlns="http://www.w3.org/2000/svg" width="32" height="32" viewBox="0 0 32 32">
<title>credit-card-lock</title>
<path d="M4.987 6.134c-0.516 0.056-0.793 0.138-1.215 0.359-0.652 0.341-1.245 1.026-1.471 1.7-0.222 0.661-0.228 0.871-0.209 8.074 0.017 6.333 0.025 6.935 0.11 7.244 0.308 1.133 1.156 1.981 2.283 2.286 0.31 0.084 0.805 0.094 5.397 0.11l5.056 0.017 0.158-0.158c0.212-0.212 0.226-0.614 0.029-0.843l-0.129-0.15-5.005-0.030c-3.738-0.023-5.065-0.047-5.244-0.097-0.638-0.176-1.179-0.712-1.377-1.365-0.069-0.229-0.085-0.931-0.103-4.815l-0.021-4.546h25.5v0.511c0 0.494 0.005 0.516 0.156 0.667 0.132 0.132 0.198 0.156 0.431 0.156s0.299-0.024 0.431-0.156l0.156-0.156v-2.801c0-2.891-0.027-3.371-0.22-3.948-0.31-0.922-1.183-1.717-2.185-1.989-0.318-0.087-1.072-0.094-11.248-0.101-5.999-0.005-11.075 0.009-11.28 0.032zM27.284 7.368c0.639 0.199 1.164 0.727 1.342 1.351 0.057 0.2 0.084 0.748 0.105 2.148l0.030 1.88h-25.521l0.028-1.88c0.031-2.013 0.055-2.216 0.317-2.628 0.168-0.265 0.386-0.483 0.642-0.646l0.008-0.005c0.277-0.176 0.455-0.228 0.965-0.278 0.235-0.023 5.239-0.038 11.12-0.034 9.576 0.008 10.722 0.017 10.964 0.092zM24.027 18.142c-0.641 0.12-1.387 0.631-1.779 1.219-0.421 0.63-0.454 0.779-0.486 2.159l-0.028 1.227-0.485 0.034c-0.809 0.057-1.342 0.409-1.667 1.103l-0.142 0.303v3.627l0.142 0.303c0.3 0.641 0.821 1.016 1.539 1.109 0.22 0.028 1.816 0.052 3.546 0.052s3.326-0.023 3.546-0.052c0.718-0.093 1.239-0.468 1.539-1.109l0.142-0.303v-3.627l-0.142-0.303c-0.325-0.693-0.858-1.046-1.667-1.103l-0.485-0.034-0.028-1.227c-0.025-1.115-0.039-1.255-0.15-1.532-0.549-1.379-1.919-2.123-3.395-1.845zM25.372 19.413c0.324 0.143 0.729 0.545 0.876 0.869 0.117 0.258 0.127 0.357 0.143 1.385l0.017 1.106h-3.482l0.017-1.106c0.016-1.022 0.027-1.128 0.14-1.374 0.219-0.477 0.714-0.886 1.192-0.985 0.312-0.065 0.822-0.016 1.097 0.105zM28.341 24.027c0.112 0.062 0.205 0.148 0.273 0.251l0.002 0.003c0.097 0.161 0.104 0.279 0.104 1.719s-0.007 1.559-0.104 1.719c-0.226 0.373-0.091 0.361-3.949 0.361s-3.723 0.012-3.949-0.361c-0.097-0.161-0.104-0.279-0.104-1.719 0-1.439 0.007-1.559 0.104-1.719 0.208-0.344 0.071-0.332 3.941-0.334 3.030-0.001 3.535 0.010 3.682 0.079z"></path>
</svg>
