<svg xmlns="http://www.w3.org/2000/svg" width="32" height="32"><path d="M2.114 1.098C1.149 1.331.347 2.139.079 3.149c-.048.178-.078.544-.078.944L0 4.747h28.267v-.551c0-.731-.073-1.096-.321-1.613-.356-.743-1.118-1.346-1.909-1.511-.201-.042-3.621-.057-11.946-.054-9.882.004-11.712.016-11.977.08M0 7.573v.961l14.12-.014 14.12-.013.015-.947.014-.947H0v.96m.001 8.12c.001 5.814-.009 5.631.326 6.294.225.446.771.985 1.22 1.204.695.34.477.331 7.344.316l6.229-.014.013-.293a9.414 9.414 0 0 1 1.003-3.9 9.34 9.34 0 0 1 11.517-4.611c.294.105.552.191.574.191.022 0 .04-1.008.04-2.24V10.4H0l.001 5.293m10.863-1.448c.7.339.632 1.419-.107 1.698-.1.038-1.172.057-3.2.056-2.881-.001-3.063-.007-3.273-.103-.317-.144-.505-.445-.509-.814-.003-.418.144-.662.518-.86.141-.074.535-.085 3.25-.087 3.03-.002 3.094 0 3.321.11m12.588 1.833c-3.258.468-5.816 2.986-6.36 6.261-.112.673-.084 2.047.055 2.67a7.613 7.613 0 0 0 2.054 3.771c1.052 1.058 2.35 1.761 3.848 2.084.634.137 2.286.135 2.923-.004a7.581 7.581 0 0 0 3.986-2.24c.951-1.005 1.58-2.205 1.89-3.607.162-.733.176-2.166.029-2.894-.611-3.029-2.924-5.367-5.9-5.964-.685-.138-1.853-.173-2.525-.077m-12.774 1.844c.255.071.517.292.609.514.183.437-.006.986-.41 1.192-.206.105-.29.107-3.38.093-3.106-.014-3.172-.017-3.316-.124-.341-.255-.471-.599-.383-1.012.061-.287.325-.583.589-.659.244-.07 6.038-.074 6.291-.004m18.093 2.935c.357.243.495.739.32 1.158-.057.135-.838.955-2.44 2.56-1.297 1.299-2.446 2.423-2.554 2.498a1.105 1.105 0 0 1-.407.164c-.44.059-.522-.002-2.134-1.603-.831-.825-1.557-1.59-1.613-1.699-.294-.565.065-1.276.688-1.359.424-.057.545.028 1.784 1.256l1.161 1.152 2.065-2.06c1.136-1.133 2.138-2.099 2.226-2.146.228-.123.66-.085.904.079" fill-rule="evenodd"/></svg>