<!-- Generated by IcoMoon.io -->
<svg version="1.1" xmlns="http://www.w3.org/2000/svg" width="32" height="32" viewBox="0 0 32 32">
<title>customer-service</title>
<path d="M28.063 15.798h-0.87v-1.208c-0.604-14.605-21.418-14.605-22.022 0v1.208h-0.87c-0.562 0.001-1.1 0.224-1.498 0.621s-0.621 0.936-0.621 1.498v2.6c0.001 0.562 0.224 1.101 0.621 1.498s0.936 0.621 1.498 0.621h0.87v2.447c0.001 0.695 0.277 1.361 0.769 1.852s1.158 0.768 1.853 0.769h4.463c0.095 0.304 0.284 0.569 0.54 0.758s0.566 0.291 0.884 0.293h2.109c1.993-0.044 1.992-3.059-0-3.102h-2.109c-0.318 0.001-0.628 0.104-0.884 0.293s-0.445 0.455-0.54 0.759h-4.462c-0.43-0-0.842-0.171-1.146-0.475s-0.475-0.716-0.475-1.146v-1.133c1.389 0.891 3.434-0.069 3.403-1.792v-5.881c-0.002-0.292-0.063-0.581-0.18-0.848s-0.289-0.508-0.503-0.706c-0.214-0.199-0.467-0.351-0.742-0.448s-0.568-0.137-0.859-0.116c-0.394 0.001-0.78 0.114-1.113 0.324 0.027-2.636 1.093-5.154 2.967-7.008s4.403-2.894 7.039-2.894c2.636 0 5.165 1.040 7.039 2.894s2.94 4.373 2.967 7.008c-0.333-0.21-0.719-0.323-1.113-0.324-0.291-0.020-0.584 0.019-0.859 0.116s-0.528 0.25-0.742 0.448c-0.214 0.199-0.385 0.439-0.503 0.706s-0.179 0.556-0.18 0.848v5.881c0.021 0.528 0.232 1.032 0.592 1.418s0.848 0.631 1.374 0.689c0.526 0.058 1.055-0.075 1.491-0.374s0.751-0.744 0.887-1.256l0.929 0c0.562-0.001 1.1-0.224 1.498-0.621s0.621-0.936 0.621-1.498v-2.6c-0.001-0.562-0.224-1.1-0.621-1.498s-0.936-0.621-1.498-0.621zM5.171 21.636h-0.87c-0.297-0-0.581-0.118-0.791-0.328s-0.328-0.494-0.328-0.791v-2.6c0-0.297 0.118-0.581 0.328-0.791s0.494-0.328 0.791-0.328h0.87v4.837zM13.678 26.652h2.109c0.074 0.002 0.147 0.019 0.214 0.051s0.126 0.079 0.173 0.136c0.047 0.057 0.082 0.124 0.101 0.195s0.023 0.146 0.011 0.22c-0 0.133-0.053 0.26-0.147 0.353s-0.221 0.146-0.353 0.147h-2.109c-0.074-0.002-0.147-0.019-0.214-0.051s-0.126-0.079-0.173-0.136c-0.047-0.057-0.082-0.124-0.101-0.195s-0.023-0.147-0.011-0.22c0-0.133 0.053-0.26 0.147-0.353s0.221-0.146 0.353-0.147zM7.29 15.158c0.16-0.020 0.321-0.006 0.475 0.041s0.296 0.126 0.417 0.231c0.121 0.106 0.219 0.236 0.286 0.381s0.104 0.304 0.106 0.465v5.881c-0.013 1.493-2.39 1.495-2.403-0-0.004-0.008 0.003-5.846 0-5.859-0.003-0.149 0.024-0.296 0.079-0.435s0.137-0.264 0.241-0.37 0.228-0.191 0.365-0.248c0.137-0.058 0.284-0.088 0.433-0.088zM26.193 22.158c-0.002 0.161-0.038 0.319-0.106 0.465s-0.165 0.276-0.286 0.381c-0.121 0.106-0.263 0.184-0.417 0.231s-0.316 0.061-0.475 0.041c-0.297-0-0.581-0.118-0.791-0.328s-0.328-0.494-0.328-0.791v-5.881c0-0.297 0.118-0.581 0.328-0.791s0.494-0.328 0.791-0.328c0.161-0.020 0.325-0.006 0.48 0.043s0.298 0.129 0.42 0.237c0.122 0.108 0.219 0.241 0.285 0.389s0.1 0.309 0.099 0.472c0 0 0.004 5.838 0 5.859zM29.182 20.516c-0 0.297-0.118 0.581-0.328 0.791s-0.494 0.328-0.791 0.328h-0.87c0.002-1.174-0.001-3.681 0-4.837h0.87c0.297 0 0.581 0.118 0.791 0.328s0.328 0.494 0.328 0.791v2.6z"></path>
<path d="M16.182 10.308c-0.951-0.001-1.88 0.282-2.67 0.812s-1.403 1.283-1.762 2.163c-0.359 0.88-0.448 1.848-0.255 2.779s0.659 1.783 1.339 2.448v2.8c0.002 0.098 0.032 0.193 0.086 0.274s0.132 0.144 0.222 0.182c0.090 0.038 0.19 0.049 0.286 0.031s0.185-0.063 0.256-0.131l1.858-1.829c0.65 0.087 1.31 0.041 1.941-0.138s1.218-0.484 1.726-0.899 0.925-0.929 1.225-1.512c0.3-0.583 0.478-1.221 0.522-1.875s-0.047-1.31-0.267-1.927c-0.22-0.617-0.565-1.183-1.013-1.662s-0.989-0.86-1.59-1.121-1.25-0.395-1.905-0.395zM15.468 18.811c-0.080-0.015-0.162-0.011-0.239 0.013s-0.148 0.065-0.206 0.122l-1.189 1.17v-1.823c0-0.070-0.015-0.14-0.044-0.204s-0.071-0.122-0.123-0.169c-0.399-0.355-0.718-0.79-0.938-1.277s-0.333-1.014-0.334-1.548c0.177-5.010 7.395-5.011 7.573 0 0 0.558-0.122 1.109-0.36 1.613s-0.584 0.951-1.014 1.306c-0.43 0.355-0.933 0.611-1.474 0.749s-1.105 0.154-1.652 0.048z"></path>
<path d="M14.38 14.657c-0.138 0.002-0.269 0.058-0.366 0.156s-0.151 0.231-0.151 0.368 0.054 0.27 0.151 0.368c0.097 0.098 0.228 0.154 0.366 0.156 0.138-0.002 0.269-0.058 0.366-0.156s0.151-0.231 0.151-0.368c0-0.138-0.054-0.27-0.151-0.368s-0.228-0.154-0.366-0.156z"></path>
<path d="M16.182 14.657c-0.138 0.002-0.269 0.058-0.366 0.156s-0.151 0.231-0.151 0.368c0 0.138 0.054 0.27 0.151 0.368s0.228 0.154 0.366 0.156c0.138-0.002 0.269-0.058 0.366-0.156s0.151-0.231 0.151-0.368c0-0.138-0.054-0.27-0.151-0.368s-0.228-0.154-0.366-0.156z"></path>
<path d="M17.984 14.657c-0.138 0.002-0.269 0.058-0.366 0.156s-0.151 0.231-0.151 0.368c0 0.138 0.054 0.27 0.151 0.368s0.228 0.154 0.366 0.156c0.138-0.002 0.269-0.058 0.366-0.156s0.151-0.231 0.151-0.368c0-0.138-0.054-0.27-0.151-0.368s-0.228-0.154-0.366-0.156z"></path>
</svg>
