<!-- Generated by IcoMoon.io -->
<svg version="1.1" xmlns="http://www.w3.org/2000/svg" width="32" height="32" viewBox="0 0 32 32">
<title>envelope-1</title>
<path d="M16.758 18.055c-0.45 0.335-1.066 0.335-1.516 0l-10.882-8.096v-1.662c0-0.701 0.569-1.27 1.27-1.27h20.741c0.701 0 1.27 0.569 1.27 1.27v1.662l-10.882 8.096zM14.232 19.414c1.050 0.781 2.487 0.781 3.537 0l11.565-8.604v-2.513c0-1.637-1.327-2.964-2.963-2.964h-20.741c-1.636 0-2.963 1.327-2.963 2.964v2.513l11.565 8.604c0 0 0 0 0 0z"></path>
<path d="M27.25 14.879v8.671c0 0.573-0.467 1.039-1.042 1.039h-20.417c-0.574 0-1.042-0.466-1.042-1.039v-8.671l-2.083-1.546v10.216c0 1.719 1.402 3.117 3.125 3.117h20.417c1.723 0 3.125-1.398 3.125-3.117v-10.216l-2.083 1.546z"></path>
</svg>
