<svg xmlns="http://www.w3.org/2000/svg" width="30" height="32"><path d="M14.65.07c-.147.083-1.209 1.235-1.855 2.012-2.942 3.537-5.185 7.832-6.391 12.24l-.204.746-.288.251c-.508.443-1.856 1.79-2.358 2.356C1.51 19.98.32 22.154.054 24.068c-.095.684-.076.904.096 1.099.083.094.21.183.283.197.081.015 1.099-.224 2.587-.609l2.455-.634.025.739.025.738.15.147c.119.116 1.073.497 4.633 1.851 2.466.937 4.537 1.704 4.603 1.704.106 0 8.882-3.313 9.136-3.448.189-.102.227-.254.253-1.007l.025-.73 2.464.638c2.685.695 2.687.695 2.909.414.193-.246.118-1.181-.174-2.189-.434-1.5-1.475-3.228-3.063-5.088-.524-.613-1.996-2.097-2.519-2.54-.322-.273-.326-.278-.441-.725-.499-1.93-1.295-4.043-2.277-6.05a32.41 32.41 0 0 0-5.079-7.5C15.309.145 15.198.046 14.969.02a.592.592 0 0 0-.319.05m1.248 2.41c.79.935 1.591 2.005 2.278 3.045.309.467.588.901.619.963l.059.112h-7.901l.355-.562c.91-1.443 2.321-3.304 3.333-4.396l.276-.298.192.215c.106.119.461.533.789.921m3.64 5.283c.115.143.83 1.515 1.14 2.187 1.351 2.933 2.144 5.955 2.428 9.25.038.438.064 1.634.066 3.025l.003 2.3-8.268.013-8.267.012.025-2.687c.021-2.33.038-2.801.129-3.536.461-3.719 1.478-6.918 3.191-10.04l.322-.587h4.59c3.613 0 4.601.013 4.641.063m-5.48 5.589c-.573.15-1.025.416-1.484.873-.678.677-1.01 1.529-.962 2.473a3.284 3.284 0 0 0 3.14 3.14c.942.048 1.793-.282 2.477-.963.642-.637.971-1.406.977-2.282.007-.997-.326-1.773-1.058-2.463-.401-.379-1.089-.741-1.57-.827-.453-.081-1.105-.06-1.52.049m1.808 1.214a2.29 2.29 0 0 1 1.049 1.071c.15.317.16.372.159.888-.001.633-.091.925-.412 1.349-.826 1.086-2.398 1.166-3.357.169-1.1-1.142-.596-3.094.928-3.597.229-.076.396-.093.779-.079.441.016.523.035.854.199M5.747 17.575c-.152 1.094-.198 1.828-.231 3.652l-.031 1.751-2.105.544c-1.158.298-2.133.553-2.167.566-.076.028-.05-.134.122-.738.472-1.668 1.795-3.67 3.79-5.739.378-.393.694-.708.7-.7.007.008-.029.307-.078.664m19.764.925c1.651 1.869 2.712 3.675 3.065 5.218.044.189.072.35.064.357-.008.008-.985-.237-2.171-.543l-2.157-.557-.027-1.9c-.025-1.785-.085-2.724-.232-3.63-.091-.559-.095-.559.427-.044.263.261.728.755 1.031 1.099M21.1 25.803c-.206.082-1.684.646-3.284 1.254l-2.909 1.106-3.291-1.255-3.291-1.254 6.575.001 6.575.001-.375.147m-15.367 1.35c-.227.178-.24.33-.224 2.472.017 2.163.013 2.128.295 2.294.25.148.582.065.75-.187.058-.087.074-.474.087-2.032.008-1.059.001-2.024-.017-2.146-.047-.317-.246-.504-.538-.504a.551.551 0 0 0-.353.103m17.637.067-.17.17v4.252l.128.152a.53.53 0 0 0 .65.139c.327-.156.327-.15.311-2.488l-.014-2.103-.163-.146c-.239-.214-.513-.205-.742.024m-14.35 2.2-.17.17v2.052l.128.152c.165.197.419.25.655.137.279-.133.317-.294.317-1.332 0-.999-.032-1.135-.298-1.273-.245-.127-.441-.097-.632.094m11.142-.104c-.254.142-.286.254-.305 1.099-.023 1.021.006 1.208.217 1.419.27.27.679.197.844-.152.112-.234.12-1.845.011-2.105-.117-.281-.498-.41-.767-.261m-8.367 1.174-.17.152v.528c0 .51.005.532.139.666.114.115.182.139.386.139.204 0 .272-.024.386-.139.134-.133.139-.156.139-.661 0-.498-.006-.529-.132-.654a.56.56 0 0 0-.355-.157c-.197-.022-.244-.007-.393.126m5.574-.045c-.194.119-.269.326-.269.742 0 .532.208.813.603.813.234 0 .478-.264.523-.566.042-.278-.007-.727-.091-.836-.195-.253-.502-.314-.766-.153" fill-rule="evenodd"/></svg>