<svg width="24" height="24" fill="none" xmlns="http://www.w3.org/2000/svg"><path d="M4.617 4.283c-.585.069-1.098.328-1.552.781a2.687 2.687 0 0 0-.693 1.116c-.091.277-.105.387-.105.82 0 .433.014.543.105.82.146.44.357.781.692 1.116.335.335.676.546 1.116.692.277.091.387.105.82.105.433 0 .543-.014.82-.105.44-.146.781-.357 1.116-.692.335-.335.546-.676.692-1.116.091-.277.105-.387.105-.82 0-.432-.014-.543-.105-.82-.425-1.294-1.642-2.06-3.011-1.897m.911 1.59c.239.117.481.359.599.599.133.27.133.787 0 1.057-.464.943-1.795.943-2.252 0a1.425 1.425 0 0 1-.074-.871c.097-.348.43-.703.785-.838.232-.088.708-.061.942.053m5.271.403c-.369.074-.536.299-.538.724-.001.332.101.542.322.657.156.083.18.083 5.417.083s5.261 0 5.417-.083c.221-.115.323-.325.322-.657-.002-.335-.089-.517-.31-.643l-.169-.097-5.16-.006c-2.838-.003-5.223.007-5.301.022m7.818 8.007c-.585.069-1.098.328-1.552.781a2.687 2.687 0 0 0-.693 1.116c-.091.277-.105.387-.105.82 0 .433.014.543.105.82.146.44.357.781.692 1.116.335.335.676.546 1.116.692.277.091.387.105.82.105.433 0 .543-.014.82-.105.44-.146.781-.357 1.116-.692.335-.335.546-.676.692-1.116.091-.277.105-.387.105-.82 0-.432-.014-.543-.105-.82-.425-1.294-1.642-2.06-3.011-1.897m.911 1.59c.239.117.481.359.599.599.133.27.133.787 0 1.057-.464.943-1.795.943-2.252 0a1.425 1.425 0 0 1-.074-.871c.097-.348.43-.703.785-.838.232-.088.708-.061.942.053m-16.729.403c-.369.074-.536.299-.538.724-.001.332.101.542.322.657.156.083.18.083 5.417.083s5.261 0 5.417-.083c.221-.115.323-.325.322-.657-.002-.335-.089-.517-.31-.643l-.169-.097-5.16-.006c-2.838-.003-5.223.007-5.301.022" fill-rule="evenodd" fill="#000"/></svg>