<!-- Generated by IcoMoon.io -->
<svg version="1.1" xmlns="http://www.w3.org/2000/svg" width="32" height="32" viewBox="0 0 32 32">
<title>free-delivery</title>
<path d="M29.76 17.71l-0.829-3.315c0.227-0.048 0.397-0.249 0.397-0.49v-0.534c0-1.16-0.944-2.104-2.104-2.104h-3.774v-1.102c0-0.571-0.465-1.036-1.035-1.036h-7.018l4.265-1.706c0.257-0.103 0.382-0.394 0.279-0.651s-0.394-0.382-0.651-0.279l-3.492 1.397c1.064-0.683 2.117-1.434 2.518-1.96 0.78-1.023 0.583-2.49-0.44-3.271s-2.49-0.583-3.271 0.44c-0.57 0.748-1.322 2.848-1.809 4.329-0.487-1.48-1.239-3.581-1.809-4.329-0.78-1.023-2.247-1.221-3.271-0.44s-1.221 2.247-0.44 3.271c0.401 0.526 1.454 1.277 2.518 1.96l-3.492-1.397c-0.257-0.103-0.549 0.022-0.651 0.279s0.022 0.549 0.279 0.651l4.265 1.706h-7.018c-0.571 0-1.035 0.464-1.035 1.036v9.086c0 0.277 0.224 0.501 0.501 0.501s0.501-0.224 0.501-0.501v-9.086c0-0.018 0.015-0.033 0.033-0.033h19.24c0.018 0 0.033 0.015 0.033 0.033v9.086c0 0.277 0.224 0.501 0.501 0.501s0.501-0.224 0.501-0.501v-0.568h5.91c0.001 0 0.001 0 0.002 0s0.001-0 0.002-0c0.727 0.001 1.345 0.478 1.557 1.136h-1.558c-0.277 0-0.501 0.224-0.501 0.501v1.069c0 0.866 0.704 1.57 1.57 1.57h0.568v2.205h-1.31c-0.43-1.243-1.612-2.138-2.999-2.138s-2.569 0.895-2.999 2.138h-0.241v-3.775c0-0.277-0.224-0.501-0.501-0.501s-0.501 0.224-0.501 0.501v3.775h-10.396c-0.43-1.243-1.612-2.138-2.999-2.138s-2.569 0.895-2.999 2.138h-2.88c-0.018 0-0.033-0.015-0.033-0.033v-1.102h2.171c0.277 0 0.501-0.224 0.501-0.501s-0.224-0.501-0.501-0.501h-4.81c-0.277 0-0.501 0.224-0.501 0.501s0.224 0.501 0.501 0.501h1.637v1.102c0 0.571 0.465 1.035 1.035 1.035h2.707c-0 0.011-0.001 0.022-0.001 0.033 0 1.75 1.424 3.173 3.173 3.173s3.173-1.424 3.173-3.173c0-0.011-0.001-0.022-0.001-0.033h11.292c-0 0.011-0.001 0.022-0.001 0.033 0 1.75 1.424 3.173 3.173 3.173s3.173-1.424 3.173-3.173c0-0.011-0.001-0.022-0.001-0.033h1.638c0.277 0 0.501-0.224 0.501-0.501v-5.344c0-1.32-0.973-2.416-2.24-2.609zM10.806 7.343c-1.976-1.228-2.563-1.793-2.736-2.021-0.445-0.584-0.332-1.421 0.251-1.866 0.241-0.183 0.524-0.272 0.806-0.272 0.401 0 0.798 0.18 1.060 0.523 0.485 0.635 1.244 2.774 1.745 4.316-0.338-0.199-0.727-0.432-1.126-0.68zM13.655 8.023c0.501-1.541 1.26-3.68 1.745-4.316 0.445-0.584 1.282-0.696 1.866-0.251s0.696 1.282 0.251 1.866c-0.174 0.228-0.76 0.793-2.736 2.021-0.399 0.248-0.788 0.481-1.126 0.68zM23.449 12.269h3.774c0.608 0 1.102 0.495 1.102 1.102v0.033h-4.877v-1.136zM23.449 17.68v-3.274h4.452l0.818 3.274h-5.271zM9.052 28.369c-1.197 0-2.171-0.974-2.171-2.171s0.974-2.171 2.171-2.171c1.197 0 2.171 0.974 2.171 2.171s-0.974 2.171-2.171 2.171zM26.689 28.369c-1.197 0-2.171-0.974-2.171-2.171s0.974-2.171 2.171-2.171c1.197 0 2.171 0.974 2.171 2.171s-0.974 2.171-2.171 2.171zM30.998 21.956h-0.568c-0.313 0-0.568-0.255-0.568-0.568v-0.568h1.136l0 1.136z"></path>
<path d="M9.052 25.162c-0.571 0-1.036 0.465-1.036 1.035s0.464 1.035 1.036 1.035c0.571 0 1.036-0.465 1.036-1.035s-0.464-1.035-1.036-1.035z"></path>
<path d="M26.689 25.162c-0.571 0-1.035 0.465-1.035 1.035s0.465 1.035 1.035 1.035c0.571 0 1.035-0.465 1.035-1.035s-0.465-1.035-1.035-1.035z"></path>
<path d="M20.81 23.024h-7.482c-0.277 0-0.501 0.224-0.501 0.501s0.224 0.501 0.501 0.501h7.482c0.277 0 0.501-0.224 0.501-0.501s-0.224-0.501-0.501-0.501z"></path>
<path d="M7.983 20.887h-6.413c-0.277 0-0.501 0.224-0.501 0.501s0.224 0.501 0.501 0.501h6.413c0.277 0 0.501-0.224 0.501-0.501s-0.224-0.501-0.501-0.501z"></path>
<path d="M7.983 13.404h-2.138c-0.277 0-0.501 0.224-0.501 0.501v4.276c0 0.277 0.224 0.501 0.501 0.501s0.501-0.224 0.501-0.501v-1.637h1.102c0.277 0 0.501-0.224 0.501-0.501s-0.224-0.501-0.501-0.501h-1.102v-1.136h1.637c0.277 0 0.501-0.224 0.501-0.501s-0.224-0.501-0.501-0.501z"></path>
<path d="M11.926 16.779c0.501-0.328 0.834-0.895 0.834-1.538 0-1.013-0.824-1.837-1.837-1.837h-1.336c-0.277 0-0.501 0.224-0.501 0.501v4.276c0 0.277 0.224 0.501 0.501 0.501s0.501-0.224 0.501-0.501v-1.102h0.834l0.92 1.38c0.097 0.145 0.255 0.223 0.417 0.223 0.096 0 0.192-0.027 0.277-0.084 0.23-0.153 0.293-0.465 0.139-0.695l-0.749-1.124zM10.923 16.076h-0.835v-1.67h0.835c0.46 0 0.835 0.375 0.835 0.835s-0.375 0.835-0.835 0.835z"></path>
<path d="M16 17.68h-1.637v-1.137c0.011 0.001 0.022 0.002 0.033 0.002h1.069c0.277 0 0.501-0.224 0.501-0.501s-0.224-0.501-0.501-0.501h-1.069c-0.011 0-0.022 0.001-0.033 0.002v-1.137h1.637c0.277 0 0.501-0.224 0.501-0.501s-0.224-0.501-0.501-0.501h-2.138c-0.277 0-0.501 0.224-0.501 0.501v4.276c0 0.277 0.224 0.501 0.501 0.501h2.138c0.277 0 0.501-0.224 0.501-0.501s-0.224-0.501-0.501-0.501z"></path>
<path d="M19.741 17.68h-1.637v-1.136h0.568c0.277 0 0.501-0.224 0.501-0.501s-0.224-0.501-0.501-0.501h-0.568v-1.136h1.637c0.277 0 0.501-0.224 0.501-0.501s-0.224-0.501-0.501-0.501h-2.138c-0.277 0-0.501 0.224-0.501 0.501v4.276c0 0.277 0.224 0.501 0.501 0.501h2.138c0.277 0 0.501-0.224 0.501-0.501s-0.224-0.501-0.501-0.501z"></path>
</svg>
