<svg xmlns="http://www.w3.org/2000/svg" width="32" height="32"><path d="M9.413 7.146c-4.903.02-6.641.043-6.72.09-.175.102-.442.406-.507.577-.158.412-.006.965.334 1.217.306.227.468.25 1.791.25 1.174 0 1.271.007 1.492.114a.958.958 0 0 1 .39.357c.268.423.189 1.04-.176 1.381-.236.219-.532.281-1.349.281-.691 0-.779.011-.993.124-.263.139-.514.491-.562.789-.043.262.064.604.257.824.293.333.399.363 1.403.395.853.027.919.037 1.103.162.315.212.471.498.471.866 0 .514-.29.928-.735 1.051-.123.034-1.08.056-2.494.056-2.275 0-2.297.001-2.53.12-.349.178-.547.456-.576.807-.044.522.149.871.597 1.079l.271.126 2.323.001h2.323l.264.133c.361.181.52.429.547.851.024.385-.092.673-.363.901-.245.206-.478.248-1.387.25-.686.001-.864.018-1.043.099-.419.19-.648.612-.592 1.089.043.36.245.64.585.809l.271.135h4.384l.201-.492c.932-2.283 3.69-3.339 5.562-2.129.817.528 1.348 1.521 1.351 2.528l.001.306h6.342l.061-.226c.085-.318.38-.944.589-1.25.786-1.148 2.073-1.846 3.408-1.847.617-.001.993.084 1.493.337.932.47 1.596 1.515 1.599 2.517.001.137.019.261.041.274.096.058.701-.09.986-.242.75-.4 1.308-1.3 1.591-2.565.201-.895.583-3.302.583-3.667 0-.478-.129-.871-.604-1.84-.698-1.423-1.489-2.7-1.936-3.125a4.293 4.293 0 0 0-1.117-.741c-.578-.247-.848-.285-2.289-.315l-1.386-.03-.041-.293a2.722 2.722 0 0 0-.224-.667 2.38 2.38 0 0 0-1.47-1.257c-.671-.208-3.467-.251-13.52-.21m17.8 4.03c.786.191 1.244.6 1.9 1.697.652 1.088.978 1.778.937 1.979a.74.74 0 0 1-.36.51c-.163.1-.288.104-2.921.104l-2.75.001.255-2.04c.141-1.122.27-2.12.287-2.217l.032-.177 1.157.035c.684.02 1.282.065 1.463.108m-15.791.006c.112.1.128.375.03.503-.137.177-.295.208-1.068.208h-.77l-.038.334a8.348 8.348 0 0 1-.067.48l-.029.146h.62c.549 0 .632.013.727.107.149.15.132.342-.048.544-.153.172-.155.172-.786.201l-.633.028-.094.694c-.101.746-.174.916-.434 1.002-.199.067-.392-.025-.438-.206-.02-.079.078-.954.222-1.989.248-1.787.261-1.852.403-1.994l.146-.147h1.08c.93 0 1.093.013 1.177.089m3.248.058c.408.206.551.475.546 1.024-.005.632-.288 1.213-.706 1.454l-.205.118.181.52c.099.286.181.577.181.648 0 .18-.185.395-.376.437-.288.063-.385-.058-.641-.797l-.231-.671h-.47c-.279 0-.469.022-.469.054 0 .282-.18 1.16-.255 1.243-.218.243-.619.214-.685-.049-.017-.069.089-.972.236-2.005.258-1.815.272-1.884.409-2.001.136-.118.176-.122 1.168-.122 1.016 0 1.031.002 1.317.147m4.02-.063c.126.127.104.381-.048.532-.128.129-.146.131-1.034.131-1.037 0-.932-.063-.999.6l-.037.36h.724c.688 0 .729.006.808.119.121.173.102.296-.073.472l-.156.156h-1.434l-.061.47a9.32 9.32 0 0 0-.06.56c0 .08.089.09.856.09.837 0 .858.002.986.131.072.072.131.157.131.189 0 .132-.174.381-.299.429-.074.028-.626.051-1.227.051-1.088 0-1.092-.001-1.223-.131-.072-.072-.131-.162-.131-.2 0-.085.476-3.487.512-3.661a.629.629 0 0 1 .155-.253c.128-.128.131-.129 1.327-.129 1.019 0 1.211.013 1.283.084m3.413 0c.127.127.104.381-.047.532-.129.129-.147.131-1.034.131-1.037 0-.933-.063-1 .6l-.037.36h.725c.688 0 .728.006.807.119.121.173.102.296-.073.472l-.156.156H19.859l-.063.472c-.034.26-.063.512-.063.56 0 .078.099.088.856.088.838 0 .859.002.987.131.072.072.131.157.131.189 0 .132-.174.381-.3.429-.074.028-.625.051-1.226.051-1.089 0-1.093-.001-1.223-.131-.072-.072-.131-.162-.131-.2-.001-.085.475-3.487.511-3.661a.64.64 0 0 1 .155-.253c.129-.128.131-.129 1.327-.129 1.019 0 1.212.013 1.283.084M1.04 11.49c-.281.104-.59.44-.667.726-.113.42.069.896.441 1.154.446.309 1.084.192 1.448-.266.137-.173.164-.257.179-.56.014-.296-.005-.394-.106-.568-.261-.449-.822-.66-1.295-.486m11.756.363c-.039.144-.19 1.305-.173 1.334.035.06.828.048 1.132-.018.453-.097.732-.542.61-.973-.076-.272-.31-.356-.992-.356-.315 0-.575.006-.577.013M11.6 20.219c-.668.096-1.444.616-1.846 1.238-.821 1.269-.431 2.812.831 3.284.912.342 1.964.054 2.714-.741 1.123-1.19.994-2.887-.271-3.561-.261-.14-.861-.294-1.055-.272-.029.003-.197.027-.373.052m13.584-.004c-.96.139-1.831.849-2.202 1.794-.097.247-.122.42-.125.844-.003.48.012.567.151.869.378.818 1.328 1.305 2.221 1.14a2.85 2.85 0 0 0 1.816-1.125c.33-.449.477-.836.514-1.351.099-1.386-.982-2.374-2.375-2.171" fill-rule="evenodd"/></svg>