<svg width="16" height="16" fill="none" xmlns="http://www.w3.org/2000/svg"><path d="M3.116 1.281c-.499.055-.865.219-1.219.546a1.96 1.96 0 0 0-.57.986c-.052.198-.056.303-.067 1.448-.01 1.114-.006 1.249.035 1.381.097.308.358.455.767.432.32-.017.519-.134.625-.367.037-.079.046-.271.061-1.254.01-.638.028-1.213.039-1.279a.552.552 0 0 1 .387-.387c.066-.011.641-.029 1.279-.039 1.253-.019 1.257-.02 1.418-.169a.824.824 0 0 0 .133-.182c.054-.101.063-.155.063-.397 0-.264-.005-.289-.082-.425a.517.517 0 0 0-.227-.226l-.145-.082-1.146-.004a26.689 26.689 0 0 0-1.351.018m7.295-.004a.778.778 0 0 0-.353.215c-.136.185-.179.561-.094.825a.692.692 0 0 0 .135.23c.178.184.162.181 1.448.201.638.01 1.213.028 1.279.039.15.027.357.221.384.361.01.051.025.602.032 1.225.017 1.284.024 1.34.201 1.517.142.142.336.2.62.185.355-.019.549-.152.644-.442.039-.118.043-.277.033-1.37-.011-1.147-.015-1.252-.067-1.45-.142-.542-.42-.929-.876-1.22a1.828 1.828 0 0 0-.65-.274c-.17-.039-.384-.047-1.427-.054-.675-.005-1.264.001-1.309.012M7.493 4.626a3.428 3.428 0 0 0-2.72 2.263C4.636 7.284 4.6 7.517 4.6 8c0 .326.013.499.049.666a3.452 3.452 0 0 0 2.685 2.685c.316.068 1.016.068 1.332 0a3.452 3.452 0 0 0 2.685-2.685c.068-.316.068-1.016 0-1.332a3.449 3.449 0 0 0-2.458-2.63c-.384-.11-.967-.142-1.4-.078m.789 1.483c.246.034.487.117.697.241.197.116.555.474.671.671a1.967 1.967 0 0 1 0 1.958c-.121.207-.477.558-.69.682a2.496 2.496 0 0 1-.387.171c-.188.062-.255.071-.573.071-.318 0-.385-.009-.573-.071a2.496 2.496 0 0 1-.387-.171c-.213-.124-.569-.475-.69-.682a1.967 1.967 0 0 1 0-1.958c.116-.197.474-.555.671-.671a1.896 1.896 0 0 1 1.261-.241M1.745 9.943a.774.774 0 0 0-.354.217c-.138.186-.143.245-.131 1.577.011 1.147.015 1.252.067 1.45.106.405.282.713.56.978.275.262.538.407.926.508.198.052.303.056 1.45.067 1.093.01 1.252.006 1.37-.033a.54.54 0 0 0 .358-.29c.07-.126.076-.159.076-.417 0-.264-.005-.289-.082-.425a.517.517 0 0 0-.227-.226l-.145-.082-1.2-.017c-.786-.011-1.234-.027-1.298-.048-.136-.042-.302-.236-.328-.382a24.374 24.374 0 0 1-.039-1.273c-.019-1.253-.02-1.257-.169-1.418-.12-.13-.276-.189-.525-.198a1.612 1.612 0 0 0-.309.012m12 0a.774.774 0 0 0-.354.217c-.124.167-.134.267-.149 1.467a24.575 24.575 0 0 1-.031 1.219c-.024.12-.205.319-.326.356-.064.021-.512.037-1.298.048l-1.2.017-.137.076a.723.723 0 0 0-.191.148c-.137.186-.18.562-.095.827a.6.6 0 0 0 .394.387c.132.041.267.045 1.381.035 1.166-.011 1.247-.015 1.461-.07a2.017 2.017 0 0 0 1.47-1.47c.055-.214.059-.295.07-1.463.01-1.093.006-1.252-.033-1.37a.537.537 0 0 0-.287-.355c-.11-.06-.174-.074-.363-.081a1.637 1.637 0 0 0-.312.012" fill-rule="evenodd" fill="#000"/></svg>