<!-- Generated by IcoMoon.io -->
<svg version="1.1" xmlns="http://www.w3.org/2000/svg" width="32" height="32" viewBox="0 0 32 32">
<title>headphones</title>
<path d="M14.987 3.445l-0.693 0.078c-1.585 0.178-3.407 0.751-4.853 1.525-0.593 0.317-1.67 1.036-2.239 1.495-0.616 0.497-1.54 1.427-2.057 2.072-1.349 1.67-2.328 3.693-2.782 5.909l-0.015 0.090c-0.242 1.215-0.267 1.694-0.267 5.134v3.195l0.156 0.156c0.132 0.132 0.198 0.156 0.431 0.156 0.231 0 0.299-0.024 0.426-0.152l0.152-0.151 0.023-3.409c0.021-3.136 0.032-3.464 0.135-4.102 0.354-2.203 1.172-4.111 2.536-5.92 0.414-0.549 1.7-1.835 2.249-2.249 1.429-1.078 2.985-1.843 4.6-2.262 4.421-1.147 9.132 0.164 12.311 3.426 1.56 1.6 2.684 3.577 3.218 5.659 0.378 1.475 0.429 2.169 0.43 5.87l0.001 2.978 0.156 0.156c0.132 0.132 0.198 0.156 0.431 0.156s0.299-0.024 0.431-0.156l0.156-0.156v-3.164c0-1.81-0.025-3.426-0.057-3.777-0.229-2.476-1.213-5.016-2.718-7.013-2.219-2.945-5.432-4.86-9.092-5.42-0.661-0.101-2.588-0.178-3.067-0.122zM9.413 16.781c-1.332 0.215-2.523 1.138-3.035 2.354-0.28 0.665-0.298 0.883-0.298 3.504 0 2.626 0.023 2.906 0.294 3.55 0.377 0.896 1.208 1.727 2.104 2.104 1.166 0.491 2.655 0.351 3.68-0.345 0.873-0.593 1.472-1.473 1.677-2.466 0.118-0.572 0.125-4.995 0.009-5.602-0.266-1.389-1.413-2.625-2.781-2.997-0.317-0.087-1.349-0.149-1.65-0.101zM21.413 16.781c-1.332 0.215-2.523 1.138-3.035 2.354-0.28 0.665-0.298 0.883-0.298 3.504 0 2.626 0.023 2.906 0.294 3.55 0.377 0.896 1.208 1.727 2.104 2.104 1.166 0.491 2.655 0.351 3.68-0.345 0.873-0.593 1.472-1.473 1.677-2.466 0.118-0.572 0.125-4.995 0.009-5.602-0.266-1.389-1.413-2.625-2.781-2.997-0.317-0.087-1.349-0.149-1.65-0.101zM10.569 17.997c0.546 0.116 0.93 0.329 1.351 0.75s0.633 0.804 0.75 1.351c0.108 0.513 0.108 4.626 0 5.139-0.21 0.942-0.875 1.693-1.748 2.019l-0.019 0.006c-0.252 0.092-0.434 0.115-0.903 0.115-0.655 0-1.005-0.094-1.477-0.396-0.345-0.222-0.791-0.722-0.971-1.090-0.273-0.559-0.297-0.813-0.297-3.224 0-2.416 0.023-2.66 0.301-3.236 0.2-0.412 0.797-1.009 1.21-1.208 0.584-0.283 1.179-0.357 1.803-0.225zM22.569 17.997c0.546 0.116 0.93 0.329 1.351 0.75s0.633 0.804 0.75 1.351c0.108 0.513 0.108 4.626 0 5.139-0.21 0.942-0.875 1.693-1.748 2.019l-0.019 0.006c-0.252 0.092-0.434 0.115-0.903 0.115-0.655 0-1.005-0.094-1.477-0.396-0.345-0.222-0.791-0.722-0.971-1.090-0.273-0.559-0.297-0.813-0.297-3.224 0-2.416 0.023-2.66 0.301-3.236 0.2-0.412 0.797-1.009 1.21-1.208 0.584-0.283 1.179-0.357 1.803-0.225z"></path>
</svg>
