<svg xmlns="http://www.w3.org/2000/svg" width="32" height="32"><path d="M14.789.055c-1.824.177-3.378.615-5.008 1.414-3.009 1.475-5.527 4.156-6.758 7.198-.669 1.652-.973 3.008-1.082 4.824l-.036.611.154-.102c.472-.311.89-.519 1.312-.651.367-.116.477-.173.492-.256.01-.058.058-.402.106-.763.466-3.508 2.567-6.721 5.64-8.627 1.405-.871 2.977-1.441 4.711-1.708.799-.123 2.551-.123 3.36.001 1.726.263 3.305.835 4.711 1.707 3.076 1.907 5.175 5.121 5.641 8.637.124.931.105.873.301.915.329.07.99.349 1.301.549.172.111.346.222.386.246.062.038.068-.058.037-.589-.213-3.648-1.651-6.878-4.17-9.366a13.356 13.356 0 0 0-2.18-1.78A14.09 14.09 0 0 0 17.868.128c-.696-.096-2.422-.137-3.079-.073M7.893 13.203c-.993.215-1.805.985-2.101 1.993-.075.255-.085.808-.085 4.568 0 4.117.004 4.291.106 4.621.199.647.794 1.368 1.367 1.658.92.467 1.995.424 2.824-.113.605-.391 1.107-1.112 1.249-1.793.038-.186.052-1.655.042-4.54l-.015-4.264-.12-.318c-.346-.918-1.15-1.62-2.08-1.817a2.508 2.508 0 0 0-1.187.005m15.002-.002c-.907.197-1.713.909-2.055 1.814l-.12.318-.015 4.264c-.01 2.885.004 4.354.042 4.54.085.408.376.971.672 1.299.639.709 1.666 1.074 2.514.893.404-.086.412-.066.162.41-.205.39-.774.984-1.106 1.153-.664.339-.68.341-2.589.359l-1.76.016-.172-.363c-.306-.648-.975-1.201-1.718-1.419-.367-.108-1.061-.109-1.468-.003-1.348.351-2.265 1.713-2.067 3.071.24 1.646 1.88 2.774 3.441 2.368.765-.2 1.526-.805 1.833-1.459l.151-.321 1.866-.021c1.694-.019 1.905-.031 2.272-.133 1.695-.469 2.964-1.746 3.386-3.411l.129-.51v-5.29c0-4.686-.009-5.323-.085-5.58-.3-1.02-1.111-1.782-2.128-1.996a2.486 2.486 0 0 0-1.185.001M3.464 15.342c-.499.25-.977.725-1.215 1.209-.317.643-.337.863-.315 3.394.021 2.454.017 2.42.334 3.044.26.513 1.023 1.192 1.465 1.302l.134.034v-4.589c0-2.524-.003-4.589-.007-4.589-.003 0-.182.088-.396.195m24.669 4.399v4.584l.134-.033c.624-.153 1.407-.997 1.691-1.823.131-.38.168-4.6.046-5.191a2.824 2.824 0 0 0-1.684-2.044l-.187-.078v4.585" fill-rule="evenodd"/></svg>