<svg width="24" height="24" fill="none" xmlns="http://www.w3.org/2000/svg"><path d="m11.28 1.023-.56.06A10.685 10.685 0 0 0 7.18 2.12c-1.135.551-1.987 1.165-2.942 2.119-.961.959-1.595 1.841-2.141 2.981C.301 10.968.728 15.286 3.226 18.633c.475.636 1.527 1.683 2.174 2.164 3.964 2.948 9.266 2.937 13.237-.027.609-.454 1.679-1.524 2.133-2.133 2.974-3.985 2.974-9.289 0-13.274-.454-.608-1.523-1.677-2.13-2.128-1.595-1.186-3.275-1.875-5.217-2.139C13 1.038 11.574.99 11.28 1.023m2.04 2.078c2.563.387 4.804 1.83 6.24 4.019.303.463.743 1.359.932 1.9.346.993.485 1.845.485 2.98 0 1.493-.257 2.621-.897 3.94-.705 1.454-1.769 2.667-3.153 3.592-.789.528-2.051 1.056-3.019 1.265a9.053 9.053 0 0 1-7.538-1.778c-1.513-1.212-2.648-2.99-3.103-4.859-.186-.763-.244-1.272-.244-2.16 0-1.493.257-2.621.897-3.94a8.983 8.983 0 0 1 5.24-4.594c.705-.233 1.272-.348 2.18-.442.322-.033 1.571.015 1.98.077M9.24 7.047c-1.406.2-2.717 1.421-3.109 2.893-.094.353-.106.473-.105 1.02.001.503.017.678.085.927.214.781.534 1.319 1.259 2.113.748.821 2.945 2.894 3.461 3.267.362.262.743.387 1.169.385.531-.002.913-.158 1.398-.567.711-.601 2.503-2.305 3.095-2.945.843-.909 1.156-1.411 1.377-2.209.095-.345.108-.462.108-.991 0-.532-.013-.645-.111-1-.315-1.139-1.063-2.042-2.138-2.58-1.025-.513-2.354-.454-3.409.153l-.34.196-.16-.109c-.685-.467-1.683-.681-2.58-.553m.94 2.008c.354.095.581.231.934.558.676.626 1.09.665 1.586.147.559-.583 1.135-.825 1.722-.723.951.166 1.647 1.085 1.564 2.065-.055.658-.293 1.011-1.483 2.202-.836.837-2.443 2.336-2.505 2.336-.051 0-1.44-1.281-2.234-2.059-1.344-1.319-1.638-1.714-1.734-2.334-.2-1.294.988-2.505 2.15-2.192" fill-rule="evenodd" fill="#000"/></svg>