<svg width="16" height="14" fill="none" xmlns="http://www.w3.org/2000/svg"><path d="M4.254.31a4.733 4.733 0 0 0-1.881.745A4.836 4.836 0 0 0 .401 3.891a5.167 5.167 0 0 0 0 2.404c.19.745.575 1.488 1.041 2.012.335.375 3.765 3.9 4.029 4.14.306.279.458.386.807.569a3.677 3.677 0 0 0 2.615.313c.722-.178 1.254-.491 1.856-1.088.403-.4 3.624-3.727 3.809-3.934.574-.644.992-1.561 1.137-2.494a5.49 5.49 0 0 0-.084-1.88C15.124 1.997 13.61.593 11.703.306a6.032 6.032 0 0 0-1.363.001 4.685 4.685 0 0 0-2.133.902L8 1.365l-.207-.156A4.685 4.685 0 0 0 5.66.307 6.478 6.478 0 0 0 4.254.31M5.492 1.8c.637.112 1.154.373 1.668.841.149.136.305.25.413.302.157.076.198.084.427.084.229 0 .27-.008.427-.083.109-.053.26-.163.409-.301.612-.562 1.273-.845 2.05-.876.54-.021.933.051 1.405.259.67.294 1.262.866 1.601 1.543.389.778.456 1.77.175 2.609-.177.528-.403.891-.846 1.359-.949 1.001-3.741 3.853-3.863 3.945a1.879 1.879 0 0 1-.534.301 2.215 2.215 0 0 1-1.648 0 1.9 1.9 0 0 1-.534-.3c-.123-.094-3.016-3.048-3.877-3.96-.431-.457-.657-.822-.832-1.345a3.467 3.467 0 0 1 0-2.169c.175-.522.425-.928.813-1.317a3.138 3.138 0 0 1 1.686-.891 3.88 3.88 0 0 1 1.06-.001" fill-rule="evenodd" fill="#000"/></svg>