<!-- Generated by IcoMoon.io -->
<svg version="1.1" xmlns="http://www.w3.org/2000/svg" width="32" height="32" viewBox="0 0 32 32">
<title>help</title>
<path d="M22.274 6.4h-18.948c-1.834 0-3.326 1.492-3.326 3.326v14.148c0 1.834 1.492 3.326 3.326 3.326h1.474v4c0 0.324 0.195 0.615 0.494 0.739 0.099 0.041 0.203 0.061 0.306 0.061 0.208 0 0.412-0.081 0.566-0.234l4.566-4.566h11.542c1.834 0 3.326-1.492 3.326-3.326v-14.148c0-1.834-1.492-3.326-3.326-3.326v-0zM24 23.873c0 0.952-0.774 1.726-1.726 1.726h-11.873c-0.212 0-0.416 0.084-0.566 0.234l-3.434 3.434v-2.869c0-0.442-0.359-0.8-0.8-0.8h-2.274c-0.952-0-1.726-0.775-1.726-1.726v-14.148c0-0.952 0.775-1.726 1.726-1.726h18.948c0.952 0 1.727 0.774 1.727 1.726l-0.001 14.148zM31.999 3.325v14.148c0 1.835-1.492 3.326-3.326 3.326h-0.674c-0.442 0-0.8-0.359-0.8-0.8s0.358-0.8 0.8-0.8h0.674c0.951 0 1.726-0.775 1.726-1.726v-14.148c0-0.951-0.775-1.726-1.726-1.726h-18.948c-0.952 0-1.726 0.775-1.726 1.726v0.674c0 0.442-0.359 0.8-0.8 0.8s-0.8-0.359-0.8-0.8v-0.674c0-1.834 1.492-3.326 3.326-3.326h18.948c1.835 0 3.326 1.492 3.326 3.326l-0.001-0.001zM18.4 14.4c0 0.442-0.358 0.8-0.8 0.8h-9.6c-0.442 0-0.8-0.359-0.8-0.8s0.359-0.8 0.8-0.8h9.6c0.442-0 0.8 0.358 0.8 0.8h-0zM16.799 19.2c0 0.442-0.359 0.8-0.8 0.8h-8c-0.442 0-0.8-0.358-0.8-0.8s0.359-0.8 0.8-0.8h8c0.442 0 0.8 0.358 0.8 0.8z"></path>
</svg>
