<!-- Generated by IcoMoon.io -->
<svg version="1.1" xmlns="http://www.w3.org/2000/svg" width="32" height="32" viewBox="0 0 32 32">
<title>import</title>
<path d="M29.714 0h-15.006l-7.851 7.84v4.731h2.286v-1.589h8.697v-8.697h11.874v27.429h-22.857c0 0.606 0.241 1.188 0.669 1.616s1.010 0.669 1.616 0.669h20.571c0.606 0 1.188-0.241 1.616-0.669s0.669-1.010 0.669-1.616v-27.429c0-0.606-0.241-1.188-0.669-1.616s-1.010-0.669-1.616-0.669zM16 9.143h-6.857v-0.366l6.514-6.491h0.343v6.857z"></path>
<path d="M11.36 25.463c-0.12 0.102-0.217 0.229-0.285 0.37s-0.107 0.296-0.113 0.454c-0.006 0.157 0.020 0.314 0.078 0.461s0.145 0.28 0.256 0.391c0.111 0.111 0.245 0.199 0.391 0.256s0.304 0.084 0.461 0.078 0.312-0.045 0.454-0.113c0.142-0.069 0.268-0.166 0.37-0.285l6.457-6.503-6.491-6.491c-0.219-0.187-0.5-0.285-0.787-0.274s-0.56 0.13-0.764 0.334-0.323 0.476-0.334 0.764c-0.011 0.288 0.087 0.569 0.274 0.788l3.76 3.737h-13.943c-0.303 0-0.594 0.12-0.808 0.335s-0.335 0.505-0.335 0.808c0 0.303 0.12 0.594 0.335 0.808s0.505 0.335 0.808 0.335h13.977l-3.76 3.749z"></path>
</svg>
