<!-- Generated by IcoMoon.io -->
<svg version="1.1" xmlns="http://www.w3.org/2000/svg" width="32" height="32" viewBox="0 0 32 32">
<title>knitting-1</title>
<path d="M15.175 1.55c-7.651 0-13.842 6.15-13.842 13.75 0 2.1 0.503 4.1 1.359 5.9v0.050c2.215 4.6 6.997 7.75 12.483 7.75 7.6 0 13.842-6.15 13.842-13.75s-6.241-13.7-13.842-13.7v-0zM26.501 21.15c-3.322 1-8.859 2.7-11.527 3.45-0.151-0.7-0.151-1.5-0.151-2.3 2.517-0.7 7.953-2.4 12.735-3.85-0.252 0.95-0.604 1.85-1.057 2.7h-0zM27.96 15.3c0 0.7-0.050 1.4-0.151 2.1-4.379 1.35-10.118 3.1-12.936 3.9 0.050-0.8 0.201-1.6 0.352-2.45 2.869-0.85 8.204-2.45 12.735-3.85 0 0.050 0 0.15 0 0.3l-0-0zM15.477 17.7c0.201-0.85 0.403-1.7 0.654-2.55 2.466-0.75 6.292-1.9 11.325-3.4 0.201 0.7 0.352 1.45 0.453 2.25-4.329 1.25-9.413 2.8-12.433 3.7l0-0zM16.534 14c0.252-0.75 0.503-1.55 0.755-2.25 0.654-0.2 2.567-0.85 8.708-3.2 0.453 0.7 0.805 1.45 1.107 2.25-4.581 1.35-8.155 2.45-10.57 3.2h-0zM17.742 10.5c0.252-0.7 0.503-1.35 0.755-1.95l5.587-2.4c0.453 0.45 0.906 0.95 1.309 1.5-4.48 1.7-6.644 2.5-7.651 2.85l-0 0zM19.101 7.25c0.705-1.6 1.309-2.85 1.611-3.45 0.956 0.45 1.812 1 2.617 1.65l-4.228 1.8zM16.232 2.6c-0.302 0.65-0.805 1.65-1.359 2.9l-3.574-2.35c1.208-0.4 2.517-0.6 3.825-0.6 0.403 0 0.755 0 1.107 0.050zM13.615 8.3c-1.208-0.75-3.473-2.3-5.486-3.7 0.654-0.4 1.309-0.8 2.013-1.1l4.278 2.85c-0.252 0.65-0.503 1.3-0.805 1.95zM7.272 5.25c1.359 0.95 4.48 3.050 5.99 4-0.352 0.95-0.755 1.9-1.107 2.95-1.258-0.8-3.674-2.4-7.097-4.75 0.654-0.8 1.359-1.55 2.215-2.2h0zM2.44 16.7c2.265 1.6 6.040 4.3 7.5 5.2-0.050 1.15 0 2.25 0.201 3.25-1.913-1.25-5.033-3.4-6.594-4.5-0.604-1.25-0.956-2.55-1.107-3.95h-0zM2.34 15.3c0-1.15 0.151-2.25 0.453-3.3 2.215 1.55 6.393 4.4 7.852 5.25-0.302 1.2-0.503 2.4-0.604 3.5-1.862-1.15-5.788-3.95-7.701-5.35v-0.1h0zM10.896 16.25c-1.711-1.050-5.788-3.85-7.802-5.25 0.352-0.95 0.805-1.9 1.359-2.75 2.668 1.85 5.839 4 7.349 4.9-0.302 1.050-0.654 2.050-0.906 3.1l0 0zM4.755 22.7c2.164 1.5 4.731 3.2 5.889 3.9 0.101 0.25 0.252 0.5 0.403 0.75-2.567-0.9-4.782-2.55-6.292-4.65l-0-0zM12.859 27.8c-5.889-4 3.020-22.3 4.43-25.1 0.856 0.15 1.661 0.35 2.466 0.65-1.56 3.15-9.161 19.249-4.278 24.65h-0.302c-0.805 0-1.56-0.050-2.315-0.2v0zM16.836 27.899c-0.755-0.55-1.309-1.35-1.611-2.3 2.416-0.7 7.147-2.15 10.52-3.15-2.013 2.9-5.235 4.95-8.909 5.45h0z"></path>
<path d="M29.974 0c-0.755 0-1.359 0.6-1.359 1.35v1.95c0 0.55 0.352 1.050 0.856 1.25v21.15c0 0.3 0.201 0.5 0.503 0.5s0.503-0.2 0.503-0.5l0-21.15c0.503-0.2 0.856-0.7 0.856-1.25l-0-1.95c0-0.75-0.604-1.35-1.359-1.35zM29.622 1.35c0-0.2 0.151-0.35 0.352-0.35s0.352 0.15 0.352 0.35v1.95c0 0.2-0.151 0.35-0.352 0.35s-0.352-0.15-0.352-0.35v-1.95z"></path>
<path d="M27.004 29.3h-1.963c-0.554 0-1.057 0.35-1.258 0.85h-21.342c-0.302 0-0.503 0.2-0.503 0.5s0.201 0.5 0.503 0.5h21.292c0.201 0.5 0.705 0.85 1.258 0.85h1.963c0.755 0 1.359-0.6 1.359-1.35 0.050-0.75-0.554-1.35-1.309-1.35l-0-0zM27.004 31h-1.963c-0.201 0-0.352-0.15-0.352-0.35s0.151-0.35 0.352-0.35h1.963c0.201 0 0.352 0.15 0.352 0.35s-0.151 0.35-0.352 0.35z"></path>
</svg>
