<!-- Generated by IcoMoon.io -->
<svg version="1.1" xmlns="http://www.w3.org/2000/svg" width="32" height="32" viewBox="0 0 32 32">
<title>knitting</title>
<path d="M30.32 9.554l-2.319-2.951c-0.366-0.466-0.789-0.875-1.264-1.222l1.002-1.288c0.96-0.181 1.68-1.029 1.68-2.028 0-1.138-0.926-2.064-2.064-2.064s-2.065 0.926-2.065 2.064c0 0.042 0.001 0.085 0.004 0.127l-1.549 1.992c-0.277-0.036-0.556-0.055-0.834-0.055-1.244 0-2.454 0.356-3.501 1.028l-3.41 2.192-3.411-2.192c-1.046-0.673-2.257-1.028-3.5-1.028-0.278 0-0.558 0.019-0.834 0.055l-1.549-1.992c0.003-0.042 0.004-0.085 0.004-0.127 0-1.138-0.926-2.064-2.065-2.064s-2.064 0.926-2.064 2.064c0 0.999 0.72 1.847 1.68 2.028l1.002 1.288c-0.474 0.347-0.898 0.757-1.264 1.222l-2.319 2.951c-1.083 1.379-1.68 3.104-1.68 4.857 0 2.299 1.87 4.169 4.169 4.169 0.34 0 0.672-0.041 0.992-0.118v12.111l0.054 0.109c0.406 0.813 1.223 1.318 2.132 1.318h0.789c0.639 0 1.233-0.251 1.67-0.682 0.437 0.431 1.031 0.682 1.67 0.682h0.789c0.64 0 1.233-0.251 1.67-0.682 0.437 0.431 1.031 0.682 1.67 0.682h0.789c0.639 0 1.233-0.251 1.67-0.682 0.438 0.431 1.031 0.682 1.67 0.682h0.789c0.639 0 1.233-0.251 1.67-0.682 0.438 0.431 1.031 0.682 1.67 0.682h0.789c0.909 0 1.725-0.505 2.132-1.318l0.054-0.109-0.001-12.111c0.32 0.078 0.653 0.118 0.992 0.118 2.298-0 4.168-1.87 4.168-4.169 0-1.753-0.597-3.479-1.68-4.857l0 0zM26.381 2.477l-0.041-0.227c-0.011-0.062-0.017-0.125-0.017-0.185 0-0.569 0.463-1.032 1.032-1.032s1.032 0.463 1.032 1.032c0 0.541-0.422 0.993-0.961 1.029l-0.231 0.016-3.438 4.42c-0.344-0.144-0.711-0.24-1.089-0.281l3.712-4.772zM16.516 16.516c-0.114 0-0.226-0.039-0.317-0.109-0.109-0.085-0.178-0.207-0.195-0.344s0.020-0.272 0.105-0.381l4.224-5.431c0.035 0.075 0.074 0.148 0.118 0.218l0.454 0.727-3.982 5.12c-0.098 0.127-0.247 0.199-0.407 0.199zM9.445 11.775c-0.25-0.15-0.42-0.39-0.479-0.675s0.001-0.573 0.171-0.81l1.285-1.799c0.254 0.199 0.417 0.508 0.417 0.855 0 0.204-0.057 0.404-0.165 0.577l-1.177 1.883-0.051-0.030zM11.548 10.47c0.044-0.071 0.083-0.144 0.118-0.218l1.753 2.254v1.681l-2.325-2.989 0.454-0.727zM16.451 8.286l0.152 0.076c0.265 0.132 0.429 0.398 0.429 0.694 0 0.278-0.15 0.536-0.391 0.674l-1.975 1.129c-0.137-0.26-0.214-0.556-0.214-0.87 0-0.261 0.131-0.501 0.35-0.642l1.649-1.060zM14.451 12.211c0.508 0.431 1.165 0.692 1.882 0.692 0.236 0 0.469-0.029 0.695-0.084l-1.735 2.23c-0.254 0.327-0.365 0.732-0.314 1.143 0.014 0.112 0.040 0.22 0.077 0.324l-0.605-0v-4.305zM22.554 11.775l-0.051 0.031-1.177-1.883c-0.108-0.173-0.165-0.373-0.165-0.577 0-0.347 0.164-0.656 0.417-0.855l1.285 1.799c0.169 0.237 0.23 0.525 0.171 0.81s-0.229 0.525-0.479 0.675l0-0zM19.968 6.025c0.879-0.565 1.897-0.864 2.942-0.864 0.024 0 0.048 0.001 0.073 0.002l-1.854 2.384c-0.423 0.264-0.747 0.674-0.901 1.158l-1.596 2.052-1.288 0.82c-0.302 0.192-0.652 0.294-1.010 0.294-0.337 0-0.654-0.090-0.928-0.246l1.748-0.999c0.562-0.321 0.911-0.923 0.911-1.57 0-0.547-0.242-1.050-0.65-1.389l2.554-1.643zM9.089 5.161c1.046 0 2.063 0.299 2.942 0.864l3.014 1.938-0.802 0.515c-0.516 0.332-0.825 0.896-0.825 1.51v0.835l-1.648-2.118c-0.154-0.484-0.478-0.894-0.901-1.158l-1.854-2.384c0.024-0.001 0.048-0.002 0.073-0.002zM4.573 3.094c-0.539-0.037-0.961-0.489-0.961-1.029 0-0.569 0.463-1.032 1.032-1.032s1.032 0.463 1.032 1.032c0 0.060-0.006 0.123-0.017 0.185l-0.041 0.227 3.712 4.772c-0.379 0.041-0.745 0.136-1.089 0.281l-3.438-4.42-0.231-0.016zM1.032 14.412c0-1.523 0.518-3.022 1.459-4.22l2.319-2.951c0.314-0.399 0.678-0.749 1.087-1.044l1.447 1.86c-0.41 0.322-0.758 0.727-1.017 1.201l-1.353 2.481c-0.441 0.809-1.166 1.415-2.040 1.706l0.327 0.979c1.123-0.374 2.053-1.152 2.62-2.192l1.353-2.481c0.429-0.785 1.193-1.316 2.059-1.456l-0.996 1.394c-0.334 0.467-0.458 1.058-0.341 1.62s0.466 1.054 0.959 1.35l0.035 0.021-2.121 3.393c-0.577 0.923-1.572 1.475-2.66 1.475-1.729 0-3.137-1.407-3.137-3.137zM8.136 30.968h-0.789c-0.477 0-0.91-0.246-1.154-0.648v-1.097l1.318 0.659 0.462-0.923-1.779-0.89v-1.427l1.318 0.659 0.462-0.923-1.779-0.889v-1.427l1.318 0.659 0.462-0.923-1.779-0.89v-1.427l1.318 0.659 0.462-0.923-1.779-0.89v-1.427l1.318 0.659 0.462-0.923-1.496-0.748c0.486-0.323 0.906-0.751 1.228-1.266l1.586-2.538v2.63l-1.779 0.889 0.462 0.923 1.318-0.658v1.427l-1.779 0.889 0.462 0.923 1.318-0.659v1.427l-1.779 0.89 0.462 0.923 1.318-0.659v1.427l-1.779 0.889 0.462 0.923 1.318-0.658v1.427l-1.779 0.889 0.462 0.923 1.318-0.659v2.129c-0.244 0.403-0.677 0.649-1.154 0.649zM12.265 30.968h-0.789c-0.477 0-0.91-0.246-1.154-0.648v-1.097l1.318 0.659 0.462-0.923-1.779-0.89v-1.427l1.318 0.659 0.462-0.923-1.779-0.889v-1.427l1.318 0.659 0.462-0.923-1.779-0.89v-1.427l1.318 0.659 0.462-0.923-1.779-0.89v-1.427l1.318 0.659 0.462-0.923-1.779-0.889v-1.427l1.318 0.659 0.462-0.923-1.779-0.889v-2.733l0.189-0.302 2.908 3.738v0.845l-1.779 0.889 0.462 0.923 1.318-0.658v1.427l-1.779 0.889 0.462 0.923 1.318-0.659v1.427l-1.779 0.89 0.462 0.923 1.318-0.659v1.427l-1.779 0.889 0.462 0.923 1.318-0.658v1.427l-1.779 0.889 0.462 0.923 1.318-0.659v2.129c-0.244 0.403-0.677 0.649-1.154 0.649h-0zM16.394 30.968h-0.789c-0.477 0-0.91-0.246-1.154-0.648v-2.129l1.318 0.659 0.462-0.923-1.779-0.889v-1.427l1.318 0.659 0.462-0.923-1.779-0.89v-1.427l1.318 0.659 0.462-0.923-1.779-0.889v-1.427l1.318 0.659 0.462-0.923-1.779-0.889v-1.746h3.097v0.197l-1.779 0.889 0.462 0.923 1.318-0.659v1.427l-1.779 0.889 0.462 0.923 1.318-0.658v1.427l-1.779 0.889 0.462 0.923 1.318-0.659v1.427l-1.779 0.889 0.462 0.923 1.318-0.659v1.427l-1.779 0.889 0.462 0.923 1.318-0.659v1.097c-0.244 0.403-0.677 0.648-1.154 0.648v0zM20.523 30.968h-0.789c-0.477 0-0.91-0.246-1.154-0.649v-2.129l1.318 0.659 0.462-0.923-1.779-0.889v-1.427l1.318 0.659 0.462-0.923-1.779-0.89v-1.427l1.318 0.659 0.462-0.923-1.779-0.89v-1.427l1.318 0.659 0.462-0.923-1.779-0.889v-1.427l1.318 0.659 0.462-0.923-2.173-1.087h-0.11l3.412-4.387 0.189 0.302v2.733l-1.779 0.889 0.462 0.923 1.318-0.659v1.427l-1.779 0.89 0.462 0.923 1.318-0.659v1.427l-1.779 0.889 0.462 0.923 1.318-0.658v1.427l-1.779 0.889 0.462 0.923 1.318-0.659v1.427l-1.779 0.889 0.462 0.923 1.318-0.659v1.427l-1.779 0.89 0.462 0.923 1.318-0.659v1.097c-0.244 0.403-0.677 0.648-1.154 0.648h-0zM24.652 30.968h-0.789c-0.477 0-0.91-0.246-1.154-0.649v-2.129l1.318 0.659 0.462-0.923-1.779-0.889v-1.427l1.318 0.659 0.462-0.923-1.779-0.89v-1.427l1.318 0.659 0.462-0.923-1.779-0.89v-1.427l1.318 0.659 0.462-0.923-1.779-0.889v-1.427l1.318 0.659 0.462-0.923-1.779-0.889v-2.63l1.586 2.538c0.322 0.515 0.742 0.943 1.228 1.266l-1.496 0.748 0.462 0.923 1.318-0.659v1.427l-1.779 0.889 0.462 0.923 1.318-0.658v1.427l-1.779 0.89 0.462 0.923 1.318-0.659v1.427l-1.779 0.889 0.462 0.923 1.318-0.659v1.427l-1.779 0.89 0.462 0.923 1.318-0.659v1.097c-0.244 0.403-0.677 0.648-1.154 0.648h-0zM27.831 17.548c-1.089 0-2.083-0.551-2.66-1.474l-2.121-3.393 0.035-0.021c0.493-0.296 0.842-0.787 0.959-1.35s-0.007-1.153-0.341-1.62l-0.996-1.394c0.866 0.14 1.631 0.671 2.059 1.456l1.354 2.481c0.567 1.039 1.497 1.817 2.62 2.192l0.327-0.979c-0.874-0.292-1.599-0.898-2.040-1.706l-1.354-2.481c-0.258-0.474-0.607-0.88-1.017-1.201l1.447-1.86c0.408 0.296 0.773 0.645 1.087 1.044l2.319 2.951c0.941 1.198 1.459 2.696 1.459 4.22 0 1.73-1.407 3.137-3.137 3.137z"></path>
</svg>
