<!-- Generated by IcoMoon.io -->
<svg version="1.1" xmlns="http://www.w3.org/2000/svg" width="26" height="32" viewBox="0 0 26 32">
<title>location</title>
<path d="M13.091 27.491l7.2-7.2c1.424-1.424 2.393-3.238 2.786-5.213s0.191-4.022-0.58-5.883-2.076-3.451-3.75-4.569c-1.674-1.119-3.643-1.716-5.657-1.716s-3.982 0.597-5.657 1.716-2.979 2.709-3.75 4.569c-0.771 1.86-0.972 3.908-0.58 5.883s1.362 3.789 2.786 5.213l7.2 7.2zM13.091 31.604l-9.257-9.257c-1.831-1.831-3.078-4.163-3.583-6.703s-0.246-5.172 0.745-7.564 2.669-4.437 4.822-5.875c2.153-1.438 4.684-2.206 7.273-2.206s5.12 0.768 7.273 2.206c2.153 1.438 3.831 3.483 4.822 5.875s1.25 5.024 0.745 7.564c-0.505 2.539-1.752 4.872-3.583 6.703l-9.257 9.257zM13.091 16c0.772 0 1.511-0.306 2.057-0.852s0.852-1.285 0.852-2.057-0.306-1.511-0.852-2.057c-0.546-0.546-1.285-0.852-2.057-0.852s-1.511 0.306-2.057 0.852c-0.546 0.546-0.852 1.286-0.852 2.057s0.306 1.512 0.852 2.057c0.546 0.546 1.286 0.852 2.057 0.852zM13.091 18.909c-1.543 0-3.023-0.613-4.114-1.704s-1.704-2.571-1.704-4.114 0.613-3.023 1.704-4.114c1.091-1.091 2.571-1.704 4.114-1.704s3.023 0.613 4.114 1.704c1.091 1.091 1.704 2.571 1.704 4.114s-0.613 3.023-1.704 4.114c-1.091 1.091-2.571 1.704-4.114 1.704z"></path>
</svg>
