<!-- Generated by IcoMoon.io -->
<svg version="1.1" xmlns="http://www.w3.org/2000/svg" width="24" height="32" viewBox="0 0 24 32">
<title>locator</title>
<path d="M20.188 3.527c-2.234-2.274-5.205-3.527-8.364-3.527s-6.13 1.252-8.364 3.527c-4.612 4.694-4.612 12.333 0 17.026l7.867 8.007c0.132 0.134 0.311 0.21 0.498 0.21s0.366-0.076 0.498-0.21l7.866-8.007c2.234-2.274 3.465-5.298 3.465-8.513s-1.23-6.239-3.465-8.513l-0 0zM19.192 19.54l-7.369 7.5-7.369-7.5c-4.063-4.135-4.063-10.865 0-15.001 1.968-2.003 4.586-3.107 7.369-3.107s5.401 1.103 7.369 3.107c1.968 2.004 3.052 4.667 3.052 7.5s-1.084 5.497-3.052 7.5v0z"></path>
<path d="M11.823 6.857c-3.137 0-5.688 2.597-5.688 5.79s2.552 5.79 5.688 5.79c3.137 0 5.688-2.597 5.688-5.79s-2.552-5.79-5.688-5.79zM11.823 17.004c-2.36 0-4.281-1.955-4.281-4.357s1.921-4.357 4.281-4.357c2.36 0 4.28 1.955 4.28 4.357s-1.92 4.357-4.28 4.357z"></path>
<path d="M16.465 30.567h-9.282c-0.389 0-0.704 0.321-0.704 0.716s0.315 0.716 0.704 0.716h9.282c0.389 0 0.704-0.321 0.704-0.716s-0.315-0.716-0.704-0.716z"></path>
</svg>
