<svg xmlns="http://www.w3.org/2000/svg" width="32" height="32"><path d="M13.167 1.087c-.5.179-.82.506-.985 1.01-.119.363-.246.537-.469.643-.263.125-.444.108-.825-.078-.43-.21-.799-.25-1.207-.131-.248.072-.371.151-.612.393-.252.252-.318.359-.397.644-.108.386-.085.69.079 1.065.068.155.372.506.912 1.053l.81.821h6.307l.856-.867c.749-.76.867-.902.949-1.154a1.53 1.53 0 0 0-1.024-1.959c-.385-.112-.726-.072-1.174.138-.385.18-.522.196-.778.089-.198-.083-.462-.371-.463-.505-.001-.195-.263-.637-.501-.847-.409-.36-1-.486-1.478-.315M9.664 7.658c-1.116.556-1.07 2.147.077 2.672l.275.126 3.699-.015 3.698-.014.249-.147c.463-.272.791-.807.791-1.29 0-.527-.383-1.113-.878-1.344l-.268-.125h-3.683L9.941 7.52l-.277.138m-.402 4.148C7.4 13.873 5.813 15.962 4.88 17.573a9.807 9.807 0 0 0-1.126 2.828c-.138.589-.15.724-.152 1.732-.002.955.014 1.164.122 1.647.559 2.495 2.15 4.572 4.516 5.894 1.614.901 3.283 1.31 5.361 1.312 1.514.001 2.443-.137 3.679-.546 1.033-.342 2.853-1.312 2.853-1.521 0-.033-.552-.71-1.226-1.504-.675-.794-1.284-1.551-1.354-1.682-.24-.45-.141-1.108.226-1.512.265-.291.483-.352 1.341-.381l.8-.027.014-4.871.013-4.87-.379-.463a77.996 77.996 0 0 0-1.151-1.349l-.772-.887-.196.046c-.258.06-7.337.059-7.596-.001l-.2-.047-.391.435m11.939 1.643c-.306.241-.294.001-.294 5.909V24.8h-1.113c-1.045 0-1.122.007-1.253.111-.082.063-.141.163-.141.237 0 .089.709.961 2.414 2.969 2.58 3.038 2.559 3.018 2.824 2.78.06-.053 1.156-1.329 2.436-2.834 1.61-1.894 2.331-2.781 2.342-2.88a.418.418 0 0 0-.063-.25c-.073-.1-.149-.107-1.255-.123l-1.178-.016v-5.469c0-5.999.016-5.705-.316-5.901-.138-.081-.367-.091-2.205-.091-2.023 0-2.053.002-2.198.116m-7.334 1.778c.183.094.266.336.266.778v.298l.325.09c.794.221 1.481.753 1.831 1.419.227.433.237.579.053.797-.106.126-.182.164-.324.164-.266 0-.359-.067-.544-.395-.255-.453-.465-.654-.903-.871-.388-.192-.428-.2-.942-.199-.492.001-.566.015-.906.175-.441.208-.732.495-.85.842-.301.884.237 1.53 1.514 1.816 1.16.259 1.477.349 1.836.522.985.474 1.539 1.373 1.449 2.35-.103 1.11-.915 1.818-2.445 2.132-.145.03-.147.037-.147.433 0 .221-.026.451-.058.51-.09.169-.379.268-.579.199-.228-.08-.292-.219-.323-.707l-.027-.419-.388-.099c-1.103-.279-2.057-1.221-2.133-2.106-.022-.251-.012-.28.146-.413.337-.283.658-.138.849.384.29.796 1.053 1.244 2.12 1.244.711 0 1.383-.248 1.74-.644.454-.502.284-1.378-.349-1.803-.35-.235-.723-.365-1.489-.518-1.462-.292-2.189-.724-2.567-1.525-.209-.442-.258-1.093-.117-1.575.252-.867 1.027-1.525 2.068-1.756.146-.032.147-.036.147-.462 0-.404.009-.439.156-.585.175-.176.354-.199.591-.076" fill-rule="evenodd"/></svg>