<!-- Generated by IcoMoon.io -->
<svg version="1.1" xmlns="http://www.w3.org/2000/svg" width="39" height="32" viewBox="0 0 39 32">
<title>mail-send</title>
<path d="M39.111 30.235c-0.003 0.467-0.19 0.914-0.52 1.244s-0.777 0.517-1.244 0.521h-32.028c-0.468-0.001-0.916-0.187-1.247-0.518s-0.516-0.78-0.516-1.248v-1.79h32v-20.8l-14.222 12.8-17.778-16v-2.667c0-0.472 0.187-0.924 0.521-1.257s0.786-0.521 1.257-0.521h32c0.471 0 0.924 0.187 1.257 0.521s0.521 0.786 0.521 1.257v28.457zM7.883 3.556l13.451 12.107 13.451-12.107h-26.901zM0 21.333h14.222v3.556h-14.222v-3.556zM0 12.444h8.889v3.556h-8.889v-3.556z"></path>
</svg>
