<!-- Generated by IcoMoon.io -->
<svg version="1.1" xmlns="http://www.w3.org/2000/svg" width="28" height="28" viewBox="0 0 28 28">
<title>nature</title>
<path d="M10.681 6.271h0.738v0.692h-0.738v-0.692zM9.942 18.083h0.738v0.692h-0.738v-0.692zM16.587 15.13h0.738v0.692h-0.738v-0.692zM16.587 17.345h0.738v0.692h-0.738v-0.692z"></path>
<path d="M16.53 7.752c-0.081 0.013-2.005 0.336-3.259 1.59-0.326 0.326-0.56 0.688-0.79 1.047v-8.202h-3.645v7.060h-0.738v0.692h0.738v4.88c-0.185-0.359-0.442-0.722-0.768-1.047-1.254-1.254-3.162-1.577-3.243-1.59l-0.471-0.077 0.078 0.474c0.013 0.081 0.325 1.995 1.579 3.248 0.966 0.966 2.271 1.31 2.824 1.421v2.335h-0.738v0.692h0.738v5.537h3.645v-5.537h0.784v-0.692h-0.784v-6.764h-0c0.6-0.112 1.881-0.455 2.847-1.421 1.254-1.254 1.583-3.168 1.596-3.248l0.080-0.474-0.473 0.077zM6.512 15.338c-0.724-0.724-1.101-1.741-1.273-2.35 0.608 0.171 1.623 0.547 2.35 1.273 0.725 0.725 1.048 1.694 1.183 2.261-0.565-0.134-1.531-0.455-2.26-1.184zM11.788 25.12h-2.261v-4.845h2.261v4.845zM11.788 19.583h-2.261v-9.644h2.261v9.644zM11.788 9.247h-2.261v-6.368h2.261v6.368zM14.849 10.908c-0.725 0.725-1.693 1.048-2.26 1.183 0.135-0.567 0.458-1.535 1.183-2.26s1.741-1.101 2.35-1.273c-0.171 0.608-0.547 1.623-1.273 2.35z"></path>
<path d="M23.176 12.182c-0.081 0.013-2.006 0.336-3.26 1.59-0.326 0.326-0.56 0.688-0.791 1.047v-1.188h0.784v-0.692h-0.784v-10.751h-3.645v5.168h0.692v-4.476h2.261v10.059h-2.261v-1.154h-0.692v1.154h-0.738v0.692h0.738v8.167h-0.738v0.692h0.738v3.322h3.645v-3.322h0.784v-0.692h-0.784v-4.549c0.6-0.112 1.881-0.455 2.847-1.421 1.254-1.254 1.583-3.168 1.596-3.248l0.080-0.474-0.471 0.077zM18.432 25.12h-2.261v-2.63h2.261v2.63zM18.432 21.798h-2.261v-8.167h2.261v8.167zM21.493 15.338c-0.725 0.725-1.693 1.048-2.26 1.183 0.135-0.567 0.458-1.535 1.183-2.26s1.741-1.101 2.35-1.273c-0.171 0.608-0.547 1.623-1.273 2.35z"></path>
</svg>
