<svg xmlns="http://www.w3.org/2000/svg" width="22" height="32"><path d="M6.087.038a5.305 5.305 0 0 0-3.188 1.541 5.103 5.103 0 0 0-1.283 2.07c-.213.638-.274 1.025-.272 1.723.003.848.146 1.48.508 2.245a5.337 5.337 0 0 0 1.916 2.186l.229.147v2.106l-.236.041c-.522.091-1.143.345-1.643.673a4.65 4.65 0 0 0-1.895 2.495c-.226.712-.229.759-.214 4.079.014 2.893.017 3.023.096 3.518.378 2.376 1.38 4.364 3.029 6.014a10.616 10.616 0 0 0 6.185 3.043c.556.073 2.144.074 2.698.001a10.373 10.373 0 0 0 3.438-1.065 10.135 10.135 0 0 0 2.749-1.981c1.65-1.65 2.668-3.688 3.031-6.067l.087-.569V18.59c0-2.909-.01-3.685-.049-3.832-.253-.958-.895-1.659-1.785-1.949a2.897 2.897 0 0 0-1.446-.054 3.586 3.586 0 0 0-.496.165l-.192.088-.023-.39c-.027-.47-.093-.735-.281-1.123-.617-1.273-2.188-1.839-3.467-1.249l-.258.119-.065-.288a3.325 3.325 0 0 0-.234-.627c-.295-.591-.921-1.126-1.531-1.308a12.091 12.091 0 0 1-.193-.059c-.033-.01.004-.116.121-.349.194-.386.387-.942.482-1.391.051-.238.066-.476.066-1.008.001-.779-.039-1.041-.26-1.703C11.108 1.817 9.492.425 7.607.094c-.413-.072-1.16-.1-1.52-.056m1.397 1.393c.77.157 1.424.51 1.999 1.079.518.513.868 1.131 1.067 1.887.081.306.093.428.093.938s-.012.632-.093.938a4.154 4.154 0 0 1-.966 1.791l-.216.236-.021-1.702c-.021-1.621-.026-1.716-.104-1.977a2.687 2.687 0 0 0-1.745-1.818 2.92 2.92 0 0 0-1.397-.072 2.723 2.723 0 0 0-1.988 1.805l-.096.286-.019 1.737-.02 1.738-.239-.254c-1.429-1.515-1.42-3.912.019-5.436A4.042 4.042 0 0 1 6.01 1.394c.35-.059 1.094-.041 1.474.037m-.607 2.606c.45.082.804.353 1.002.766l.096.202.018 5.922c.017 5.428.024 5.93.08 6.031.219.396.688.495 1.02.215.254-.214.237.027.257-3.606l.018-3.282.132-.238c.157-.286.414-.509.717-.623.174-.066.27-.078.508-.066.519.026.913.284 1.14.746l.107.218.018 3.614.018 3.614.101.153a.676.676 0 0 0 1.121-.004l.098-.149.019-2.624.018-2.624.107-.212c.27-.533.863-.835 1.423-.725.125.025.293.078.372.119.221.113.476.372.594.606l.107.212.019 3.611c.02 4 .002 3.722.256 3.936a.878.878 0 0 0 .422.171.878.878 0 0 0 .422-.171c.248-.209.236-.087.256-2.597.018-2.244.02-2.276.099-2.448.044-.096.164-.263.267-.371a1.312 1.312 0 0 1 1.713-.183c.229.156.363.323.475.597l.085.205v3.447c.001 3.675-.007 3.893-.186 4.758-.285 1.385-.927 2.746-1.844 3.913-.119.151-.449.507-.733.79a8.976 8.976 0 0 1-2.944 1.982c-3.091 1.284-6.549.847-9.248-1.169-.453-.338-1.452-1.337-1.79-1.79-.959-1.283-1.526-2.62-1.795-4.231-.061-.37-.067-.668-.067-3.575v-3.172l.105-.312c.366-1.085 1.127-1.851 2.184-2.196.129-.042.257-.077.284-.077.04 0 .049.692.049 4.016 0 3.531.006 4.033.056 4.151a.558.558 0 0 0 .329.344c.342.157.701.03.892-.316.056-.101.062-.763.079-8.378l.019-8.269.08-.173a1.44 1.44 0 0 1 .966-.758c.228-.045.217-.045.459 0" fill-rule="evenodd"/></svg>