<!-- Generated by IcoMoon.io -->
<svg version="1.1" xmlns="http://www.w3.org/2000/svg" width="32" height="32" viewBox="0 0 32 32">
<title>package-check</title>
<path d="M15.307 2.418c-0.242 0.1-1.484 0.78-5.493 3.008-3.882 2.156-5.46 3.047-5.658 3.192-0.275 0.201-0.475 0.466-0.618 0.823-0.092 0.228-0.097 0.575-0.097 6.587v6.347l0.119 0.256c0.183 0.392 0.368 0.603 0.754 0.857 0.532 0.35 10.647 5.955 11.019 6.105 0.199 0.082 0.431 0.13 0.673 0.13 0.228 0 0.446-0.042 0.648-0.119l-0.012 0.004c0.161-0.062 0.785-0.386 1.387-0.72 1.239-0.688 1.343-0.786 1.233-1.153-0.078-0.26-0.332-0.48-0.555-0.48-0.11 0-0.482 0.174-1.102 0.515l-0.977 0.536c-0.022 0.012-0.039-2.674-0.039-5.968l0.001-5.99 2.353-1.307c1.294-0.719 2.574-1.426 2.844-1.573s1.641-0.907 3.047-1.691l2.555-1.423 0.027 3.29c0.020 2.518 0.043 3.319 0.094 3.409 0.094 0.165 0.432 0.249 0.705 0.175 0.396-0.107 0.379 0.078 0.362-3.988-0.014-3.356-0.022-3.627-0.111-3.819-0.171-0.364-0.367-0.619-0.618-0.803-0.313-0.229-10.76-6.037-11.152-6.2-0.405-0.168-0.981-0.168-1.387 0zM16.389 3.579c0.556 0.278 10.331 5.726 10.331 5.758 0 0.043-4.643 2.628-4.721 2.628-0.056 0-10.632-5.862-10.71-5.936-0.024-0.023 0.768-0.493 1.76-1.045 3.045-1.694 2.891-1.628 3.339-1.404zM15.591 9.786c2.84 1.577 5.144 2.886 5.12 2.909-0.063 0.060-4.665 2.612-4.71 2.612-0.066 0-10.693-5.918-10.708-5.962-0.008-0.024 1.048-0.634 2.347-1.356l2.361-1.313 0.213 0.122c0.117 0.067 2.537 1.412 5.377 2.989zM10.417 13.573l4.995 2.773 0.001 5.988 0.001 5.988-0.163-0.084c-0.793-0.411-10.201-5.668-10.344-5.781-0.103-0.081-0.215-0.229-0.25-0.329-0.048-0.136-0.065-1.632-0.067-5.985l-0.003-5.803 0.418 0.23c0.229 0.126 2.665 1.478 5.412 3.003zM29.147 20.754c-0.059 0.032-1.24 1.189-2.626 2.571l-2.52 2.513-1.214-1.209c-0.744-0.74-1.269-1.222-1.355-1.243-0.363-0.089-0.812 0.411-0.682 0.76 0.065 0.172 2.832 2.969 3.055 3.088 0.061 0.034 0.135 0.054 0.213 0.054 0.029 0 0.056-0.003 0.083-0.008l-0.003 0c0.186-0.046 5.695-5.532 5.802-5.778 0.069-0.159 0.068-0.197-0.018-0.373-0.1-0.202-0.394-0.438-0.544-0.435-0.071 0.007-0.136 0.029-0.195 0.061l0.003-0.001z"></path>
</svg>
