<!-- Generated by IcoMoon.io -->
<svg version="1.1" xmlns="http://www.w3.org/2000/svg" width="32" height="32" viewBox="0 0 32 32">
<title>performance</title>
<path d="M15.999 2c-7.724 0-13.999 6.277-13.999 14.001s6.274 13.999 13.999 13.999c7.724 0 14.001-6.274 14.001-13.999s-6.277-14.001-14.001-14.001zM15.999 3.334c7.003 0 12.667 5.664 12.667 12.667s-5.664 12.665-12.667 12.665c-7.004 0-12.665-5.661-12.665-12.665s5.661-12.667 12.665-12.667z"></path>
<path d="M16.667 5.333c0 0.088-0.017 0.174-0.051 0.255s-0.083 0.154-0.145 0.216c-0.062 0.062-0.135 0.111-0.216 0.145s-0.168 0.051-0.255 0.051c-0.088 0-0.174-0.017-0.255-0.051s-0.154-0.083-0.216-0.145c-0.062-0.062-0.111-0.135-0.145-0.216s-0.051-0.168-0.051-0.255 0.017-0.174 0.051-0.255c0.034-0.081 0.083-0.154 0.145-0.216s0.135-0.111 0.216-0.145c0.081-0.034 0.168-0.051 0.255-0.051s0.174 0.017 0.255 0.051c0.081 0.034 0.154 0.083 0.216 0.145s0.111 0.135 0.145 0.216c0.034 0.081 0.051 0.168 0.051 0.255z"></path>
<path d="M11.248 6.421c0.088 0.153 0.112 0.335 0.067 0.506s-0.157 0.316-0.311 0.405-0.335 0.112-0.506 0.067c-0.171-0.046-0.316-0.158-0.405-0.311s-0.112-0.335-0.067-0.506c0.046-0.171 0.157-0.316 0.311-0.405 0.076-0.044 0.16-0.072 0.246-0.084s0.175-0.006 0.26 0.017c0.085 0.023 0.164 0.062 0.233 0.115s0.128 0.12 0.171 0.196z"></path>
<path d="M7.091 10.081c0.076 0.044 0.142 0.102 0.196 0.172s0.092 0.149 0.115 0.233c0.023 0.085 0.028 0.173 0.017 0.26s-0.040 0.17-0.084 0.246c-0.044 0.076-0.102 0.142-0.172 0.196s-0.149 0.092-0.233 0.115c-0.085 0.023-0.173 0.028-0.26 0.017s-0.17-0.040-0.246-0.084c-0.153-0.088-0.265-0.234-0.311-0.405s-0.022-0.353 0.067-0.506c0.088-0.153 0.234-0.265 0.405-0.311s0.353-0.022 0.506 0.067z"></path>
<path d="M21.906 7.088c-0.088 0.153-0.234 0.265-0.405 0.311s-0.353 0.022-0.506-0.067c-0.076-0.044-0.142-0.102-0.196-0.172s-0.092-0.149-0.115-0.233c-0.023-0.085-0.028-0.173-0.017-0.26s0.040-0.17 0.084-0.246c0.044-0.076 0.102-0.142 0.171-0.196s0.149-0.092 0.233-0.115c0.085-0.023 0.173-0.028 0.26-0.017s0.171 0.040 0.246 0.084c0.153 0.088 0.265 0.234 0.311 0.405s0.022 0.353-0.067 0.506z"></path>
<path d="M25.575 11.236c-0.076 0.044-0.159 0.072-0.246 0.084s-0.175 0.006-0.26-0.017c-0.085-0.023-0.164-0.062-0.233-0.115s-0.128-0.12-0.172-0.196c-0.088-0.153-0.112-0.335-0.067-0.506s0.158-0.316 0.311-0.405c0.153-0.088 0.335-0.112 0.506-0.067s0.316 0.158 0.405 0.311c0.044 0.076 0.072 0.159 0.084 0.246s0.006 0.175-0.017 0.26c-0.023 0.085-0.062 0.164-0.115 0.233s-0.12 0.128-0.196 0.172z"></path>
<path d="M5.32 15.324c-0.088 0.001-0.174 0.020-0.254 0.055s-0.153 0.085-0.214 0.148c-0.061 0.063-0.109 0.137-0.141 0.218s-0.048 0.168-0.047 0.256c0 2.976 1.215 5.912 3.319 8.017s5.041 3.319 8.017 3.319c2.976 0 5.912-1.215 8.017-3.319s3.321-5.040 3.322-8.017c0-0.177-0.070-0.346-0.195-0.471s-0.295-0.195-0.472-0.195-0.346 0.070-0.472 0.195c-0.125 0.125-0.195 0.295-0.195 0.471-0 2.61-1.087 5.226-2.933 7.072s-4.462 2.931-7.072 2.931c-2.61-0-5.226-1.085-7.072-2.931s-2.93-4.462-2.931-7.072c0.001-0.089-0.015-0.178-0.049-0.26s-0.083-0.158-0.146-0.221c-0.063-0.063-0.138-0.113-0.221-0.146s-0.171-0.050-0.261-0.049z"></path>
<path d="M20.005 8.405c-0.097-0.001-0.193 0.020-0.282 0.060s-0.167 0.1-0.23 0.174c0 0-3.525 4.105-5.18 6.292-0.017 0.022-0.033 0.045-0.047 0.069-0.548 0.95-0.216 2.183 0.733 2.731s2.183 0.219 2.731-0.731c0.014-0.024 0.026-0.048 0.037-0.074 1.066-2.526 2.859-7.633 2.859-7.633 0.035-0.1 0.046-0.207 0.032-0.312s-0.054-0.205-0.115-0.292-0.142-0.158-0.235-0.207c-0.094-0.049-0.198-0.076-0.304-0.077zM17.973 12.583c-0.573 1.568-0.89 2.523-1.405 3.752-0.19 0.318-0.578 0.427-0.901 0.241s-0.421-0.577-0.241-0.901c0.807-1.061 1.476-1.814 2.547-3.093z"></path>
</svg>
