<!-- Generated by IcoMoon.io -->
<svg version="1.1" xmlns="http://www.w3.org/2000/svg" width="32" height="32" viewBox="0 0 32 32">
<title>phone-1</title>
<path d="M23.681 31.999c-0.832 0-2.368-0.117-4.424-0.774-3.795-1.213-7.55-3.66-11.159-7.273-5.619-5.625-8.041-9.954-8.098-14.479-0.006-0.494 0.389-0.9 0.883-0.907h0.011c0.489 0 0.888 0.393 0.894 0.884 0.051 4.014 2.316 7.973 7.574 13.236 8.056 8.064 14.434 7.539 14.769 7.505 0.564-0.068 1.102-0.204 1.645-0.415 0.579-0.226 1.134-0.541 1.605-0.909 0.042-0.033 0.087-0.062 0.133-0.087l1.098-1.075c0.573-0.579 0.599-1.492 0.056-2.037l-4.487-4.491c-0.544-0.542-1.457-0.515-2.034 0.062l-2.261 2.263c-0.282 0.282-0.715 0.343-1.064 0.151-0.145-0.080-0.295-0.163-0.452-0.252-1.468-0.814-3.484-1.933-5.633-4.085-2.147-2.149-3.268-4.169-4.086-5.643l-0.045-0.082c-0.067-0.122-0.133-0.24-0.197-0.353-0.2-0.351-0.141-0.792 0.145-1.078l2.263-2.263c0.578-0.578 0.604-1.492 0.060-2.037l-4.487-4.493c-0.258-0.258-0.607-0.396-0.987-0.39-0.388 0.007-0.756 0.165-1.038 0.443l-1.191 1.266c-0.221 0.285-0.42 0.599-0.593 0.931-0.228 0.438-0.768 0.609-1.207 0.38s-0.608-0.769-0.38-1.208c0.23-0.442 0.498-0.859 0.796-1.239 0.017-0.021 0.034-0.042 0.053-0.061l1.23-1.307c0.006-0.006 0.012-0.013 0.019-0.019 0.612-0.614 1.422-0.96 2.279-0.976 0.87-0.017 1.681 0.308 2.285 0.914l4.488 4.493c1.241 1.244 1.214 3.293-0.060 4.568l-1.785 1.787c0.76 1.368 1.805 3.198 3.706 5.101 1.904 1.907 3.731 2.95 5.097 3.708l1.784-1.785c1.273-1.274 3.32-1.303 4.563-0.063l4.489 4.494c1.239 1.245 1.213 3.294-0.059 4.57l-0.007 0.007-1.281 1.256c-0.091 0.090-0.197 0.156-0.31 0.198-0.561 0.41-1.182 0.749-1.849 1.010-0.689 0.268-1.371 0.439-2.089 0.525-0.004 0-0.008 0.001-0.012 0.001-0.098 0.010-0.317 0.028-0.646 0.028v-0.001zM32 16.592c0-9.149-7.436-16.592-16.577-16.592-0.494 0-0.895 0.401-0.895 0.896s0.4 0.896 0.895 0.896c8.154 0 14.788 6.64 14.788 14.801 0 0.494 0.4 0.896 0.895 0.896s0.894-0.402 0.894-0.896zM26.181 15.904c0-5.557-4.517-10.079-10.069-10.079-0.494 0-0.895 0.401-0.895 0.896s0.4 0.896 0.895 0.896c4.566 0 8.281 3.718 8.281 8.288 0 0.494 0.4 0.896 0.895 0.896s0.894-0.402 0.894-0.896z"></path>
</svg>
