<!-- Generated by IcoMoon.io -->
<svg version="1.1" xmlns="http://www.w3.org/2000/svg" width="32" height="32" viewBox="0 0 32 32">
<title>phone-2</title>
<path d="M11.317 13.657c1.668 2.931 4.095 5.358 7.026 7.026l1.572-2.201c0.253-0.354 0.626-0.603 1.050-0.7s0.869-0.035 1.25 0.174c2.514 1.374 5.291 2.201 8.148 2.425 0.446 0.035 0.862 0.237 1.165 0.566s0.472 0.759 0.472 1.207v7.932c0 0.44-0.163 0.865-0.458 1.191s-0.701 0.532-1.139 0.577c-0.942 0.098-1.892 0.146-2.848 0.146-15.218 0-27.556-12.338-27.556-27.556 0-0.956 0.048-1.906 0.146-2.848 0.045-0.438 0.251-0.844 0.577-1.138s0.751-0.458 1.192-0.458h7.932c0.447-0 0.878 0.168 1.207 0.472s0.531 0.72 0.566 1.165c0.224 2.857 1.051 5.633 2.425 8.148 0.209 0.381 0.271 0.826 0.174 1.25s-0.346 0.798-0.7 1.050l-2.201 1.572zM6.834 12.489l3.378-2.412c-0.959-2.069-1.615-4.265-1.95-6.521h-4.688c-0.011 0.295-0.016 0.592-0.016 0.889-0.002 13.255 10.743 24 23.998 24 0.297 0 0.594-0.005 0.889-0.018v-4.688c-2.256-0.335-4.452-0.992-6.521-1.95l-2.412 3.378c-0.971-0.377-1.915-0.823-2.823-1.333l-0.103-0.059c-3.487-1.985-6.375-4.872-8.359-8.359l-0.059-0.103c-0.51-0.908-0.956-1.852-1.333-2.823z"></path>
</svg>
