<!-- Generated by IcoMoon.io -->
<svg version="1.1" xmlns="http://www.w3.org/2000/svg" width="32" height="32" viewBox="0 0 32 32">
<title>phone</title>
<path d="M3.66 1.393c1.915-1.915 5.018-1.827 6.928 0.084l3.189 3.189c1.91 1.91 1.999 5.013 0.084 6.928l-0.442 0.442c-0.333 0.333-0.369 0.873-0.052 1.257 0.667 0.809 1.383 1.61 2.156 2.383s1.574 1.489 2.383 2.156c0.384 0.317 0.924 0.281 1.257-0.052l0.442-0.442c1.916-1.915 5.018-1.827 6.928 0.084l3.189 3.189c1.91 1.91 1.999 5.013 0.084 6.928l-2.059 2.059c-2.092 2.092-5.515 1.923-8.846 0.701-3.434-1.26-7.267-3.793-10.737-7.264s-6.004-7.303-7.264-10.737c-1.222-3.33-1.391-6.753 0.701-8.846l2.059-2.059zM8.891 3.174c-1.025-1.025-2.607-1.011-3.534-0.084l-2.059 2.059c0 0 0 0 0 0-1.035 1.035-1.298 3.179-0.145 6.322 1.115 3.039 3.426 6.586 6.708 9.867s6.828 5.592 9.867 6.708c3.143 1.153 5.288 0.889 6.322-0.145l2.059-2.059c0.927-0.927 0.941-2.509-0.084-3.534l-3.189-3.189c-1.025-1.025-2.607-1.011-3.534-0.084l-0.442 0.442c-1.202 1.202-3.137 1.316-4.482 0.206-0.858-0.708-1.717-1.475-2.552-2.31s-1.602-1.694-2.31-2.552c-1.109-1.344-0.995-3.28 0.206-4.482l0.442-0.442c0.927-0.927 0.941-2.509-0.084-3.534l-3.189-3.189z"></path>
</svg>
