<!-- Generated by IcoMoon.io -->
<svg version="1.1" xmlns="http://www.w3.org/2000/svg" width="32" height="32" viewBox="0 0 32 32">
<title>phone-3</title>
<path d="M23.532 18.666c-0.564-0.564-1.316-0.875-2.116-0.875s-1.552 0.311-2.116 0.875l-0.205 0.205c-0.275 0.275-1.994-0.097-3.931-2.034s-2.31-3.656-2.034-3.931l0.205-0.205c0.564-0.564 0.875-1.316 0.875-2.116s-0.311-1.552-0.875-2.116l-2.083-2.083c-0.564-0.564-1.316-0.875-2.116-0.875s-1.552 0.311-2.116 0.875l-2.023 2.023c-1.235 1.235-1.324 3.384-0.25 6.052 0.986 2.45 2.854 5.126 5.262 7.533s5.083 4.276 7.533 5.262c1.236 0.497 2.361 0.745 3.335 0.745 1.129 0 2.055-0.333 2.717-0.995l2.023-2.023c0.564-0.564 0.875-1.316 0.875-2.116s-0.311-1.552-0.875-2.116l-2.083-2.083zM24.488 23.855c0 0 0 0 0 0l-2.023 2.023c-0.352 0.352-0.898 0.527-1.591 0.527-2.254-0-6.058-1.855-9.741-5.538-2.259-2.259-4.003-4.745-4.91-7.001-0.808-2.009-0.845-3.587-0.101-4.331l2.023-2.023c0.263-0.263 0.615-0.408 0.989-0.408s0.726 0.145 0.99 0.408l2.083 2.083c0.263 0.263 0.408 0.615 0.408 0.99s-0.145 0.726-0.408 0.99l-0.205 0.205c-0.373 0.373-0.895 1.254-0.206 2.968 0.423 1.053 1.219 2.195 2.241 3.216s2.164 1.817 3.216 2.241c1.714 0.689 2.595 0.167 2.968-0.206l0.205-0.205c0.263-0.263 0.615-0.408 0.99-0.408s0.726 0.145 0.989 0.408l2.083 2.083c0.263 0.263 0.408 0.615 0.408 0.99s-0.145 0.726-0.408 0.989zM17.496 11.484c0-0.44 0.357-0.797 0.797-0.797 0.807 0 1.565 0.314 2.136 0.885s0.885 1.329 0.885 2.136c0 0.44-0.357 0.797-0.797 0.797s-0.797-0.357-0.797-0.797c0-0.381-0.148-0.739-0.418-1.009s-0.628-0.418-1.009-0.418c-0.44 0-0.797-0.357-0.797-0.797zM28 13.707c0 0.44-0.357 0.797-0.797 0.797s-0.797-0.357-0.797-0.797c0-2.167-0.844-4.205-2.377-5.738s-3.57-2.377-5.737-2.377c-0.44 0-0.797-0.357-0.797-0.797s0.357-0.797 0.797-0.797c1.281 0 2.531 0.249 3.715 0.739s2.243 1.198 3.149 2.104c0.906 0.906 1.614 1.966 2.104 3.149s0.739 2.434 0.739 3.715zM17.496 8.14c0-0.44 0.357-0.797 0.797-0.797 1.7 0 3.298 0.662 4.5 1.864s1.864 2.8 1.864 4.5c0 0.44-0.357 0.797-0.797 0.797s-0.797-0.357-0.797-0.797c0-1.274-0.496-2.472-1.397-3.373s-2.099-1.397-3.373-1.397c-0.44 0-0.797-0.357-0.797-0.797z"></path>
</svg>
