<!-- Generated by IcoMoon.io -->
<svg version="1.1" xmlns="http://www.w3.org/2000/svg" width="32" height="32" viewBox="0 0 32 32">
<title>pin</title>
<path d="M13.879 27.817c0.51 0.457 1.029 0.905 1.571 1.325 0.168 0.13 0.375 0.199 0.588 0.19 0.247-0.010 0.438-0.13 0.624-0.277 0.227-0.179 0.756-0.608 1.459-1.238 0.936-0.839 2.187-2.040 3.44-3.488 2.469-2.853 5.106-6.844 5.106-10.996 0-5.891-4.776-10.667-10.667-10.667-2.921 0-5.568 1.174-7.495 3.077-0.379 0.374-0.287 0.992 0.159 1.284l0.018 0.012c0.37 0.243 0.859 0.172 1.179-0.133 1.596-1.525 3.758-2.461 6.14-2.461 4.909 0 8.889 3.98 8.889 8.889 0 3.47-2.252 7.035-4.672 9.832-1.191 1.377-2.385 2.524-3.282 3.328-0.37 0.332-0.689 0.604-0.935 0.809-0.246-0.205-0.564-0.477-0.935-0.809-0.897-0.803-2.091-1.951-3.282-3.328-2.42-2.797-4.672-6.362-4.672-9.832 0-1.025 0.173-2.009 0.493-2.925 0.144-0.412 0.011-0.88-0.354-1.119l-0.021-0.013c-0.45-0.295-1.059-0.126-1.244 0.378-0.422 1.147-0.652 2.387-0.652 3.68 0 4.152 2.637 8.142 5.106 10.996 1.253 1.448 2.504 2.649 3.44 3.488z"></path>
<path d="M12 13.777c0-2.209 1.791-4 4-4s4 1.791 4 4c0 2.209-1.791 4-4 4s-4-1.791-4-4zM16 11.555c-1.227 0-2.222 0.995-2.222 2.222s0.995 2.222 2.222 2.222 2.222-0.995 2.222-2.222c0-1.227-0.995-2.222-2.222-2.222z"></path>
</svg>
