<!-- Generated by IcoMoon.io -->
<svg version="1.1" xmlns="http://www.w3.org/2000/svg" width="32" height="32" viewBox="0 0 32 32">
<title>question1</title>
<path d="M16 0c-8.843 0-16 7.156-16 16s7.156 16 16 16c8.843 0 16-7.156 16-16s-7.156-16-16-16zM16 29.767c-7.591 0-13.767-6.176-13.767-13.767s6.176-13.767 13.767-13.767c7.591 0 13.767 6.176 13.767 13.767s-6.176 13.767-13.767 13.767z"></path>
<path d="M15.526 20.245c-0.885 0-1.601 0.737-1.601 1.622 0 0.864 0.695 1.622 1.601 1.622s1.622-0.758 1.622-1.622c0-0.885-0.737-1.622-1.622-1.622z"></path>
<path d="M15.8 7.966c-2.843 0-4.149 1.685-4.149 2.822 0 0.821 0.695 1.2 1.264 1.2 1.137 0 0.674-1.622 2.822-1.622 1.053 0 1.896 0.463 1.896 1.432 0 1.137-1.179 1.79-1.875 2.38-0.611 0.526-1.411 1.39-1.411 3.201 0 1.095 0.295 1.411 1.158 1.411 1.032 0 1.243-0.463 1.243-0.863 0-1.095 0.021-1.727 1.179-2.633 0.569-0.442 2.359-1.875 2.359-3.854s-1.79-3.475-4.486-3.475z"></path>
</svg>
