<!-- Generated by IcoMoon.io -->
<svg version="1.1" xmlns="http://www.w3.org/2000/svg" width="43" height="32" viewBox="0 0 43 32">
<title>quote-2</title>
<path d="M40.286 5.733c0.162-0.117 0.326-0.233 0.492-0.347l-4.88-4.627c-7.030 4.874-11.662 12.062-11.662 19.333v0.413c0 6.609 3.887 10.906 9.429 10.906 4.714 0 8.602-3.8 8.602-8.675 0-4.544-3.143-7.766-7.361-7.766-0.752 0-1.463 0.081-2.105 0.27-0.277 0.082-0.541 0.184-0.789 0.308 0.117-0.267 0.239-0.531 0.367-0.792 1.697-3.467 4.372-6.475 7.908-9.022zM33.146 14.545c0.564-0.117 1.157-0.166 1.76-0.166 4.57 0 7.952 3.512 7.952 8.356 0 5.2-4.152 9.265-9.193 9.265-2.933 0-5.455-1.142-7.237-3.176-1.776-2.028-2.782-4.901-2.782-8.32v-0.413c0-7.521 4.78-14.87 11.916-19.817l0.395-0.274 5.755 5.457-0.597 0.414c-3.547 2.458-6.233 5.352-7.969 8.675zM16.641 5.733c0.162-0.117 0.326-0.233 0.492-0.347l-4.88-4.627c-7.030 4.874-11.662 12.062-11.662 19.333v0.413c0 6.609 3.887 10.906 9.429 10.906 4.714 0 8.602-3.8 8.602-8.675 0-4.544-3.143-7.766-7.361-7.766-0.752 0-1.463 0.081-2.105 0.27-0.277 0.082-0.541 0.184-0.79 0.308 0.117-0.267 0.239-0.531 0.367-0.792 1.697-3.467 4.372-6.475 7.908-9.022zM9.501 14.545c0.564-0.117 1.157-0.166 1.76-0.166 4.57 0 7.952 3.512 7.952 8.356 0 5.2-4.152 9.265-9.193 9.265-2.933 0-5.455-1.142-7.237-3.176-1.776-2.028-2.783-4.901-2.783-8.32v-0.413c0-7.521 4.78-14.87 11.916-19.817l0.395-0.274 5.755 5.457-0.597 0.414c-3.547 2.458-6.233 5.352-7.969 8.675z"></path>
</svg>
