<svg width="60" height="60" viewBox="0 0 60 60" fill="none" xmlns="http://www.w3.org/2000/svg">
<path d="M30 0C13.4314 0 0 13.4314 0 30C0 46.5686 13.4314 60 30 60C46.5686 60 60 46.5686 60 30C60 13.4314 46.5686 0 30 0ZM27.7038 14.1211L28.9929 20.0575C25.2158 20.8936 21.7426 21.9809 22.0239 26.1987H26.4624V41.9971H13.092V27.2314C13.0968 15.4969 21.7121 14.5421 27.7038 14.1211ZM45.6152 14.1211L46.9079 20.0575C43.1309 20.8936 39.6577 21.9809 39.9389 26.1987H44.3774V41.9971H31.0071V27.2314C31.0118 15.4969 39.6235 14.5421 45.6152 14.1211Z" fill="#000000"/>
</svg>
