<!-- Generated by IcoMoon.io -->
<svg version="1.1" xmlns="http://www.w3.org/2000/svg" width="32" height="32" viewBox="0 0 32 32">
<title>refresh</title>
<path d="M14.509 3.152c-1.77 0.197-3.829 0.922-5.362 1.886-2.939 1.862-5.052 4.801-5.791 8.251l-0.015 0.085c-0.32 1.531-0.278 2.117 0.181 2.578 0.325 0.326 0.669 0.445 1.306 0.446 0.429 0 0.509-0.016 0.757-0.154 0.477-0.262 0.645-0.606 0.787-1.605 0.565-3.952 3.461-7.157 7.301-8.080 0.642-0.171 1.378-0.27 2.138-0.27 0.074 0 0.147 0.001 0.22 0.003l-0.011-0c1.614 0 3.016 0.341 4.454 1.080 0.611 0.314 1.584 0.974 2.027 1.376l0.234 0.211h-0.264c-0.56 0-1.018 0.392-1.245 1.067-0.21 0.624-0.139 1.25 0.178 1.592 0.31 0.338 0.453 0.387 3.024 1.077 2.11 0.566 2.48 0.594 2.944 0.21 0.32-0.264 0.483-0.698 1.032-2.746 0.538-2.003 0.626-2.509 0.504-2.877-0.134-0.41-0.579-0.76-1.154-0.909-0.923-0.242-1.584 0.072-1.874 0.886l-0.090 0.256-0.642-0.637c-0.599-0.618-1.264-1.167-1.985-1.637l-0.044-0.027c-1.453-0.97-3.13-1.63-5.013-1.973-0.678-0.123-2.822-0.178-3.598-0.091zM26.776 15.629c-0.182 0.047-0.342 0.115-0.488 0.203l0.008-0.005c-0.365 0.226-0.512 0.558-0.664 1.506-0.251 1.557-0.637 2.618-1.394 3.837-1.206 1.902-3.004 3.336-5.131 4.055l-0.069 0.020c-3.179 1.061-6.794 0.341-9.392-1.87l-0.36-0.307 0.302-0.032c0.531-0.054 0.821-0.275 1.082-0.822 0.085-0.176 0.176-0.48 0.203-0.675 0.101-0.712-0.13-1.181-0.731-1.482-0.366-0.184-4.136-1.186-4.576-1.216-0.646-0.045-1.075 0.224-1.347 0.843-0.192 0.438-1.136 4.054-1.165 4.464-0.035 0.491 0.067 0.779 0.379 1.069 0.347 0.318 0.754 0.456 1.37 0.461 0.474 0.003 0.528-0.008 0.736-0.146 0.246-0.163 0.509-0.534 0.605-0.851l0.059-0.2 0.592 0.592c0.974 1.002 2.113 1.837 3.375 2.462l0.072 0.032c3.21 1.602 6.856 1.798 10.261 0.555 0.987-0.389 1.831-0.825 2.625-1.333l-0.060 0.036c2.958-1.954 5.045-5.022 5.669-8.593l0.011-0.078c0.13-0.754 0.146-1.298 0.048-1.621-0.106-0.347-0.49-0.717-0.856-0.821-0.382-0.109-0.872-0.144-1.163-0.083z"></path>
</svg>
