<!-- Generated by IcoMoon.io -->
<svg version="1.1" xmlns="http://www.w3.org/2000/svg" width="32" height="32" viewBox="0 0 32 32">
<title>responsive-design</title>
<path d="M19.764 22.444h-12.488c-0.239 0-0.434-0.194-0.434-0.434s0.194-0.434 0.434-0.434h12.488c0.239 0 0.434 0.194 0.434 0.434s-0.196 0.434-0.434 0.434z"></path>
<path d="M2.857 14.906c-0.24 0-0.434-0.194-0.434-0.434v-8.085c0-0.849 0.692-1.54 1.54-1.54h21.89c0.849 0 1.54 0.692 1.54 1.54v4.934c0 0.239-0.194 0.434-0.434 0.434s-0.434-0.194-0.434-0.434v-4.934c0-0.372-0.301-0.673-0.673-0.673h-21.89c-0.372 0-0.673 0.301-0.673 0.673v8.085c0 0.24-0.194 0.434-0.434 0.434z"></path>
<path d="M19.764 18.75h-12.488c-0.239 0-0.434-0.194-0.434-0.434s0.194-0.434 0.434-0.434h12.488c0.239 0 0.434 0.194 0.434 0.434s-0.196 0.434-0.434 0.434z"></path>
<path d="M14.908 20.697c0.295 0 0.535-0.239 0.535-0.535s-0.239-0.535-0.535-0.535-0.535 0.239-0.535 0.535c0 0.295 0.239 0.535 0.535 0.535z"></path>
<path d="M13.132 24.809c-0.24 0-0.434-0.194-0.434-0.434v-2.366c0-0.24 0.194-0.434 0.434-0.434s0.434 0.194 0.434 0.434v2.366c0 0.239-0.194 0.434-0.434 0.434z"></path>
<path d="M16.685 24.809c-0.239 0-0.434-0.194-0.434-0.434v-2.366c0-0.24 0.194-0.434 0.434-0.434s0.434 0.194 0.434 0.434v2.366c0 0.239-0.194 0.434-0.434 0.434z"></path>
<path d="M20.176 27.151h-11.508c-0.239 0-0.434-0.194-0.434-0.434v-0.277c0-1.307 1.063-2.37 2.37-2.37h8.609c0.229 0 0.456 0.033 0.673 0.097 0.229 0.068 0.361 0.31 0.293 0.539s-0.31 0.361-0.539 0.293c-0.138-0.041-0.281-0.062-0.427-0.062h-8.609c-0.776 0-1.416 0.59-1.495 1.346h11.066c0.239 0 0.434 0.194 0.434 0.434s-0.194 0.434-0.434 0.434z"></path>
<path d="M6.947 27.151h-5.979c-0.421 0-0.762-0.343-0.762-0.762v-11.588c0-0.421 0.343-0.762 0.762-0.762h5.977c0.421 0 0.762 0.343 0.762 0.762v11.586c0.002 0.423-0.341 0.764-0.76 0.764zM1.073 26.284h5.768v-11.378h-5.768v11.378z"></path>
<path d="M7.275 16.692h-6.635c-0.239 0-0.434-0.194-0.434-0.434s0.194-0.434 0.434-0.434h6.635c0.24 0 0.434 0.194 0.434 0.434s-0.194 0.434-0.434 0.434z"></path>
<path d="M7.275 25.365h-6.635c-0.239 0-0.434-0.194-0.434-0.434s0.194-0.434 0.434-0.434h6.635c0.24 0 0.434 0.194 0.434 0.434s-0.194 0.434-0.434 0.434z"></path>
<path d="M30.947 27.151h-10.771c-0.467 0-0.846-0.38-0.846-0.846v-14.567c0-0.467 0.38-0.846 0.846-0.846h10.771c0.467 0 0.846 0.38 0.846 0.846v14.567c0 0.467-0.38 0.846-0.846 0.846zM30.926 26.284v-14.528h-10.731v14.528h10.731z"></path>
<path d="M29.915 24.857h-8.708c-0.24 0-0.434-0.194-0.434-0.434v-11.656c0-0.239 0.194-0.434 0.434-0.434h8.708c0.239 0 0.434 0.194 0.434 0.434v11.656c0 0.239-0.194 0.434-0.434 0.434zM29.481 23.99v-10.789h-7.841v10.789h7.841z"></path>
<path d="M25.561 25.982c0.227 0 0.411-0.184 0.411-0.411s-0.184-0.411-0.411-0.411c-0.227 0-0.411 0.184-0.411 0.411s0.184 0.411 0.411 0.411z"></path>
</svg>
