<svg xmlns="http://www.w3.org/2000/svg" width="32" height="32"><path d="M12.987.516a14.03 14.03 0 0 0-6.56 2.272 13.65 13.65 0 0 0-4.283 4.609 13.091 13.091 0 0 0 .965 14.27c2.183 2.906 5.36 4.77 9.078 5.326.878.131 2.619.158 3.44.053 2.256-.287 4.336-1.039 6.06-2.19.313-.209.588-.373.612-.364.023.008 1.588 1.521 3.477 3.362 1.888 1.841 3.527 3.418 3.642 3.505.115.086.331.185.481.219.426.097.754-.035 1.203-.483.294-.294.371-.409.445-.663.105-.36.057-.654-.16-.982-.072-.108-1.678-1.705-3.569-3.548l-3.438-3.351.433-.542c3.35-4.198 3.84-9.856 1.26-14.546-1.307-2.376-3.394-4.35-5.886-5.568C18.58 1.11 17.116.7 15.333.534c-.543-.05-1.849-.06-2.346-.018m2.255 2.846c3.749.4 6.989 2.64 8.603 5.949a10.204 10.204 0 0 1 1.005 5.159c-.096 1.472-.416 2.644-1.08 3.955-1.713 3.379-5.023 5.549-8.923 5.849-2.675.206-5.547-.692-7.647-2.392-.84-.68-1.81-1.776-2.345-2.653-.985-1.61-1.469-3.219-1.533-5.096-.048-1.409.185-2.827.66-4.025 1.504-3.793 4.923-6.339 9.085-6.765.424-.044 1.693-.033 2.175.019" fill-rule="evenodd"/></svg>