<!-- Generated by IcoMoon.io -->
<svg version="1.1" xmlns="http://www.w3.org/2000/svg" width="32" height="32" viewBox="0 0 32 32">
<title>seo</title>
<path d="M4.625 23.227h5.485c0.194 0.251 0.404 0.489 0.629 0.714 1.313 1.31 3.067 2.081 4.92 2.163s3.668-0.531 5.092-1.72l0.447 0.447-0.371 0.371c-0.123 0.123-0.192 0.29-0.192 0.464s0.069 0.341 0.192 0.464l3.347 3.347c0.346 0.338 0.811 0.526 1.295 0.523s0.947-0.196 1.289-0.538c0.342-0.342 0.535-0.805 0.538-1.289s-0.185-0.949-0.523-1.295l-3.347-3.347c-0.061-0.061-0.133-0.109-0.213-0.142s-0.165-0.050-0.251-0.050c-0.086 0-0.172 0.017-0.251 0.050s-0.152 0.081-0.213 0.142l-0.371 0.371-0.447-0.447c0.063-0.075 0.125-0.152 0.185-0.229h5.579c0.519-0.001 1.017-0.207 1.384-0.574s0.574-0.865 0.574-1.384v-17.31c-0.001-0.519-0.207-1.017-0.574-1.384s-0.865-0.574-1.384-0.574h-22.818c-0.519 0.001-1.017 0.207-1.384 0.574s-0.574 0.865-0.574 1.384v17.309c0.001 0.519 0.207 1.017 0.574 1.385s0.865 0.574 1.384 0.574zM25.996 28.178c-0 0.104-0.031 0.205-0.089 0.291s-0.139 0.153-0.235 0.193-0.201 0.050-0.302 0.030c-0.102-0.020-0.195-0.070-0.268-0.142l-1.358-1.358 0.742-0.742 1.357 1.357c0.049 0.049 0.087 0.107 0.113 0.17s0.039 0.132 0.039 0.201zM23.558 25.521l-0.742 0.742-0.596-0.596 0.742-0.742 0.596 0.596zM11.668 23.012c-1.002-1-1.626-2.316-1.766-3.724s0.213-2.822 0.998-3.999 1.955-2.046 3.309-2.458c1.354-0.412 2.809-0.341 4.117 0.2s2.388 1.519 3.055 2.766 0.882 2.689 0.606 4.077c-0.276 1.388-1.024 2.638-2.118 3.536s-2.465 1.389-3.881 1.389c-0.802 0.003-1.597-0.154-2.339-0.461s-1.415-0.757-1.981-1.326zM27.444 21.914h-4.766c0.666-1.387 0.885-2.947 0.626-4.464s-0.981-2.917-2.068-4.006c-2.894-2.894-7.603-2.894-10.497 0-1.087 1.089-1.81 2.488-2.069 4.006s-0.039 3.077 0.626 4.464h-4.672c-0.171-0-0.335-0.068-0.456-0.189s-0.189-0.285-0.189-0.456v-11.933h24.109v11.933c-0 0.171-0.068 0.335-0.189 0.456s-0.285 0.189-0.456 0.189zM4.625 3.313h22.818c0.171 0 0.335 0.068 0.456 0.189s0.189 0.285 0.189 0.456v4.063h-24.109v-4.063c0-0.171 0.068-0.335 0.189-0.456s0.285-0.189 0.456-0.189zM5.593 5.667c0-0.174 0.069-0.341 0.192-0.464s0.29-0.192 0.464-0.192h0.038c0.174 0 0.341 0.069 0.464 0.192s0.192 0.29 0.192 0.464c0 0.174-0.069 0.341-0.192 0.464s-0.29 0.192-0.464 0.192h-0.038c-0.174 0-0.341-0.069-0.464-0.192s-0.192-0.29-0.192-0.464zM7.691 5.667c0-0.174 0.069-0.341 0.192-0.464s0.29-0.192 0.464-0.192h0.038c0.174 0 0.341 0.069 0.464 0.192s0.192 0.29 0.192 0.464c0 0.174-0.069 0.341-0.192 0.464s-0.29 0.192-0.464 0.192h-0.038c-0.174 0-0.341-0.069-0.464-0.192s-0.192-0.29-0.192-0.464zM9.789 5.667c0-0.174 0.069-0.341 0.192-0.464s0.29-0.192 0.464-0.192h0.038c0.174 0 0.341 0.069 0.464 0.192s0.192 0.29 0.192 0.464c0 0.174-0.069 0.341-0.192 0.464s-0.29 0.192-0.464 0.192h-0.038c-0.174 0-0.341-0.069-0.464-0.192s-0.192-0.29-0.192-0.464zM17.781 5.667c0-0.174 0.069-0.341 0.192-0.464s0.29-0.192 0.464-0.192h7.383c0.174 0 0.341 0.069 0.464 0.192s0.192 0.29 0.192 0.464c0 0.174-0.069 0.341-0.192 0.464s-0.29 0.192-0.464 0.192h-7.383c-0.174 0-0.341-0.069-0.464-0.192s-0.192-0.29-0.192-0.464zM20.159 17.889c0.010 0.086 0.003 0.172-0.020 0.255s-0.063 0.16-0.116 0.228c-0.053 0.068-0.12 0.124-0.195 0.166s-0.158 0.069-0.244 0.079c-0.026 0.003-0.052 0.005-0.078 0.005-0.161-0-0.316-0.059-0.436-0.166s-0.197-0.254-0.215-0.414l-0.006-0.052-1.667 1.972c-0.094 0.112-0.223 0.189-0.366 0.219s-0.292 0.012-0.423-0.052l-1.639-0.799-1.777 2.174c-0.11 0.135-0.27 0.22-0.443 0.238s-0.346-0.035-0.481-0.145c-0.135-0.11-0.22-0.27-0.238-0.443s0.035-0.346 0.145-0.481l2.106-2.576c0.094-0.114 0.223-0.194 0.368-0.226s0.295-0.014 0.428 0.051l1.647 0.803 1.35-1.597-0.142 0.016c-0.173 0.020-0.347-0.029-0.484-0.137s-0.225-0.266-0.245-0.439c-0.020-0.173 0.029-0.347 0.137-0.484s0.266-0.225 0.439-0.245l1.67-0.196c0.173-0.020 0.347 0.029 0.484 0.137s0.225 0.266 0.245 0.439l0.196 1.67z"></path>
</svg>
