<svg xmlns="http://www.w3.org/2000/svg" width="32" height="32"><path d="M1.719.057C.952.208.221.949.051 1.748.016 1.913.003 5.433.012 11.947l.015 9.946.124.307c.239.594.685 1.019 1.337 1.276.282.112.396.119 2.045.139.961.012 1.747.028 1.747.037 0 .008-.038.107-.085.219-.131.312-.042.525.346.833l.315.251.001.666c.001.652-.002.667-.132.753-.312.204-.55.467-.583.644-.03.16.017.272.374.9.224.394.47.766.546.826.183.144.377.138.775-.024.18-.073.351-.133.38-.133.029 0 .181.085.338.19.158.104.394.237.525.295.251.111.26.127.321.602.081.621.179.673 1.274.673.481 0 .88-.025.954-.058.192-.088.291-.304.333-.723l.037-.379.323-.153a4.18 4.18 0 0 0 .527-.301c.248-.179.265-.179.674-.013.626.254.733.191 1.26-.735.538-.947.539-1.054.016-1.477l-.32-.26v-1.296l.32-.26c.176-.142.336-.298.354-.347a.788.788 0 0 0-.046-.558.706.706 0 0 1-.078-.174c-.001-.022.49-.04 1.091-.04h1.093v.126c0 .102-.118.198-.655.531-.694.43-.857.57-.908.78-.051.209.419 1.595.605 1.786.175.179.193.181 1.201.119l.696-.043.357.485c.197.267.358.501.358.52 0 .019-.134.381-.296.803-.386 1.001-.392.978.427 1.584.723.535.772.563 1.002.563.151 0 .287-.09.832-.547l.652-.547.581.187.581.187.193.767c.222.886.244.937.453 1.045.183.095 1.66.117 1.891.029.21-.08.311-.299.507-1.108l.181-.744.271-.068c.149-.038.407-.123.573-.189l.302-.121.605.505c.654.547.794.627 1.017.582.15-.029 1.265-.828 1.452-1.039.159-.181.127-.397-.182-1.191-.251-.648-.275-.744-.21-.833.041-.055.206-.284.367-.51.231-.324.315-.405.4-.385.059.014.443.041.854.061.975.048.946.069 1.276-.922.134-.403.244-.809.244-.903 0-.24-.145-.38-.872-.836l-.633-.396v-1.254l.679-.427c.534-.336.694-.465.752-.604.062-.147.074-1.742.074-9.873 0-10.601.017-9.992-.304-10.584-.274-.503-.853-.923-1.445-1.049-.34-.072-28.006-.076-28.372-.003m28.388 1.164c.258.119.42.288.53.551.064.153.083.41.083 1.133v.935H1.12v-.962c0-.841.013-.987.101-1.16.115-.224.278-.386.512-.509.145-.077 1.499-.085 14.16-.086 13.5-.001 14.008.003 14.214.098M2.406 1.79a.522.522 0 0 0-.144.655c.217.418.844.374.991-.071.078-.235.023-.426-.17-.587-.21-.178-.464-.176-.677.003m2.189-.002c-.206.173-.255.392-.143.628.195.411.757.433.961.038.128-.248.101-.418-.101-.619-.229-.23-.481-.246-.717-.047m2.238-.048c-.158.111-.271.379-.236.562.043.225.292.429.525.429.396 0 .657-.39.505-.756-.121-.292-.536-.415-.794-.235m23.887 10.5v7.28h-.232c-.127 0-.447.015-.711.034l-.479.034-.128-.207a6.18 6.18 0 0 0-.361-.494l-.233-.286.269-.7c.148-.386.285-.765.303-.843.037-.151-.03-.32-.199-.506-.103-.114-.103-.115.074-.346.538-.705.768-1.834.549-2.688-.316-1.227-1.201-2.118-2.413-2.428-.392-.1-.705-.103-11.239-.103-10.617 0-10.845.002-11.248.105-.611.156-1.01.39-1.504.879-.334.331-.476.52-.622.829-.467.989-.467 1.945 0 2.933.265.561.905 1.203 1.459 1.464.784.37.37.35 7.253.35h6.223l.211.523.212.524-.201.251a5.967 5.967 0 0 0-.352.492l-.151.242-.72-.042c-.999-.058-1.047-.054-1.198.088-.147.138-.615 1.46-.615 1.737 0 .244.104.351.731.751l.575.367-1.304.014c-1.077.012-1.334.001-1.474-.066-.233-.111-.312-.102-.733.077l-.365.156-.304-.208a4.059 4.059 0 0 0-.551-.313c-.245-.105-.247-.108-.282-.416-.092-.814-.128-.839-1.212-.861-1.189-.024-1.276.025-1.368.763a2.93 2.93 0 0 1-.069.421c-.01.007-.12.056-.245.111a4.487 4.487 0 0 0-.531.298l-.304.2-.269-.108c-.538-.217-.602-.227-.805-.131-.165.079-.426.09-2.175.09H1.994l-.271-.135a1.183 1.183 0 0 1-.424-.356l-.152-.22-.014-8.418-.014-8.418H30.72v7.28M15.241 5.593c-.962.319-1.641 1.234-1.641 2.212 0 .231.139.755.275 1.037.258.536.89 1.031 1.506 1.18.517.125 1.284.036 1.6-.185.097-.068.133-.048.438.244.308.296.416.349.661.323.277-.029.515-.363.455-.637-.018-.081-.172-.285-.342-.454l-.309-.305.122-.251c.54-1.114.041-2.481-1.113-3.048-.312-.154-.425-.18-.853-.197-.382-.015-.562.003-.799.081m1.334 1.193a1.2 1.2 0 0 1 .174 1.857 1.178 1.178 0 0 1-2.028-.841c.002-.377.132-.685.378-.892.288-.243.463-.3.879-.283.307.011.419.041.597.159m10.038 5.323c.512.066.909.26 1.27.62.772.771.852 1.999.188 2.885-.123.164-.138.169-.246.093a.652.652 0 0 0-.312-.08c-.207 0-.36.1-1.151.756l-.366.304-.505-.163a9.407 9.407 0 0 1-.581-.2c-.044-.022-.159-.366-.279-.834-.276-1.085-.212-1.037-1.384-1.037-.52 0-.951.024-1.01.055-.156.084-.233.278-.428 1.078l-.178.733-.296.084c-.162.046-.423.131-.579.188l-.285.104-.648-.534c-.851-.7-.852-.7-1.66-.108l-.581.427h-6.14c-6.699 0-6.447.011-7.026-.304-.355-.193-.71-.589-.913-1.017-.156-.329-.17-.403-.17-.892s.014-.564.17-.892c.328-.691.938-1.16 1.644-1.262.452-.066 20.962-.07 21.466-.004m-2.91 4.038c.187.773.279 1.013.417 1.087.059.031.301.104.539.16.237.057.639.186.893.288.69.276.671.282 1.445-.384.284-.245.536-.445.561-.445.024 0 .132.06.24.134l.196.133-.29.7c-.16.385-.291.779-.291.875 0 .136.076.268.342.594.187.23.458.609.602.844.143.234.319.457.392.495.128.067.778.058 1.45-.021.237-.028.257-.021.307.11.141.371.156.347-.501.77-.73.469-.851.586-.848.82.003.251.002 1.63-.002 1.873-.003.263.12.378.859.8.301.171.557.328.569.347.012.02-.006.139-.04.266l-.061.23-.721-.04c-1.078-.061-1.088-.058-1.317.338a7.434 7.434 0 0 1-.8 1.098c-.306.344-.302.478.036 1.314.147.363.267.691.267.728 0 .038-.087.127-.192.199l-.193.131-.594-.502c-.363-.307-.658-.514-.758-.533-.116-.022-.291.023-.616.157-.249.103-.664.24-.923.305-.676.17-.702.201-.937 1.12l-.196.769-.268.016-.267.015-.205-.782c-.112-.43-.242-.829-.289-.886-.053-.066-.271-.153-.585-.235a9.487 9.487 0 0 1-.966-.316c-.255-.102-.51-.186-.565-.185-.143 0-.35.141-.926.63l-.506.429-.187-.139a22.595 22.595 0 0 1-.206-.153c-.011-.008.117-.352.284-.764.228-.566.295-.789.269-.904-.018-.085-.166-.307-.328-.494a8.012 8.012 0 0 1-.587-.801c-.197-.31-.344-.482-.447-.525-.146-.061-.975-.042-1.499.033-.191.027-.196.024-.281-.226-.047-.139-.067-.267-.043-.283.024-.017.325-.208.669-.424.39-.245.652-.447.692-.534.047-.098.064-.447.057-1.179a66.956 66.956 0 0 0-.015-1.105c-.009-.107-.212-.265-.846-.661-.648-.405-.622-.366-.486-.731l.046-.123.825.037c.979.045.974.047 1.302-.506.124-.208.35-.525.503-.704.354-.416.463-.582.463-.709.001-.057-.134-.436-.299-.843-.33-.814-.331-.763.019-.954.098-.053.137-.05.213.016.81.701 1.148.95 1.294.95.088 0 .364-.085.614-.189a6.33 6.33 0 0 1 .841-.274c.696-.154.745-.207.94-1.004.239-.976.184-.88.503-.88h.28l.152.627m-1.49 2.448c-1.584.339-2.936 1.551-3.465 3.109-.375 1.102-.306 2.42.182 3.498 1.186 2.615 4.496 3.573 6.898 1.996 1.001-.658 1.702-1.638 2.02-2.828.169-.633.168-1.644-.001-2.29a4.805 4.805 0 0 0-3.644-3.496c-.472-.099-1.501-.093-1.99.011m2.141 1.166c1.604.537 2.614 2.017 2.51 3.677-.059.947-.388 1.669-1.073 2.352-.482.482-.818.693-1.444.909-.377.13-.505.147-1.094.147-.58.001-.722-.018-1.093-.141a3.671 3.671 0 0 1-1.471-.892 3.617 3.617 0 0 1-1.056-2.983c.095-.88.416-1.543 1.06-2.192.322-.323.5-.451.907-.651.659-.323 1.098-.419 1.794-.39.396.017.653.061.96.164M9.893 22.173c.063.402.139.597.275.704.077.06.178.11.226.11.165 0 .728.305 1.068.578.396.319.501.334.963.146l.317-.128.113.192.114.193-.151.109c-.083.06-.234.184-.335.276-.205.186-.208.208-.135 1.046.027.319.019.567-.028.786-.087.412-.023.577.327.833.285.21.302.255.171.45l-.098.145c-.005.008-.161-.049-.348-.124-.425-.173-.555-.15-.945.168a3.043 3.043 0 0 1-1 .556 1.059 1.059 0 0 0-.331.174c-.116.105-.138.171-.204.613-.034.221-.04.227-.238.227-.22 0-.267-.058-.267-.326s-.138-.519-.331-.603c-.669-.291-.909-.423-1.206-.665-.201-.163-.39-.273-.468-.273-.072 0-.278.06-.459.133-.18.074-.331.128-.335.12l-.097-.158a.62.62 0 0 1-.091-.195c0-.028.117-.137.26-.242.353-.259.411-.412.326-.863-.063-.332-.05-.815.035-1.374.031-.199.02-.218-.303-.521-.326-.305-.334-.318-.261-.453.103-.193.153-.201.47-.076.447.176.602.146.978-.19.209-.187.679-.442 1.013-.551.297-.096.451-.312.495-.694l.037-.323h.206c.197 0 .207.009.237.2m-.756 1.687c-.494.162-.892.529-1.127 1.04-.172.374-.19.906-.044 1.327.119.347.543.825.885.998.931.472 2.01.116 2.467-.813.157-.319.175-.405.175-.811 0-.377-.024-.504-.138-.748a1.958 1.958 0 0 0-.901-.897c-.353-.163-.973-.208-1.317-.096m.949 1.141c.308.177.414.675.213 1.003-.113.186-.4.343-.627.342-.338 0-.711-.386-.712-.735 0-.579.607-.908 1.126-.61" fill-rule="evenodd"/></svg>