<!-- Generated by IcoMoon.io -->
<svg version="1.1" xmlns="http://www.w3.org/2000/svg" width="32" height="32" viewBox="0 0 32 32">
<title>truck</title>
<path d="M4.987 4.8c-0.517 0.057-0.794 0.139-1.215 0.359-0.607 0.317-1.195 0.971-1.442 1.602-0.244 0.623-0.249 0.776-0.249 7.397 0 6.074 0.003 6.263 0.107 6.668 0.151 0.581 0.448 1.079 0.849 1.47l0.001 0.001c0.407 0.405 0.827 0.66 1.355 0.822l0.375 0.114 0.075 0.37c0.343 1.697 1.734 3.116 3.48 3.551 0.388 0.097 1.639 0.097 2.027 0 0.825-0.206 1.711-0.712 2.274-1.298 0.593-0.618 1.058-1.488 1.203-2.248l0.067-0.354h6.154l0.035 0.36c0.16 1.642 1.19 2.955 2.72 3.465 0.384 0.128 0.504 0.142 1.2 0.142s0.816-0.014 1.2-0.142c1.53-0.511 2.56-1.823 2.72-3.465 0.032-0.325 0.047-0.36 0.153-0.36 0.254 0 0.751-0.171 1.023-0.35 0.168-0.112 0.362-0.306 0.475-0.475 0.348-0.524 0.355-0.604 0.338-3.638l-0.015-2.712-0.171-0.345c-0.153-0.309-0.506-0.679-3.36-3.524-2.78-2.77-3.227-3.195-3.483-3.307-0.286-0.126-0.334-0.129-1.96-0.145l-1.667-0.017v-0.366c0-0.496-0.093-1.134-0.22-1.515-0.31-0.923-1.187-1.721-2.185-1.988-0.311-0.084-0.84-0.092-5.915-0.102-3.065-0.006-5.742 0.008-5.947 0.031zM16.615 6.036c0.644 0.207 1.141 0.704 1.345 1.332l0.004 0.015c0.073 0.238 0.085 1.135 0.102 7.484l0.018 7.214h-4.194l-0.067-0.354c-0.158-0.828-0.7-1.784-1.364-2.4-1.778-1.652-4.472-1.656-6.245-0.008-0.661 0.613-1.179 1.507-1.365 2.35-0.037 0.168-0.094 0.306-0.126 0.306s-0.178-0.056-0.325-0.125c-0.357-0.167-0.834-0.687-0.996-1.086l-0.124-0.309v-6.347c0-6.82-0.006-6.668 0.272-7.148 0.228-0.393 0.675-0.77 1.057-0.889 0.38-0.119 1.282-0.136 6.378-0.126 4.651 0.009 5.396 0.021 5.628 0.092zM22.427 10.023c0.145 0.068 1.182 1.071 3.209 3.105 2.524 2.532 3.006 3.039 3.057 3.219 0.043 0.151 0.056 0.943 0.044 2.722-0.015 2.29-0.025 2.521-0.111 2.652-0.143 0.219-0.332 0.316-0.628 0.325l-0.27 0.007-0.113-0.267c-0.421-0.993-1.36-1.848-2.415-2.198-0.383-0.127-0.505-0.142-1.2-0.142s-0.817 0.015-1.2 0.142c-0.298 0.104-0.551 0.22-0.791 0.356l0.024-0.012c-0.691 0.409-1.39 1.195-1.649 1.857l-0.104 0.265-1.026 0.031v-12.164l1.48 0.001c1.334 0.001 1.502 0.011 1.694 0.101zM10.358 19.413c0.691 0.213 1.373 0.729 1.793 1.357 0.339 0.506 0.475 0.873 0.552 1.487 0.291 2.318-1.792 4.224-4.089 3.743-1.158-0.242-2.187-1.191-2.546-2.347-0.164-0.527-0.164-1.445-0.001-1.973 0.249-0.763 0.73-1.392 1.358-1.823l0.012-0.008c0.445-0.298 0.867-0.473 1.308-0.543 0.424-0.068 1.221-0.015 1.614 0.106zM24.594 20.664c0.649 0.141 1.196 0.505 1.568 1.006l0.005 0.007c0.396 0.524 0.551 0.991 0.551 1.657s-0.155 1.132-0.551 1.657c-0.373 0.498-0.906 0.859-1.521 1.006l-0.018 0.004c-1.318 0.311-2.609-0.363-3.182-1.66-0.125-0.283-0.137-0.376-0.137-1.006s0.012-0.722 0.137-1.006c0.569-1.289 1.813-1.947 3.148-1.664z"></path>
</svg>
