<svg width="24" height="24" fill="none" xmlns="http://www.w3.org/2000/svg"><path d="M11.544 2.283c-1.955.173-3.655 1.626-4.14 3.538a6.26 6.26 0 0 0-.164 1.263v.223l-.23.05a4.783 4.783 0 0 0-3.728 4.144c-.054.474-.055 5.52-.001 5.999a4.644 4.644 0 0 0 1.376 2.843A4.644 4.644 0 0 0 7.5 21.719c.222.025 1.951.04 4.5.04s4.278-.015 4.5-.04a4.644 4.644 0 0 0 2.843-1.376 4.644 4.644 0 0 0 1.376-2.843c.053-.476.053-5.524 0-6a4.79 4.79 0 0 0-3.729-4.143l-.23-.05v-.223c-.004-2.223-1.478-4.139-3.604-4.685-.244-.062-1.152-.175-1.236-.153-.011.003-.18.019-.376.037m1.37 1.595c.508.146.893.372 1.321.78.637.606.943 1.27.993 2.152l.024.43H8.748l.024-.43c.048-.843.302-1.432.886-2.045a3.113 3.113 0 0 1 1.775-.967c.321-.058 1.152-.013 1.481.08m2.333 5.632c.015.867.054 1 .336 1.147.216.114.618.114.834 0 .279-.146.321-.285.336-1.107l.013-.71.107.025c.778.18 1.655.913 2.062 1.723.057.114.145.348.194.52l.091.312v6.16l-.091.312c-.169.584-.459 1.043-.941 1.492-.474.44-.947.686-1.533.798-.449.086-8.861.086-9.31 0-.586-.112-1.059-.358-1.533-.798-.482-.449-.772-.908-.941-1.492l-.091-.312v-6.16l.091-.312c.169-.584.459-1.043.941-1.492.405-.375.89-.653 1.315-.751l.107-.025.013.71c.011.624.023.729.096.867.115.22.325.323.657.323s.542-.103.657-.323c.074-.139.084-.242.096-.907l.013-.75h6.468l.013.75" fill-rule="evenodd" fill="#000"/></svg>