<!-- Generated by IcoMoon.io -->
<svg version="1.1" xmlns="http://www.w3.org/2000/svg" width="28" height="28" viewBox="0 0 28 28">
<title>small-batch</title>
<path d="M11.155 11.941c-0.221 0.221-0.346 0.521-0.346 0.834s0.124 0.613 0.345 0.835c0.221 0.221 0.521 0.346 0.834 0.346s0.613-0.124 0.835-0.345c0.11-0.11 0.197-0.24 0.256-0.383s0.090-0.297 0.090-0.452c0-0.155-0.030-0.308-0.090-0.452s-0.146-0.273-0.256-0.383c-0.11-0.11-0.24-0.197-0.383-0.256s-0.297-0.090-0.452-0.090-0.308 0.031-0.452 0.090c-0.143 0.059-0.273 0.146-0.383 0.256l0-0zM12.268 13.056c-0.046 0.046-0.102 0.080-0.164 0.098s-0.127 0.022-0.191 0.009c-0.063-0.013-0.123-0.041-0.173-0.082s-0.089-0.094-0.114-0.154-0.034-0.125-0.028-0.189c0.006-0.064 0.029-0.126 0.065-0.18s0.085-0.098 0.142-0.128c0.057-0.030 0.121-0.046 0.186-0.046 0.078 0 0.154 0.023 0.218 0.066s0.115 0.105 0.145 0.177c0.030 0.072 0.037 0.151 0.022 0.227s-0.053 0.146-0.108 0.201z"></path>
<path d="M25.339 17.781l-0.556-0.557c-2.282-2.279-5.278-3.704-8.486-4.036l-4.863-4.863c-0.016-0.016-0.034-0.031-0.053-0.044l-1.589-1.113c-0.086-0.059-0.191-0.081-0.293-0.062s-0.193 0.077-0.252 0.162-0.083 0.19-0.065 0.292c0.018 0.102 0.075 0.193 0.159 0.253l1.562 1.093 1.118 1.121c-0.325-0.003-0.647 0.051-0.953 0.16l-0.468-0.469c-0.175-0.166-0.396-0.277-0.634-0.316s-0.483-0.007-0.703 0.093l-1.588-1.591 0.312-0.312c0.803-0.805 1.254-1.895 1.254-3.031s-0.451-2.227-1.254-3.031c-0.074-0.072-0.174-0.111-0.277-0.11s-0.202 0.042-0.275 0.115c-0.073 0.073-0.114 0.172-0.115 0.275s0.039 0.202 0.11 0.277c0.655 0.657 1.023 1.547 1.023 2.475s-0.368 1.818-1.023 2.475l-0.312 0.312-1.803-1.804 0.323-0.323 1.112 0.778c0.085 0.060 0.191 0.083 0.294 0.065s0.194-0.076 0.254-0.162 0.083-0.191 0.065-0.294c-0.018-0.103-0.076-0.194-0.162-0.254l-1.382-0.966c-0.076-0.053-0.168-0.078-0.26-0.070s-0.178 0.048-0.244 0.114l-0.833 0.836-0.836 0.833c-0.065 0.065-0.106 0.152-0.114 0.244s0.017 0.184 0.070 0.26l1.753 2.505-3.039 3.039c-0.038 0.036-0.068 0.080-0.088 0.128s-0.031 0.1-0.032 0.152c-0 0.052 0.009 0.104 0.029 0.152s0.049 0.092 0.086 0.129c0.037 0.037 0.081 0.066 0.129 0.086s0.1 0.030 0.152 0.029c0.052-0 0.104-0.011 0.152-0.032s0.091-0.051 0.128-0.088l2.941-2.941 1.682 2.403c0.013 0.019 0.028 0.037 0.044 0.053l2.503 2.503c0.468 0.468 1.089 0.751 1.749 0.798s1.315-0.146 1.844-0.543l1.057 1.057 0.018 0.299c0.167 2.854 1.376 5.547 3.398 7.567l0.556 0.556c0.147 0.148 0.23 0.348 0.23 0.556s-0.083 0.409-0.23 0.556c-0.15 0.143-0.349 0.223-0.556 0.223s-0.406-0.080-0.556-0.223l-0.556-0.556c-2.183-2.187-3.535-5.067-3.821-8.144-0.004-0.052-0.018-0.103-0.041-0.15s-0.056-0.088-0.096-0.122c-0.040-0.034-0.086-0.060-0.136-0.075s-0.103-0.021-0.155-0.017c-0.052 0.005-0.103 0.020-0.149 0.045s-0.087 0.058-0.12 0.099c-0.033 0.041-0.058 0.088-0.072 0.138s-0.019 0.103-0.013 0.155c0.303 3.26 1.735 6.311 4.048 8.628l0.556 0.556c0.296 0.29 0.695 0.451 1.109 0.448s0.811-0.168 1.104-0.461c0.293-0.293 0.459-0.689 0.461-1.104s-0.159-0.813-0.448-1.109l-0.556-0.556c-1.886-1.884-3.013-4.396-3.169-7.057v-0.006h0.006c2.661 0.156 5.172 1.283 7.057 3.169l0.557 0.557c0.145 0.149 0.319 0.267 0.511 0.348s0.397 0.124 0.605 0.125c0.208 0.001 0.414-0.039 0.607-0.118s0.367-0.196 0.514-0.343c0.147-0.147 0.264-0.322 0.343-0.515s0.119-0.399 0.118-0.607c-0.001-0.208-0.044-0.414-0.125-0.605s-0.2-0.365-0.349-0.511v0zM10.042 10.272l0.301 0.3c-0.214 0.154-0.402 0.342-0.556 0.556l-0.3-0.3c-0.074-0.074-0.115-0.174-0.115-0.278s0.041-0.204 0.115-0.278c0.075-0.072 0.174-0.112 0.278-0.112s0.203 0.040 0.278 0.112zM8.12 11.688l-3.685-5.265 0.323-0.323 3.942 3.942c-0.105 0.22-0.139 0.468-0.098 0.708s0.156 0.462 0.329 0.635l0.468 0.468c-0.109 0.306-0.163 0.628-0.16 0.953l-1.118-1.118zM10.598 14.166c-0.275-0.275-0.462-0.625-0.538-1.007s-0.037-0.777 0.112-1.136 0.401-0.666 0.724-0.883c0.323-0.216 0.704-0.331 1.093-0.331s0.769 0.115 1.093 0.331c0.323 0.216 0.575 0.523 0.724 0.883s0.188 0.755 0.112 1.136c-0.076 0.382-0.263 0.732-0.538 1.007-0.369 0.368-0.869 0.575-1.39 0.575s-1.021-0.207-1.39-0.575h-0.001zM24.783 19.45c-0.147 0.147-0.348 0.23-0.556 0.23s-0.409-0.083-0.556-0.23l-0.557-0.557c-2.020-2.022-4.713-3.231-7.566-3.398l-0.299-0.018-1.056-1.056c0.358-0.474 0.551-1.052 0.551-1.646v-0.030l1.101 1.099c0.065 0.065 0.151 0.105 0.242 0.114 3.076 0.288 5.955 1.64 8.141 3.823l0.556 0.556c0.073 0.073 0.131 0.16 0.171 0.255s0.060 0.198 0.060 0.301c0 0.103-0.020 0.206-0.060 0.301s-0.098 0.182-0.171 0.255zM5.74 21.119v-1.219c0-0.104-0.041-0.204-0.115-0.278s-0.174-0.115-0.278-0.115c-0.104 0-0.204 0.041-0.278 0.115s-0.115 0.174-0.115 0.278v1.219c-0.477 0.097-0.902 0.369-1.191 0.761s-0.422 0.878-0.373 1.363c0.049 0.485 0.276 0.934 0.638 1.261s0.832 0.508 1.319 0.508c0.487 0 0.957-0.181 1.319-0.508s0.589-0.776 0.638-1.261c0.049-0.485-0.084-0.971-0.373-1.363s-0.713-0.664-1.191-0.761zM5.347 24.226c-0.233 0-0.462-0.069-0.656-0.199s-0.345-0.314-0.435-0.53-0.113-0.453-0.067-0.682c0.046-0.229 0.158-0.439 0.323-0.604s0.375-0.277 0.604-0.323c0.229-0.046 0.466-0.022 0.682 0.067s0.4 0.241 0.53 0.435c0.13 0.194 0.199 0.422 0.199 0.656 0 0.313-0.124 0.613-0.346 0.834s-0.521 0.346-0.834 0.346z"></path>
<path d="M10.46 21.119v-1.219c0-0.104-0.041-0.204-0.115-0.278s-0.174-0.115-0.278-0.115c-0.104 0-0.204 0.041-0.278 0.115s-0.115 0.174-0.115 0.278v1.219c-0.478 0.097-0.902 0.369-1.191 0.761s-0.422 0.878-0.373 1.363c0.049 0.485 0.276 0.934 0.638 1.261s0.832 0.508 1.319 0.508 0.957-0.181 1.319-0.508c0.362-0.327 0.589-0.776 0.638-1.261s-0.084-0.971-0.373-1.363c-0.289-0.393-0.713-0.664-1.191-0.761zM10.067 24.226c-0.233 0-0.462-0.069-0.656-0.199s-0.345-0.314-0.435-0.53c-0.089-0.216-0.113-0.453-0.067-0.682s0.158-0.439 0.323-0.604 0.375-0.277 0.604-0.323c0.229-0.046 0.466-0.022 0.682 0.067s0.4 0.241 0.53 0.435c0.13 0.194 0.199 0.422 0.199 0.656 0 0.313-0.124 0.613-0.346 0.834s-0.521 0.346-0.834 0.346zM15.967 9.28c-0.001 0.587 0.163 1.162 0.472 1.661s0.752 0.901 1.278 1.162c0.526 0.261 1.114 0.369 1.699 0.313s1.141-0.275 1.608-0.631c0.467-0.356 0.824-0.836 1.032-1.384s0.259-1.145 0.146-1.721c-0.113-0.576-0.384-1.109-0.784-1.539s-0.912-0.739-1.478-0.893l1.39-1.412c0.063-0.064 0.102-0.146 0.111-0.235s-0.012-0.178-0.060-0.253l-0.756-1.18c-0.036-0.055-0.085-0.101-0.143-0.133s-0.123-0.048-0.189-0.048h-2.36c-0.066-0-0.131 0.017-0.189 0.048s-0.107 0.077-0.142 0.133l-0.756 1.18c-0.048 0.075-0.069 0.164-0.060 0.253s0.048 0.172 0.111 0.235l1.39 1.412c-0.666 0.181-1.253 0.576-1.672 1.124s-0.647 1.218-0.648 1.908zM18.148 3.773h1.93l0.472 0.734-1.437 1.458-1.436-1.458 0.471-0.734zM19.113 6.92c0.467 0 0.923 0.138 1.311 0.398s0.691 0.628 0.869 1.059c0.179 0.431 0.225 0.906 0.134 1.364s-0.316 0.878-0.646 1.208c-0.33 0.33-0.751 0.555-1.208 0.646s-0.932 0.044-1.364-0.134-0.8-0.481-1.059-0.869c-0.259-0.388-0.398-0.844-0.398-1.311 0.001-0.626 0.249-1.226 0.692-1.668s1.042-0.691 1.668-0.692zM4.070 17.911l2.763 0.022c0.052 0 0.103-0.010 0.151-0.030s0.091-0.049 0.128-0.086c0.037-0.037 0.065-0.081 0.085-0.129s0.029-0.1 0.029-0.152l-0.021-2.76c-0.001-0.089-0.032-0.176-0.088-0.245s-0.134-0.117-0.222-0.136l-1.369-0.3c-0.064-0.014-0.131-0.012-0.195 0.006s-0.121 0.053-0.167 0.1l-1.669 1.669c-0.047 0.047-0.081 0.104-0.099 0.168s-0.021 0.13-0.007 0.195l0.3 1.369c0.019 0.087 0.067 0.165 0.136 0.221s0.156 0.087 0.245 0.088zM5.568 14.91l0.852 0.187 0.016 2.045-2.045-0.016-0.186-0.852 1.363-1.364z"></path>
</svg>
