<!-- Generated by IcoMoon.io -->
<svg version="1.1" xmlns="http://www.w3.org/2000/svg" width="37" height="32" viewBox="0 0 37 32">
<title>star-3</title>
<path d="M26.675 19.828l7.611-6.076c1.171-0.959 0.585-2.558-0.878-2.558l-9.66-0.64c-0.585 0-1.171-0.32-1.171-0.959l-3.805-8.635c-0.585-1.279-2.342-1.279-2.927 0l-3.22 8.635c-0.293 0.64-0.878 0.959-1.464 0.959l-9.66 0.64c-1.464 0-2.049 1.599-0.878 2.558l7.611 6.076c0.293 0.32 0.585 0.64 0.293 1.279l-2.342 9.274c-0.293 0.959 1.171 2.239 2.342 1.279l8.196-5.117c0.585-0.32 1.171-0.32 1.756 0l7.904 5.117c1.171 0.64 2.634-0.32 2.342-1.599l-2.342-8.954c-0.293-0.32 0-0.959 0.293-1.279z"></path>
</svg>
