<svg xmlns="http://www.w3.org/2000/svg" width="32" height="32"><path d="M0 16v16h32V0H0v16m16.818-6.64 1.324 3.973 4.245.013 4.246.014-9.01 6.625c-4.955 3.644-9.016 6.608-9.023 6.586-.007-.021.574-1.8 1.292-3.952.717-2.153 1.294-3.932 1.281-3.953-.013-.021-1.565-1.224-3.448-2.672L4.301 13.36l4.245-.014 4.246-.013 1.324-3.973c.728-2.185 1.336-3.973 1.351-3.973.015 0 .623 1.788 1.351 3.973m5.027 14.055c.568 1.715 1.027 3.135 1.021 3.155-.015.045-6.757-5.137-6.774-5.206-.011-.045 4.57-1.101 4.674-1.077.025.006.511 1.413 1.079 3.128" fill-rule="evenodd"/></svg>