<!-- Generated by IcoMoon.io -->
<svg version="1.1" xmlns="http://www.w3.org/2000/svg" width="32" height="32" viewBox="0 0 32 32">
<title>store-1</title>
<path d="M1.641 31.531c0 0.259 0.21 0.469 0.469 0.469h27.779c0.259 0 0.469-0.21 0.469-0.469v-23.234c0-0.259-0.21-0.469-0.469-0.469s-0.469 0.21-0.469 0.469v22.765h-26.842v-22.765c0-0.259-0.21-0.469-0.469-0.469s-0.469 0.21-0.469 0.469v23.234z"></path>
<path d="M3.662 24.46c0 0.259 0.21 0.469 0.469 0.469h11.869c0.259 0 0.469-0.21 0.469-0.469v-10.607c0-0.259-0.21-0.469-0.469-0.469h-11.869c-0.259 0-0.469 0.21-0.469 0.469v10.607zM4.599 23.991v-9.669h10.932v9.669h-10.932z"></path>
<path d="M20.041 22.656c0.259 0 0.469-0.21 0.469-0.469v-1.515c0-0.259-0.21-0.469-0.469-0.469s-0.469 0.21-0.469 0.469v1.515c0 0.259 0.21 0.469 0.469 0.469z"></path>
<path d="M18.020 29.475c0.259 0 0.469-0.21 0.469-0.469v-14.684h8.912v14.684c0 0.259 0.21 0.469 0.469 0.469s0.469-0.21 0.469-0.469v-15.152c0-0.259-0.21-0.469-0.469-0.469h-9.849c-0.259 0-0.469 0.21-0.469 0.469v15.152c0 0.259 0.21 0.469 0.469 0.469z"></path>
<path d="M29.89 6.241c0.259 0 0.469-0.21 0.469-0.469v-5.303c0-0.259-0.21-0.469-0.469-0.469h-18.569c-0.259 0-0.469 0.21-0.469 0.469s0.21 0.469 0.469 0.469h18.1v4.834c0 0.259 0.21 0.469 0.469 0.469z"></path>
<path d="M2.11 6.241c0.259 0 0.469-0.21 0.469-0.469v-4.834h6.555c0.259 0 0.469-0.21 0.469-0.469s-0.21-0.469-0.469-0.469h-7.024c-0.259 0-0.469 0.21-0.469 0.469v5.303c0 0.259 0.21 0.469 0.469 0.469z"></path>
<path d="M0 8.298c0 0.259 0.21 0.469 0.469 0.469h22.476c0.259 0 0.469-0.21 0.469-0.469s-0.21-0.469-0.469-0.469h-22.008v-1.588h30.125v1.588h-5.93c-0.259 0-0.469 0.21-0.469 0.469s0.21 0.469 0.469 0.469h6.399c0.259 0 0.469-0.21 0.469-0.469v-2.526c0-0.259-0.21-0.469-0.469-0.469h-31.063c-0.259 0-0.469 0.21-0.469 0.469v2.526z"></path>
<path d="M9.218 10.816c0 0.259 0.21 0.469 0.469 0.469h12.627c0.259 0 0.469-0.21 0.469-0.469s-0.21-0.469-0.469-0.469h-12.627c-0.259 0-0.469 0.21-0.469 0.469z"></path>
<path d="M9.478 29.006c0 0.259 0.21 0.469 0.469 0.469h19.944c0.259 0 0.469-0.21 0.469-0.469s-0.21-0.469-0.469-0.469h-19.944c-0.259 0-0.469 0.21-0.469 0.469z"></path>
<path d="M1.641 29.006c0 0.259 0.21 0.469 0.469 0.469h5.649c0.259 0 0.469-0.21 0.469-0.469s-0.21-0.469-0.469-0.469h-5.649c-0.259 0-0.469 0.21-0.469 0.469z"></path>
<path d="M5.819 17.277c0.183 0.183 0.48 0.183 0.663 0l1.071-1.072c0.183-0.183 0.183-0.48 0-0.663s-0.48-0.183-0.663 0l-1.071 1.071c-0.183 0.183-0.183 0.48 0 0.663z"></path>
<path d="M6.891 19.062c0.183 0.183 0.48 0.183 0.663 0l1.786-1.786c0.183-0.183 0.183-0.48 0-0.663s-0.48-0.183-0.663 0l-1.786 1.786c-0.183 0.183-0.183 0.48 0 0.663z"></path>
</svg>
