<!-- Generated by IcoMoon.io -->
<svg version="1.1" xmlns="http://www.w3.org/2000/svg" width="32" height="32" viewBox="0 0 32 32">
<title>support</title>
<path d="M16 16.841c1.905 0 3.666-0.963 4.618-2.526s0.953-3.49 0-5.053-2.713-2.526-4.618-2.526c-1.905 0-3.666 0.963-4.618 2.526s-0.953 3.49 0 5.053c0.953 1.563 2.713 2.526 4.618 2.526zM16 18.526c-2.54 0-4.888-1.284-6.158-3.369s-1.27-4.653 0-6.737c1.27-2.084 3.617-3.369 6.158-3.369s4.888 1.284 6.158 3.369c1.27 2.084 1.27 4.653 0 6.737s-3.617 3.369-6.158 3.369zM15.061 20.21c-2.059-0-4.077 0.543-5.828 1.569s-3.167 2.493-4.087 4.237l-0.981 1.863c-0.275 0.522-0.246 1.142 0.078 1.638s0.895 0.799 1.511 0.799h20.492c0.616-0 1.188-0.303 1.511-0.799s0.353-1.116 0.078-1.638l-0.981-1.863c-0.921-1.745-2.336-3.212-4.087-4.237s-3.769-1.569-5.828-1.569h-1.877zM15.061 18.526h1.877c2.389 0 4.73 0.63 6.762 1.82s3.674 2.893 4.742 4.917l0.983 1.863c0.551 1.044 0.491 2.285-0.157 3.278s-1.793 1.597-3.025 1.597h-20.488c-1.232 0-2.376-0.604-3.024-1.597s-0.707-2.233-0.156-3.277l0.981-1.863c1.068-2.024 2.71-3.727 4.742-4.917s4.373-1.82 6.762-1.82h-0zM5.335 15.157v2.629l-2.369-0.632c-1.163-0.389-2.103-1.219-2.596-2.29s-0.492-2.289 0-3.361c0.492-1.072 1.432-1.901 2.596-2.29l0.971-0.325c0.682-2.541 2.238-4.795 4.423-6.405s4.873-2.484 7.641-2.484c2.768 0 5.456 0.874 7.641 2.484s3.741 3.863 4.423 6.405l0.971 0.325c1.163 0.389 2.103 1.219 2.596 2.29s0.492 2.289 0 3.361c-0.492 1.072-1.432 1.901-2.596 2.29l-2.369 0.632v-5.998c0-2.68-1.124-5.251-3.124-7.146s-4.713-2.96-7.541-2.96-5.541 1.065-7.541 2.96c-2 1.895-3.124 4.466-3.124 7.146l-0 3.369zM28.443 10.802v4.766c0.699-0.233 1.264-0.731 1.559-1.374s0.296-1.374 0-2.018c-0.296-0.643-0.861-1.141-1.559-1.374v0zM3.557 10.802c-0.699 0.233-1.264 0.731-1.56 1.374s-0.296 1.375 0 2.018c0.296 0.644 0.861 1.141 1.56 1.374v-4.767z"></path>
</svg>
