<!-- Generated by IcoMoon.io -->
<svg version="1.1" xmlns="http://www.w3.org/2000/svg" width="32" height="32" viewBox="0 0 32 32">
<title>customer-support-1</title>
<path d="M28.066 26.274c0.26 0 0.471-0.211 0.471-0.471v-1.33c0-3.19-2.729-4.349-2.846-4.397-0.003-0.001-0.006-0.002-0.009-0.004l-6.605-2.558v-1.6c0.512-0.382 0.95-0.858 1.287-1.403 1.437 0 2.276-1.057 2.276-2.156v-1.048c1.355-0.225 2.391-1.405 2.391-2.822 0-1.432-1.057-2.621-2.432-2.829-0.153-1.391-0.764-2.709-1.734-3.726-0.999-1.046-2.334-1.731-3.761-1.927-0.258-0.035-0.495 0.145-0.53 0.402s0.145 0.495 0.402 0.53c2.239 0.308 4.057 2.002 4.574 4.158h-0.498c-0.482 0-0.874 0.392-0.874 0.874v0.492c-0.269-0.287-0.489-0.522-0.763-0.816-0.298-0.32-0.78-0.379-1.146-0.14-1.855 1.212-4.030 1.849-6.454 1.73v-1.266c0-0.482-0.392-0.874-0.874-0.874h-0.5c0.503-2.14 2.25-3.795 4.474-4.143 0.257-0.040 0.432-0.281 0.392-0.538s-0.281-0.433-0.538-0.392c-2.871 0.45-5.062 2.757-5.376 5.634-1.375 0.208-2.432 1.397-2.432 2.829 0 1.438 1.067 2.632 2.45 2.831 0.127 0.327 0.443 0.559 0.814 0.559h0.648c0.006 1.621 0.772 3.102 2.041 4.036v1.604l-6.598 2.558c-0.003 0.001-0.006 0.002-0.009 0.003-0.116 0.048-2.846 1.207-2.846 4.397v6.462c0 0.587 0.478 1.065 1.065 1.065 0.184 0 22.594 0 22.949 0 0.584 0 1.060-0.475 1.060-1.059v-2.941c0-0.26-0.211-0.471-0.471-0.471s-0.471 0.211-0.471 0.471v2.941c0 0.065-0.053 0.118-0.118 0.118h-3.287v-5.585c0-0.26-0.211-0.471-0.471-0.471s-0.471 0.211-0.471 0.471v5.585h-4.549l-1.229-7.26 0.503-0.757 0.295 0.209c0.442 0.314 1.059 0.159 1.3-0.325l1.761-3.529 4.006 1.551c0.139 0.059 2.26 1.007 2.26 3.525v1.33c0 0.26 0.211 0.47 0.471 0.47zM22.64 6.624c0.832 0.21 1.45 0.965 1.45 1.862s-0.618 1.652-1.45 1.862v-3.724zM21.119 6.036h0.58c0 0.563 0 4.292 0 4.899h-0.58c0-0.275 0-4.733 0-4.899zM21.118 11.876h0.58v0.48c0 0.547-0.363 1.010-0.861 1.162 0.179-0.515 0.279-1.067 0.281-1.642zM9.353 10.348c-0.832-0.21-1.45-0.965-1.45-1.862s0.618-1.652 1.45-1.862v3.724zM10.874 8.13v2.805h-0.58v-0.059c0-0.413 0-4.409 0-4.84h0.58v2.094zM11.815 11.859c0-0.603 0-3.247 0-3.68 2.396 0.16 4.914-0.553 6.936-1.864 0.851 0.914 1.303 1.382 1.426 1.541 0 4.304 0.099 4.686-0.375 5.715h-2.215c-0.185-0.448-0.627-0.765-1.142-0.765h-0.592c-0.681 0-1.236 0.554-1.236 1.236s0.554 1.236 1.236 1.236h0.592c0.515 0 0.956-0.317 1.142-0.765h1.616c-0.784 0.927-1.928 1.461-3.139 1.461-0.001 0-0.001 0-0.002 0s-0.001 0-0.002 0c-2.643-0.001-4.246-2.078-4.246-4.115zM16.74 14.041c0 0.162-0.132 0.295-0.294 0.295h-0.592c-0.162 0-0.294-0.132-0.294-0.295s0.132-0.295 0.294-0.295h0.592c0.162 0 0.294 0.132 0.294 0.295zM15.998 20.31l-2.142-2.643v-1.208c0.674 0.299 1.429 0.456 2.205 0.456 0 0 0.001 0 0.001 0s0.001 0 0.001 0c0.719-0 1.427-0.154 2.072-0.445v1.202l-2.138 2.639zM15.998 21.638l1.208 0.858-0.483 0.727h-1.451l-0.483-0.727 1.208-0.858zM13.237 18.401l2.079 2.566c-0.738 0.524-2.014 1.43-2.078 1.476l-1.691-3.388 1.689-0.654zM8.751 31.059v-5.585c0-0.26-0.211-0.471-0.471-0.471s-0.471 0.211-0.471 0.471v5.585h-3.282c-0.068 0-0.124-0.055-0.124-0.124v-6.462c0-2.525 2.132-3.471 2.259-3.525l4.003-1.552 1.761 3.529c0.241 0.483 0.858 0.639 1.3 0.325l0.295-0.209 0.503 0.757-1.229 7.26-4.545 0zM17.745 31.059h-3.494l1.167-6.895h1.16l1.167 6.895zM18.758 22.444c-0.382-0.271-0.345-0.245-2.080-1.477l2.079-2.566 1.692 0.655-1.691 3.388z"></path>
</svg>
