<!-- Generated by IcoMoon.io -->
<svg version="1.1" xmlns="http://www.w3.org/2000/svg" width="28" height="28" viewBox="0 0 28 28">
<title>supply</title>
<path d="M25.131 4.403c-0.081-0.712-0.682-1.25-1.399-1.25h-19.462c-0.717 0-1.319 0.537-1.399 1.25-0.028 0.242-0.056 0.484-0.084 0.726-0.238 2.026-0.598 5.089-0.598 8.827 0 4.334 1.25 7.754 3.822 10.455 0.263 0.276 0.634 0.435 1.017 0.435h13.946c0.384 0 0.755-0.158 1.017-0.435 2.572-2.702 3.822-6.122 3.822-10.455 0-3.738-0.657-9.33-0.682-9.553zM24.071 19.929h-20.142c-0.191-0.476-0.355-0.97-0.494-1.48h15.517c0.092 0 0.18-0.036 0.245-0.101s0.101-0.153 0.101-0.245-0.036-0.18-0.101-0.245c-0.065-0.065-0.153-0.101-0.245-0.101h-15.684c-0.002-0.007-0.004-0.014-0.007-0.020-0.255-1.171-0.382-2.428-0.382-3.78 0-0.23 0.001-0.458 0.004-0.683 0-0 0-0.001 0-0.001h22.232c0 0 0 0.001 0 0.001 0.003 0.225 0.004 0.452 0.004 0.683 0 1.352-0.127 2.609-0.382 3.779-0.003 0.007-0.005 0.014-0.007 0.021h-4.395c-0.092 0-0.18 0.036-0.245 0.101s-0.101 0.153-0.101 0.245 0.036 0.18 0.101 0.245c0.065 0.065 0.153 0.101 0.245 0.101h4.228c-0.138 0.511-0.303 1.004-0.494 1.48zM23.155 21.764h-18.31c-0.225-0.37-0.43-0.752-0.615-1.144h19.539c-0.185 0.392-0.39 0.773-0.615 1.144zM3.307 6.658h21.386c0.067 0.615 0.128 1.23 0.182 1.846h-18.094c-0.092 0-0.18 0.036-0.245 0.101s-0.101 0.153-0.101 0.245 0.036 0.18 0.101 0.245c0.065 0.065 0.153 0.101 0.245 0.101h18.15c0.030 0.384 0.056 0.767 0.078 1.144h-22.020c0.023-0.376 0.049-0.759 0.078-1.144h2.328c0.092 0 0.18-0.036 0.245-0.101s0.101-0.153 0.101-0.245-0.036-0.18-0.101-0.245c-0.065-0.065-0.153-0.101-0.245-0.101h-2.272c0.054-0.616 0.114-1.232 0.182-1.846zM25.048 11.032c0.025 0.516 0.044 1.032 0.056 1.548h-22.208c0.013-0.533 0.032-1.049 0.056-1.548h22.096zM3.557 4.481c0.041-0.362 0.347-0.635 0.712-0.635h19.462c0.365 0 0.671 0.273 0.712 0.635 0.025 0.224 0.142 1.219 0.173 1.485h-21.231c0.031-0.266 0.147-1.261 0.173-1.485zM21.489 23.935c-0.133 0.14-0.321 0.22-0.516 0.22h-13.946c-0.195 0-0.383-0.080-0.516-0.22-0.446-0.469-0.85-0.961-1.213-1.478h17.405c-0.363 0.517-0.767 1.009-1.213 1.478z"></path>
<path d="M6.153 14.664c-0.065-0.065-0.153-0.101-0.245-0.101s-0.18 0.036-0.245 0.101l-0.31 0.31-0.31-0.31c-0.065-0.064-0.153-0.1-0.244-0.1s-0.179 0.037-0.244 0.101c-0.065 0.065-0.101 0.152-0.101 0.244s0.036 0.179 0.1 0.244l0.31 0.31-0.31 0.31c-0.048 0.048-0.081 0.11-0.095 0.177s-0.007 0.137 0.020 0.2c0.026 0.063 0.071 0.117 0.127 0.155s0.124 0.058 0.192 0.058c0.089 0 0.177-0.034 0.245-0.101l0.31-0.31 0.31 0.31c0.068 0.068 0.156 0.101 0.245 0.101s0.177-0.034 0.245-0.101c0.065-0.065 0.101-0.153 0.101-0.245s-0.036-0.18-0.101-0.245l-0.31-0.31 0.31-0.31c0.032-0.032 0.058-0.070 0.075-0.112s0.026-0.087 0.026-0.132-0.009-0.090-0.026-0.132c-0.017-0.042-0.043-0.080-0.075-0.112zM10.476 14.664c-0.065-0.065-0.153-0.101-0.245-0.101s-0.18 0.036-0.245 0.101l-0.31 0.31-0.31-0.31c-0.065-0.065-0.153-0.101-0.245-0.101s-0.18 0.036-0.245 0.101c-0.065 0.065-0.101 0.153-0.101 0.245s0.036 0.18 0.101 0.245l0.31 0.31-0.31 0.31c-0.048 0.048-0.081 0.11-0.095 0.177s-0.006 0.137 0.020 0.2c0.026 0.063 0.071 0.117 0.127 0.155s0.124 0.058 0.192 0.058c0.045 0 0.090-0.009 0.132-0.026s0.080-0.043 0.112-0.075l0.31-0.31 0.31 0.31c0.068 0.068 0.156 0.101 0.245 0.101s0.177-0.034 0.245-0.101c0.065-0.065 0.101-0.153 0.101-0.245s-0.036-0.18-0.101-0.245l-0.31-0.31 0.31-0.31c0.032-0.032 0.058-0.070 0.075-0.112s0.026-0.087 0.026-0.132-0.009-0.090-0.026-0.132c-0.017-0.042-0.043-0.080-0.075-0.112zM14.8 14.664c-0.065-0.065-0.153-0.101-0.245-0.101s-0.18 0.036-0.245 0.101l-0.31 0.31-0.31-0.31c-0.065-0.064-0.153-0.1-0.244-0.1s-0.179 0.037-0.244 0.101c-0.065 0.065-0.101 0.152-0.101 0.244s0.036 0.179 0.1 0.244l0.31 0.31-0.31 0.31c-0.048 0.048-0.081 0.11-0.095 0.177s-0.006 0.137 0.020 0.2c0.026 0.063 0.071 0.117 0.127 0.155s0.124 0.058 0.192 0.058c0.045 0 0.090-0.009 0.132-0.026s0.080-0.043 0.112-0.075l0.31-0.31 0.31 0.31c0.068 0.068 0.156 0.101 0.245 0.101s0.177-0.034 0.245-0.101c0.065-0.065 0.101-0.153 0.101-0.245s-0.036-0.18-0.101-0.245l-0.31-0.31 0.31-0.31c0.032-0.032 0.058-0.070 0.075-0.112s0.026-0.087 0.026-0.132-0.009-0.090-0.026-0.132c-0.017-0.042-0.043-0.080-0.075-0.112zM19.123 14.664c-0.065-0.065-0.153-0.101-0.245-0.101s-0.18 0.036-0.245 0.101l-0.31 0.31-0.31-0.31c-0.065-0.064-0.153-0.1-0.244-0.1s-0.179 0.037-0.244 0.101c-0.065 0.065-0.101 0.152-0.101 0.244s0.036 0.179 0.1 0.244l0.31 0.31-0.31 0.31c-0.048 0.048-0.081 0.11-0.095 0.177s-0.007 0.137 0.020 0.2c0.026 0.063 0.071 0.117 0.127 0.155s0.124 0.058 0.192 0.058c0.045 0 0.090-0.009 0.132-0.026s0.080-0.043 0.112-0.075l0.31-0.31 0.31 0.31c0.068 0.068 0.156 0.101 0.245 0.101s0.177-0.034 0.245-0.101c0.065-0.065 0.101-0.153 0.101-0.245s-0.036-0.18-0.101-0.245l-0.31-0.31 0.31-0.31c0.032-0.032 0.058-0.070 0.075-0.112s0.026-0.087 0.026-0.132-0.009-0.090-0.026-0.132c-0.017-0.042-0.043-0.080-0.075-0.112zM21.847 16.264c0.068 0.068 0.156 0.101 0.245 0.101s0.177-0.034 0.245-0.101l0.31-0.31 0.31 0.31c0.068 0.068 0.156 0.101 0.245 0.101s0.177-0.034 0.245-0.101c0.065-0.065 0.101-0.153 0.101-0.245s-0.036-0.18-0.101-0.245l-0.31-0.31 0.31-0.31c0.065-0.065 0.101-0.153 0.101-0.245s-0.036-0.18-0.101-0.245c-0.065-0.065-0.153-0.101-0.245-0.101s-0.18 0.036-0.245 0.101l-0.31 0.31-0.31-0.31c-0.065-0.064-0.153-0.1-0.244-0.1s-0.179 0.037-0.244 0.101c-0.065 0.065-0.101 0.152-0.101 0.244s0.036 0.179 0.1 0.244l0.31 0.31-0.31 0.31c-0.065 0.065-0.101 0.153-0.101 0.245s0.036 0.18 0.101 0.245z"></path>
</svg>
