<svg xmlns="http://www.w3.org/2000/svg" width="34" height="32"><path d="M15.923.06C11.377.458 7.307 3.047 5.056 6.97c-1.034 1.804-1.64 3.82-1.799 5.99l-.039.522-.18.059c-.355.117-1.064.58-1.459.952a4.92 4.92 0 0 0-1.527 2.909c-.107.735-.041 1.899.143 2.516.54 1.81 1.97 3.136 3.783 3.509.272.056.726.09 1.201.09h.763l.021 1.544c.019 1.431.03 1.573.152 1.941.508 1.533 1.568 2.593 3.093 3.093.386.126.468.13 3.01.151l2.613.02.077.235c.123.372.527.872.899 1.113.456.295.732.361 1.399.337.666-.024 1.013-.16 1.478-.581.545-.493.842-1.358.71-2.068a2.32 2.32 0 0 0-2.462-1.916 2.306 2.306 0 0 0-1.953 1.332l-.202.42-2.388-.027c-2.621-.029-2.678-.035-3.432-.4-.512-.247-1.157-.892-1.44-1.44-.389-.75-.375-.467-.376-7.666-.001-6.626.007-6.923.225-7.96.744-3.547 3.545-6.491 7.09-7.451 1.499-.406 3.297-.447 4.816-.112 2.299.508 4.465 1.918 5.844 3.804.454.621.629.916.971 1.634.368.775.559 1.33.76 2.21l.148.652.032 5.355c.033 5.675.024 5.499.299 5.692.175.122 2.292.126 2.859.005 1.727-.367 3.106-1.54 3.684-3.133.125-.344.131-.428.13-1.986l-.001-1.627-.192-.466c-.465-1.129-1.446-2.143-2.54-2.626l-.311-.137-.036-.557a13.769 13.769 0 0 0-4-8.814C25.059 2.227 22.622.889 20.113.349c-1.317-.283-2.962-.397-4.19-.289m3.315 1.237c4.116.738 7.495 3.299 9.293 7.043.579 1.206 1.054 2.907 1.136 4.07.018.265.045.539.059.609.026.127.024.128-.733.128h-.76l-.038-.383c-.474-4.727-3.78-8.587-8.362-9.762-1.146-.294-2.72-.412-3.848-.289-3.282.361-6.092 2.004-8.038 4.7-.409.567-1.186 2.094-1.403 2.759-.243.745-.415 1.49-.507 2.198-.048.368-.087.693-.087.723 0 .031-.317.054-.757.054h-.756l.023-.298c.087-1.116.311-2.223.652-3.216 1.495-4.346 5.309-7.581 9.82-8.327.992-.164.966-.162 2.351-.146 1.005.012 1.419.041 1.955.137M5.95 18.338v4.001l-.892-.024c-.793-.022-.941-.042-1.317-.178a3.52 3.52 0 0 1-1.447-.92 3.344 3.344 0 0 1-.634-.85c-.378-.727-.439-1.005-.441-1.979-.001-.982.055-1.266.381-1.955.424-.893 1.39-1.697 2.34-1.948.273-.072.288-.07.383.056.2.265.736.223.93-.071.073-.113.134-.133.392-.133h.305v4.001m24.055-3.917c.218.046.631.199.917.34.897.443 1.53 1.175 1.864 2.155.205.603.257 1.694.113 2.402a3.69 3.69 0 0 1-2.48 2.814c-.414.138-.463.144-.51.06a.647.647 0 0 0-.225-.182.554.554 0 0 0-.692.149c-.122.145-.18.168-.428.168h-.287v-7.99l.665.001c.367 0 .845.038 1.063.083m-.962.561c-.156.125-.17.168-.19.567-.025.491.042.65.34.804.149.077.215.082.399.027.332-.1.452-.329.428-.817-.018-.356-.035-.404-.202-.553-.235-.21-.534-.221-.775-.028m-24.579.633c-.218.118-.271.248-.271.67 0 .453.074.627.314.741.233.11.329.11.544-.001.21-.109.332-.384.332-.746 0-.585-.457-.915-.919-.664m24.55 1.772c-.318.318-.279 1.018.07 1.277.234.173.527.144.745-.073.166-.167.176-.201.176-.605 0-.412-.007-.435-.185-.594-.256-.229-.58-.231-.806-.005m-24.645.684c-.166.156-.176.187-.176.591 0 .373.018.447.144.596.181.216.406.267.674.156.276-.115.393-.392.36-.848-.021-.291-.049-.358-.205-.498-.251-.224-.555-.223-.797.003m24.653 1.678c-.304.256-.308.928-.006 1.229a.577.577 0 0 0 .751.044c.32-.251.356-.945.065-1.248-.214-.224-.56-.234-.81-.025m-24.663.703c-.153.153-.166.198-.166.583 0 .472.079.636.362.754.228.096.45.051.627-.127.166-.165.227-.428.186-.796-.061-.538-.645-.778-1.009-.414m13.354 8.296c.573.382.682 1.154.234 1.663-.555.633-1.481.518-1.865-.231-.173-.338-.126-.863.102-1.15.386-.485 1.041-.606 1.529-.282" fill-rule="evenodd"/></svg>