<!-- Generated by IcoMoon.io -->
<svg version="1.1" xmlns="http://www.w3.org/2000/svg" width="32" height="32" viewBox="0 0 32 32">
<title>sustainable</title>
<path d="M23.965 29.15c-1.591 0.798-3.252 1.294-4.999 1.452-3.33 0.3-6.426-0.432-9.237-2.292-2.876-1.903-4.829-4.538-5.904-7.847-0.049-0.15-0.123-0.223-0.268-0.256-2.212-0.514-3.368-2.543-3.533-4.312-0.134-1.435 0.326-2.696 1.081-3.864 0.97-1.501 2.274-2.663 3.708-3.684 0.309-0.22 0.628-0.428 0.951-0.625 0.416-0.254 0.815-0.054 0.84 0.44 0.088 1.727 0.654 3.311 1.372 4.851 0.408 0.874 0.703 1.783 0.757 2.754 0.123 2.192-1.283 4.055-3.344 4.476-0.543 0.111-0.545 0.103-0.346 0.626 0.138 0.363 0.139 0.377 0.521 0.355 2.070-0.122 3.862-1.514 4.373-3.761 0.282-1.241 0.014-2.428-0.408-3.591-0.4-1.104-0.943-2.147-1.357-3.245-0.29-0.769-0.559-1.542-0.601-2.381-0.068-1.34 0.326-2.519 1.13-3.568 0.503-0.657 1.156-1.123 1.866-1.519 1.653-0.92 3.408-1.52 5.286-1.724 4.098-0.447 7.767 0.622 10.946 3.297 2.616 2.201 4.231 5.033 4.922 8.411 0.261 1.276 0.335 2.573 0.237 3.865-0.297 3.922-1.883 7.225-4.731 9.888-0.972 0.909-2.062 1.652-3.262 2.257zM18.298 10.819c0.39-0.22 0.803-0.352 1.248-0.407 0.657-0.083 1.301 0.043 1.951 0.086 0.434 0.029 0.847-0.021 1.236-0.224 0.587-0.306 0.712-0.672 0.436-1.279-0.132-0.29-0.287-0.571-0.398-0.869-0.341-0.919 0.056-1.724 0.979-2.020 0.379-0.121 0.771-0.143 1.164-0.156 0.328-0.011 0.64-0.076 0.887-0.326 0.193-0.196 0.192-0.236-0.024-0.406-1.122-0.885-2.352-1.57-3.686-2.059-0.233-0.085-0.462-0.193-0.72-0.214-0.016 0.040-0.030 0.069-0.037 0.099-0.013 0.054-0.021 0.109-0.032 0.164-0.155 0.771-0.498 1.435-1.118 1.919-1.423 1.11-3.035 1.445-4.786 1.163-0.504-0.081-0.995-0.228-1.503-0.293-0.619-0.079-1.030 0.186-1.179 0.796-0.064 0.263-0.101 0.533-0.148 0.8-0.096 0.554-0.201 1.106-0.587 1.544-0.589 0.665-1.357 0.746-2.167 0.663-0.29-0.029-0.577-0.082-0.866-0.124-0.016 0.118 0.032 0.187 0.059 0.26 0.386 1.075 0.905 2.093 1.322 3.155 0.374 0.954 0.674 1.928 0.728 2.962 0.008 0.16 0.091 0.198 0.218 0.226 0.419 0.095 0.811 0.255 1.158 0.517 0.885 0.668 1.016 1.735 0.321 2.605-0.372 0.464-0.863 0.762-1.384 1.017-0.383 0.187-0.769 0.37-1.098 0.65-0.374 0.318-0.476 0.691-0.319 1.159 0.064 0.19 0.156 0.367 0.259 0.538 0.311 0.519 0.665 1.011 0.922 1.563 0.401 0.865 0.608 1.761 0.447 2.721-0.056 0.333-0.191 0.639-0.326 0.965 0.408 0.245 0.824 0.435 1.267 0.605 0.116-0.377 0.208-0.732 0.335-1.073 0.357-0.96 1.155-1.502 2.163-1.524 0.768-0.016 1.476 0.211 2.162 0.518 0.839 0.376 1.698 0.619 2.627 0.546 0.297-0.023 0.598-0.014 0.897-0.001 0.946 0.040 1.792 0.333 2.45 1.058 0.139 0.153 0.253 0.133 0.41 0.049 3.295-1.743 5.559-4.387 6.747-7.974 0.029-0.087 0.082-0.174 0.048-0.268-0.052-0.047-0.109-0.038-0.163-0.040-1.316-0.056-2.463-0.532-3.444-1.425-0.24-0.219-0.462-0.46-0.715-0.661-0.4-0.318-0.753-0.247-1.037 0.182-0.079 0.12-0.135 0.253-0.175 0.392-0.090 0.308-0.13 0.624-0.168 0.942-0.107 0.9-0.271 1.788-0.647 2.616-0.696 1.534-1.765 2.591-3.502 2.772-0.742 0.077-1.44-0.312-1.756-0.999-0.258-0.559-0.274-1.142-0.133-1.734 0.157-0.657 0.518-1.216 0.853-1.784 0.416-0.707 0.602-1.462 0.455-2.275-0.235-1.301-0.932-2.225-2.174-2.703-1.049-0.404-1.221-1.106-1.072-2.070 0.158-1.024 0.727-1.787 1.62-2.345zM28.562 18.473c0.588 0.27 1.202 0.412 1.851 0.405 0.193-0.002 0.273-0.062 0.312-0.26 0.288-1.497 0.327-3.002 0.121-4.508-0.329-2.403-1.231-4.568-2.694-6.486-0.414-0.543-0.863-1.054-1.363-1.517-0.035 0.021-0.059 0.029-0.073 0.046-0.503 0.629-1.177 0.843-1.946 0.842-0.243 0-0.488 0.027-0.721 0.106-0.355 0.12-0.458 0.335-0.314 0.684 0.128 0.309 0.286 0.605 0.42 0.912 0.331 0.756 0.219 1.47-0.323 2.040-0.36 0.379-0.81 0.596-1.31 0.719-0.753 0.186-1.506 0.051-2.251-0.030-1.202-0.132-2.355 0.648-2.576 1.853-0.133 0.726-0.029 0.807 0.53 1.035 0.044 0.017 0.088 0.034 0.132 0.052 1.879 0.766 2.964 2.952 2.54 5.020-0.143 0.696-0.509 1.286-0.852 1.887-0.202 0.353-0.391 0.712-0.47 1.119-0.172 0.88 0.269 1.394 1.096 1.275 0.031-0.004 0.061-0.013 0.092-0.020 0.859-0.189 1.48-0.718 1.953-1.441 0.576-0.882 0.79-1.887 0.918-2.918 0.065-0.523 0.119-1.050 0.339-1.536 0.487-1.079 1.675-1.632 2.771-0.69 0.198 0.17 0.388 0.351 0.573 0.536 0.356 0.358 0.76 0.645 1.246 0.874zM1.005 15.537c0.014 0.111 0.026 0.222 0.040 0.333 0.138 1.056 0.573 1.954 1.38 2.647 0.283 0.243 0.601 0.426 0.957 0.543 0.020-0.041 0.038-0.061 0.039-0.081 0.001-0.048-0.001-0.096-0.010-0.143-0.207-1.039-0.297-2.088-0.264-3.147 0.007-0.221-0.064-0.384-0.208-0.534-0.254-0.265-0.54-0.49-0.844-0.69-0.317-0.209-0.409-0.494-0.243-0.769 0.163-0.271 0.468-0.32 0.782-0.116 0.203 0.131 0.399 0.275 0.588 0.407 0.063-0.034 0.057-0.077 0.064-0.115 0.084-0.439 0.155-0.881 0.256-1.315 0.068-0.292 0.331-0.445 0.591-0.384 0.291 0.068 0.467 0.33 0.395 0.635-0.189 0.795-0.298 1.601-0.348 2.415-0.024 0.385-0.004 0.773-0.004 1.203 0.113-0.072 0.185-0.118 0.257-0.164 0.382-0.244 0.784-0.443 1.225-0.547 0.331-0.079 0.604 0.065 0.679 0.349 0.083 0.313-0.071 0.563-0.419 0.654-0.595 0.156-1.085 0.496-1.548 0.887-0.070 0.059-0.113 0.124-0.093 0.228 0.070 0.368 0.124 0.74 0.199 1.107 0.072 0.355 0.080 0.355 0.442 0.32 1.59-0.154 2.932-1.608 2.794-3.495-0.058-0.79-0.293-1.535-0.632-2.247-0.581-1.221-1.046-2.483-1.317-3.815-0.042-0.206-0.038-0.426-0.145-0.633-0.060 0.032-0.111 0.052-0.154 0.082-1.334 0.942-2.549 2.010-3.468 3.39-0.593 0.89-0.979 1.858-0.991 2.996zM16.179 2.43c-0.086 0.013-0.171 0.029-0.256 0.039-1.88 0.22-3.632 0.831-5.241 1.834-1.426 0.889-2.158 2.191-2.089 3.922 0.007 0.173 0.074 0.26 0.229 0.31 0.49 0.16 0.988 0.258 1.504 0.251 0.654-0.009 0.972-0.241 1.134-0.889 0.1-0.401 0.151-0.815 0.231-1.221 0.206-1.050 0.843-1.647 1.865-1.717 0.506-0.034 1 0.082 1.489 0.202 1.435 0.351 2.807 0.221 4.095-0.553 0.637-0.383 1.047-0.929 1.175-1.682 0.030-0.178 0.008-0.282-0.198-0.32-0.588-0.108-1.179-0.197-1.775-0.22-0.707-0.027-1.415-0.034-2.164 0.044zM6.971 24.348c0.943 1.234 2.056 2.276 3.368 3.126 0.172-0.282 0.242-0.564 0.265-0.86 0.064-0.843-0.228-1.586-0.635-2.292-0.238-0.414-0.508-0.808-0.745-1.222-0.244-0.427-0.389-0.888-0.368-1.393 0.012-0.276 0.115-0.529 0.229-0.847-1.016 0.858-2.138 1.288-3.398 1.408 0.028 0.078 0.038 0.124 0.059 0.164 0.353 0.661 0.751 1.293 1.224 1.917zM16.873 27.535c-0.603-0.259-1.207-0.511-1.882-0.47-0.55 0.034-0.959 0.274-1.171 0.814-0.102 0.261-0.172 0.531-0.239 0.802-0.078 0.315-0.079 0.318 0.226 0.407 1.548 0.454 3.124 0.622 4.733 0.503 1.192-0.088 2.348-0.331 3.473-0.734 0.082-0.030 0.191-0.029 0.235-0.155-0.27-0.239-0.579-0.4-0.928-0.489-0.504-0.129-1.017-0.113-1.525-0.087-1.013 0.051-1.968-0.158-2.92-0.591zM11.006 19.444c0.374-0.19 0.73-0.407 0.994-0.749 0.227-0.295 0.234-0.645 0.006-0.898-0.259-0.287-0.597-0.422-0.989-0.505-0.166 0.995-0.539 1.887-1.099 2.704 0.36-0.181 0.698-0.38 1.088-0.553z"></path>
</svg>
