<!-- Generated by IcoMoon.io -->
<svg version="1.1" xmlns="http://www.w3.org/2000/svg" width="28" height="28" viewBox="0 0 28 28">
<title>sustainable</title>
<path d="M17.989 12.952c0.181 0.012 0.337-0.125 0.349-0.305 0.092-1.373 0.177-4.474-0.637-7.244-0.407-1.387-1.047-2.716-2.047-3.701-1.008-0.993-2.365-1.62-4.16-1.62-1.779 0-3.128 0.615-4.134 1.594-0.997 0.971-1.64 2.282-2.051 3.655-0.822 2.741-0.754 5.825-0.663 7.243 0.012 0.181 0.168 0.318 0.348 0.307s0.318-0.168 0.307-0.348c-0.089-1.398-0.151-4.386 0.637-7.013 0.393-1.311 0.991-2.507 1.88-3.373 0.881-0.858 2.065-1.408 3.676-1.408 1.625 0 2.815 0.56 3.699 1.431 0.892 0.879 1.488 2.093 1.878 3.419 0.78 2.656 0.703 5.662 0.612 7.015-0.012 0.181 0.125 0.337 0.305 0.349z"></path>
<path d="M22.999 12.952c0.181 0.012 0.337-0.125 0.349-0.305 0.097-1.44 0.186-4.817-0.768-7.679-0.057-0.172-0.243-0.265-0.415-0.208s-0.265 0.243-0.208 0.415c0.911 2.735 0.831 6.004 0.735 7.428-0.012 0.181 0.125 0.337 0.305 0.349z"></path>
<path d="M10.008 12.913c0.181-0.012 0.318-0.168 0.306-0.349-0.090-1.378-0.159-4.375 0.626-7.014 0.392-1.318 0.989-2.522 1.879-3.394 0.882-0.864 2.069-1.418 3.686-1.418 2.301 0 3.753 1.12 4.682 2.704 0.092 0.156 0.293 0.209 0.449 0.117s0.209-0.293 0.117-0.449c-1.028-1.75-2.677-3.028-5.248-3.028-1.786 0-3.139 0.62-4.145 1.606-0.998 0.977-1.639 2.297-2.049 3.676-0.818 2.754-0.743 5.846-0.651 7.244 0.012 0.181 0.168 0.318 0.349 0.306z"></path>
<path d="M3.172 15.422c0 0.483 0.392 0.875 0.875 0.875h19.906c0.483 0 0.875-0.392 0.875-0.875v-2.188c0-0.483-0.392-0.875-0.875-0.875h-14.997c-0.181 0-0.328 0.147-0.328 0.328s0.147 0.328 0.328 0.328h14.997c0.121 0 0.219 0.098 0.219 0.219v2.188c0 0.121-0.098 0.219-0.219 0.219h-19.906c-0.121 0-0.219-0.098-0.219-0.219v-2.188c0-0.121 0.098-0.219 0.219-0.219h3.008c0.181 0 0.328-0.147 0.328-0.328s-0.147-0.328-0.328-0.328h-3.008c-0.483 0-0.875 0.392-0.875 0.875v2.188z"></path>
<path d="M6.904 22.437c0.128-0.128 0.128-0.336 0-0.464l-2.259-2.259c-0.128-0.128-0.336-0.128-0.464 0s-0.128 0.336 0 0.464l2.259 2.259c0.128 0.128 0.336 0.128 0.464 0z"></path>
<path d="M11.912 27.445c0.128-0.128 0.128-0.336 0-0.464l-2.558-2.558c-0.128-0.128-0.336-0.128-0.464 0s-0.128 0.336 0 0.464l2.558 2.558c0.128 0.128 0.336 0.128 0.464 0z"></path>
<path d="M14.232 25.125c0.128-0.128 0.128-0.336 0-0.464l-2.544-2.544c-0.128-0.128-0.336-0.128-0.464 0s-0.128 0.336 0 0.464l2.544 2.544c0.128 0.128 0.336 0.128 0.464 0z"></path>
<path d="M9.235 20.128c0.128-0.128 0.128-0.336 0-0.464l-3.897-3.897c-0.128-0.128-0.336-0.128-0.464 0s-0.128 0.336 0 0.464l3.897 3.897c0.128 0.128 0.336 0.128 0.464-0z"></path>
<path d="M11.123 27.77c0.128 0.128 0.336 0.128 0.464 0l5.156-5.156c0.128-0.128 0.128-0.336 0-0.464s-0.336-0.128-0.464 0l-5.156 5.156c-0.128 0.128-0.128 0.336 0 0.464z"></path>
<path d="M15.763 27.77c0.128 0.128 0.336 0.128 0.464 0l2.861-2.861c0.128-0.128 0.128-0.336-0-0.464s-0.336-0.128-0.464 0l-2.861 2.861c-0.128 0.128-0.128 0.336-0 0.464z"></path>
<path d="M21.101 22.433c0.128 0.128 0.336 0.128 0.464 0l2.284-2.285c0.128-0.128 0.128-0.336 0-0.464s-0.336-0.128-0.464 0l-2.284 2.285c-0.128 0.128-0.128 0.336 0 0.464z"></path>
<path d="M18.775 20.118c0.128 0.128 0.336 0.128 0.464 0l3.89-3.89c0.128-0.128 0.128-0.336 0-0.464s-0.336-0.128-0.464 0l-3.89 3.89c-0.128 0.128-0.128 0.336 0 0.464z"></path>
<path d="M19.821 25.473c0.128-0.128 0.128-0.336 0-0.464l-5.476-5.476c-0.128-0.128-0.336-0.128-0.464 0s-0.128 0.336 0 0.464l5.476 5.476c0.128 0.128 0.336 0.128 0.464 0z"></path>
<path d="M21.902 27.554c0.128-0.128 0.128-0.336 0-0.464l-0.718-0.718c-0.128-0.128-0.336-0.128-0.464 0s-0.128 0.336 0 0.464l0.718 0.718c0.128 0.128 0.336 0.128 0.464 0z"></path>
<path d="M23.818 24.83c0.128-0.128 0.128-0.336 0-0.464l-7.173-7.173c-0.128-0.128-0.336-0.128-0.464 0s-0.128 0.336 0 0.464l7.173 7.173c0.128 0.128 0.336 0.128 0.464 0z"></path>
<path d="M11.849 17.502c0.128-0.128 0.128-0.336 0-0.464l-1.237-1.237c-0.128-0.128-0.336-0.128-0.464 0s-0.128 0.336 0 0.464l1.237 1.237c0.128 0.128 0.336 0.128 0.464 0z"></path>
<path d="M6.077 27.575c0.128 0.128 0.336 0.128 0.464 0l11.374-11.374c0.094-0.094 0.122-0.235 0.071-0.358s-0.17-0.203-0.303-0.203h-4.64c-0.087 0-0.17 0.035-0.232 0.096l-8.631 8.631c-0.128 0.128-0.128 0.336 0 0.464s0.336 0.128 0.464 0l8.535-8.535h3.712l-10.814 10.814c-0.128 0.128-0.128 0.336 0 0.464z"></path>
<path d="M4.047 24.549c0 1.861 1.509 3.369 3.369 3.369h13.168c1.861 0 3.369-1.508 3.369-3.369v-8.58c0-0.181-0.147-0.328-0.328-0.328h-19.25c-0.181 0-0.328 0.147-0.328 0.328v8.58zM7.416 27.262c-1.498 0-2.713-1.215-2.713-2.713v-8.252h18.594v8.252c0 1.498-1.215 2.713-2.713 2.713h-13.168z"></path>
</svg>
