<!-- Generated by IcoMoon.io -->
<svg version="1.1" xmlns="http://www.w3.org/2000/svg" width="32" height="32" viewBox="0 0 32 32">
<title>tag</title>
<path d="M10.715 18.667c0.589 0 1.067 0.478 1.067 1.067 0 0.294 0.239 0.533 0.533 0.533s0.533-0.239 0.533-0.533c-0.004-0.97-0.661-1.815-1.6-2.058v-0.609c0-0.295-0.239-0.533-0.533-0.533s-0.533 0.239-0.533 0.533v0.609c-1.039 0.267-1.717 1.266-1.581 2.33s1.042 1.862 2.115 1.86c0.589 0 1.067 0.478 1.067 1.067s-0.477 1.067-1.067 1.067c-0.589 0-1.067-0.478-1.067-1.067 0-0.295-0.239-0.533-0.533-0.533s-0.533 0.239-0.533 0.533c0.004 0.97 0.661 1.815 1.6 2.057v0.609c0 0.294 0.239 0.533 0.533 0.533s0.533-0.239 0.533-0.533v-0.608c1.042-0.265 1.723-1.265 1.588-2.332s-1.046-1.865-2.121-1.86c-0.589 0-1.067-0.478-1.067-1.067s0.478-1.067 1.067-1.067z"></path>
<path d="M12.315 13.334h-3.2c-0.295 0-0.533 0.239-0.533 0.533s0.239 0.533 0.533 0.533h3.2c0.295 0 0.533-0.239 0.533-0.533s-0.239-0.533-0.533-0.533z"></path>
<path d="M12.315 28.267h-3.2c-0.295 0-0.533 0.239-0.533 0.533s0.239 0.533 0.533 0.533h3.2c0.295 0 0.533-0.239 0.533-0.533s-0.239-0.533-0.533-0.533z"></path>
<path d="M29.271 20.534l-7.83-13.56c0.482-0.478 0.908-1.009 1.27-1.583 0.889-1.44 1.048-2.807 0.447-3.848-1.196-2.072-4.974-2.055-8.6 0.038-0.482 0.282-0.944 0.594-1.386 0.935l-0.43-0.489c-0.513-0.581-1.251-0.915-2.027-0.915-0.775 0.001-1.513 0.334-2.027 0.915l-5.83 6.607c-0.436 0.494-0.677 1.13-0.676 1.789v16.777c0.003 2.65 2.15 4.797 4.8 4.8h7.467c2.65-0.003 4.797-2.15 4.8-4.8v-16.777c-0.001-0.514-0.149-1.017-0.427-1.449h0.004c0.638-0.369 1.243-0.791 1.809-1.262l7.712 13.355c1.032 1.786 0.42 4.069-1.366 5.101l-6.466 3.733c-0.284 0.162-0.589 0.287-0.907 0.369-0.285 0.076-0.454 0.368-0.378 0.653s0.368 0.454 0.653 0.378c0.407-0.107 0.798-0.267 1.163-0.476l6.466-3.733c2.297-1.325 3.085-4.261 1.759-6.558zM18.181 27.2c-0.002 2.061-1.672 3.731-3.733 3.733h-7.466c-2.061-0.002-3.731-1.672-3.733-3.733v-16.777c0-0.399 0.146-0.784 0.41-1.083l5.83-6.606c0.31-0.352 0.757-0.554 1.227-0.555s0.916 0.202 1.227 0.555l5.201 5.895c-1.189 0.561-2.489 0.849-3.803 0.844 0.024-0.134 0.038-0.269 0.041-0.405-0.002-1.472-1.194-2.665-2.667-2.667-0.059 0.002-0.116 0.014-0.171 0.035-0.269-0.033-0.519 0.143-0.579 0.407-0.19 0.729-0.097 1.503 0.261 2.166 0.354 0.587 0.906 1.029 1.556 1.247-0.467 0.427-1.143 0.536-1.721 0.278s-0.949-0.833-0.945-1.466c0-0.294-0.239-0.533-0.533-0.533s-0.533 0.239-0.533 0.533c-0.001 1.182 0.777 2.224 1.911 2.558s2.353-0.12 2.992-1.115c0.21 0.022 0.421 0.034 0.632 0.035 1.489-0.045 2.95-0.413 4.283-1.078 0.203 0.278 0.314 0.612 0.315 0.956v16.777zM12.315 9.067c-0.002 0.078-0.010 0.156-0.023 0.233-0.471-0.122-0.878-0.417-1.142-0.826-0.165-0.3-0.235-0.643-0.203-0.984 0.783 0.115 1.365 0.785 1.368 1.576zM18.292 8.045c-0.053 0.031-0.106 0.058-0.16 0.088l-4.251-4.818c0.387-0.293 0.791-0.563 1.211-0.808 3.004-1.735 6.276-1.931 7.142-0.427 0.396 0.685 0.243 1.664-0.43 2.755-0.266 0.423-0.573 0.819-0.917 1.182l-0.005-0.010c-0.329-0.571-0.855-1.001-1.48-1.211l-2.088-0.706c-0.276-0.084-0.569 0.067-0.661 0.34s0.050 0.571 0.321 0.671l2.088 0.702c0.378 0.127 0.696 0.388 0.896 0.733l0.136 0.235c-0.56 0.48-1.163 0.906-1.802 1.275v-0.002z"></path>
<path d="M20.386 21.497c0.147 0.255 0.473 0.342 0.728 0.195l3.695-2.133c0.166-0.095 0.269-0.271 0.27-0.463s-0.102-0.368-0.268-0.463c-0.166-0.095-0.37-0.095-0.535 0.002l-3.695 2.133c-0.255 0.147-0.342 0.473-0.195 0.729z"></path>
<path d="M21.062 24.8c0.147 0.255 0.473 0.343 0.728 0.196l4.619-2.667c0.255-0.147 0.343-0.473 0.195-0.729s-0.473-0.343-0.729-0.196l-4.619 2.667c-0.255 0.147-0.342 0.473-0.195 0.729z"></path>
<path d="M21.363 18.388c0.093 0 0.185-0.025 0.267-0.072l1.847-1.067c0.166-0.095 0.269-0.271 0.27-0.463s-0.102-0.368-0.268-0.463c-0.166-0.095-0.37-0.095-0.535 0.002l-1.847 1.067c-0.209 0.121-0.311 0.367-0.248 0.6s0.274 0.395 0.515 0.395z"></path>
</svg>
