<!-- Generated by IcoMoon.io -->
<svg version="1.1" xmlns="http://www.w3.org/2000/svg" width="32" height="32" viewBox="0 0 32 32">
<title>telephone</title>
<path d="M27 9c0 0.276-0.224 0.5-0.5 0.5s-0.5-0.224-0.5-0.5c0-0.276 0.224-0.5 0.5-0.5s0.5 0.224 0.5 0.5z"></path>
<path d="M23.5 9c0 0.276-0.224 0.5-0.5 0.5s-0.5-0.224-0.5-0.5c0-0.276 0.224-0.5 0.5-0.5s0.5 0.224 0.5 0.5z"></path>
<path d="M20.5 9c0 0.276-0.224 0.5-0.5 0.5s-0.5-0.224-0.5-0.5c0-0.276 0.224-0.5 0.5-0.5s0.5 0.224 0.5 0.5z"></path>
<path d="M23.25 2.5c-3.446 0-6.25 2.795-6.25 6.231 0 1.246 0.368 2.441 1.068 3.472l-1.041 3.113c-0.067 0.199-0.006 0.419 0.153 0.556s0.386 0.166 0.574 0.072l3.013-1.502c0.791 0.344 1.625 0.518 2.483 0.518 3.446 0 6.25-2.795 6.25-6.231s-2.804-6.231-6.25-6.231zM23.25 13.923c-0.785 0-1.547-0.176-2.266-0.523-0.145-0.070-0.316-0.069-0.46 0.003l-2.112 1.053 0.727-2.173c0.054-0.161 0.026-0.337-0.075-0.473-0.669-0.901-1.022-1.966-1.022-3.079 0-2.863 2.336-5.192 5.208-5.192s5.208 2.329 5.208 5.192-2.336 5.192-5.208 5.192z"></path>
<path d="M13 19.5c0 0.276-0.224 0.5-0.5 0.5s-0.5-0.224-0.5-0.5c0-0.276 0.224-0.5 0.5-0.5s0.5 0.224 0.5 0.5z"></path>
<path d="M20.683 19.224c-0.205-0.204-0.537-0.204-0.741 0l-2.513 2.508c-0.357 0.356-0.907 0.429-1.309 0.173-0.577-0.368-1.141-0.77-1.676-1.196-0.226-0.18-0.556-0.142-0.737 0.084s-0.143 0.555 0.084 0.735c0.563 0.448 1.157 0.871 1.765 1.259 0.813 0.519 1.913 0.386 2.615-0.315l2.142-2.138 4.922 4.914-1.939 1.936c-1.252 1.25-3.135 1.62-4.685 0.92-8.245-3.72-12.535-10.026-14.682-14.662-0.737-1.592-0.383-3.509 0.881-4.771l1.91-1.908 4.922 4.914-2.142 2.138c-0.702 0.701-0.834 1.799-0.315 2.611 0.371 0.579 0.774 1.147 1.2 1.686 0.179 0.227 0.509 0.266 0.736 0.087s0.267-0.508 0.087-0.735c-0.405-0.512-0.788-1.051-1.14-1.602-0.257-0.401-0.184-0.951 0.173-1.307l2.512-2.508c0.205-0.204 0.205-0.536 0-0.74l-5.664-5.654c-0.205-0.204-0.537-0.204-0.741 0l-2.281 2.278c-1.574 1.571-2.012 3.962-1.091 5.951 3.057 6.6 8.238 12.034 15.202 15.176 1.957 0.883 4.309 0.413 5.858-1.134l2.31-2.306c0.204-0.204 0.205-0.536 0-0.74l-5.664-5.654z"></path>
</svg>
