<!-- Generated by IcoMoon.io -->
<svg version="1.1" xmlns="http://www.w3.org/2000/svg" width="32" height="32" viewBox="0 0 32 32">
<title>text</title>
<path d="M30.56 17.5l-1.371-1.371c-0.098-0.098-0.23-0.153-0.369-0.153s-0.271 0.055-0.369 0.153l-0.394 0.394-0.664-0.665c-0.279-0.279-0.473-0.623-0.531-0.944-0.183-1.009-1.053-1.958-2.069-2.257l-5.55-1.631v-4.27c0-0.288-0.233-0.521-0.521-0.521h-3.659c-0.288 0-0.521 0.233-0.521 0.521v18.485c0 0.288 0.233 0.521 0.521 0.521h3.83v3.194h-8.275c-0.288 0-0.521 0.233-0.521 0.521s0.233 0.521 0.521 0.521h8.796c0.288 0 0.521-0.233 0.521-0.521v-4.236c0-0.288-0.233-0.521-0.521-0.521h-3.83v-17.443h2.616v4.139c0 0.002 0 0.003 0 0.005 0 0.005 0.001 0.010 0.001 0.014 0.001 0.017 0.002 0.034 0.004 0.050 0.001 0.006 0.002 0.011 0.003 0.017 0.003 0.019 0.007 0.037 0.012 0.056 0 0.002 0.001 0.004 0.001 0.005l0.001 0.005c0 0.002 0.001 0.003 0.001 0.005l1.738 5.915c0.299 1.016 1.248 1.887 2.257 2.069 0.32 0.058 0.665 0.252 0.944 0.531l0.665 0.665-0.394 0.394c-0.204 0.204-0.204 0.534 0 0.737l1.371 1.371c0.098 0.098 0.23 0.153 0.369 0.153s0.271-0.055 0.369-0.153l5.018-5.018c0.098-0.098 0.153-0.23 0.153-0.369s-0.055-0.271-0.153-0.369zM22.405 18.532c-0.621-0.113-1.255-0.7-1.442-1.338l-1.165-3.964 2.089 2.090c-0.085 0.188-0.131 0.393-0.131 0.606 0 0.394 0.153 0.764 0.432 1.042s0.649 0.432 1.042 0.432c0.394 0 0.764-0.153 1.042-0.432s0.432-0.649 0.432-1.042c0-0.394-0.153-0.764-0.432-1.042s-0.649-0.432-1.042-0.432c-0.213 0-0.418 0.046-0.606 0.131l-2.089-2.089 3.964 1.165c0.637 0.187 1.225 0.821 1.338 1.442 0.096 0.532 0.388 1.063 0.82 1.495l0.665 0.664-2.756 2.756-0.664-0.664c-0.432-0.432-0.963-0.723-1.495-0.82zM22.799 15.926c0-0.115 0.045-0.224 0.126-0.305s0.19-0.126 0.305-0.126c0.115 0 0.224 0.045 0.305 0.126s0.126 0.19 0.126 0.305c0 0.115-0.045 0.224-0.126 0.305s-0.19 0.126-0.305 0.126-0.224-0.045-0.305-0.126c-0.082-0.081-0.126-0.19-0.126-0.305zM25.174 22.15l-0.634-0.634 4.281-4.281 0.634 0.634-4.281 4.281z"></path>
<path d="M22.958 2h-21.104c-0.288 0-0.521 0.233-0.521 0.521v8.896c0 0.288 0.233 0.521 0.521 0.521h4.236c0.288 0 0.521-0.233 0.521-0.521v-4.138h2.655v17.443h-3.869c-0.288 0-0.521 0.233-0.521 0.521v4.236c0 0.288 0.233 0.521 0.521 0.521h2.581c0.288 0 0.521-0.233 0.521-0.521s-0.233-0.521-0.521-0.521h-2.060v-3.194h3.869c0.288 0 0.521-0.233 0.521-0.521v-18.485c0-0.288-0.233-0.521-0.521-0.521h-3.697c-0.288 0-0.521 0.233-0.521 0.521v4.138h-3.194v-7.853h20.061v1.572c0 0.288 0.233 0.521 0.521 0.521s0.521-0.233 0.521-0.521v-2.094c-0-0.288-0.233-0.521-0.521-0.521z"></path>
</svg>
