<!-- Generated by IcoMoon.io -->
<svg version="1.1" xmlns="http://www.w3.org/2000/svg" width="32" height="32" viewBox="0 0 32 32">
<title>top-brand-1</title>
<path d="M16.001 3.751c-1.469 0-2.877 0.331-4.185 0.984-0.309 0.154-0.434 0.53-0.28 0.838s0.53 0.434 0.838 0.28c5.249-2.73 11.85 1.347 11.75 7.272 0 4.48-3.645 8.124-8.124 8.124-5.924 0.099-10.003-6.502-7.272-11.75 0.154-0.309 0.029-0.684-0.28-0.838s-0.684-0.029-0.838 0.28c-3.151 6.057 1.554 13.673 8.39 13.559 12.419-0.471 12.417-18.279 0-18.749z"></path>
<path d="M28.88 15.151c-0.36-1.402-0.36-2.65 0-4.051 0.23-1.036 0.446-2.014-0.077-3.278s-1.368-1.802-2.263-2.372c-0.532-0.339-1.082-0.689-1.628-1.236s-0.897-1.096-1.236-1.628c-0.57-0.895-1.109-1.74-2.372-2.263-2.053-0.837-3.312 0.219-5.303 0.201-1.991 0.018-3.25-1.038-5.303-0.201-1.263 0.523-1.802 1.369-2.372 2.263-0.339 0.532-0.689 1.082-1.236 1.628s-1.097 0.897-1.628 1.236c-0.895 0.57-1.74 1.109-2.263 2.372s-0.306 2.242-0.077 3.278c0.36 1.401 0.36 2.65-0 4.051-0.23 1.036-0.446 2.014 0.077 3.278s1.369 1.802 2.263 2.372c0.532 0.339 1.082 0.689 1.628 1.236s0.897 1.097 1.236 1.628c0.508 0.798 0.992 1.556 1.986 2.082v5.627c0 0.202 0.098 0.392 0.263 0.509s0.376 0.148 0.567 0.081l4.859-1.686 4.859 1.686c0.19 0.066 0.402 0.036 0.567-0.081s0.263-0.307 0.263-0.509v-5.627c1.698-0.916 1.913-2.434 3.222-3.711 0.547-0.547 1.097-0.897 1.628-1.236 0.895-0.57 1.74-1.109 2.263-2.372s0.307-2.242 0.077-3.278zM16.205 29.028c-0.133-0.046-0.277-0.046-0.41 0l-4.234 1.469v-4.309c0.822 0.157 1.618-0.001 2.414-0.182 1.402-0.36 2.65-0.36 4.051 0 0.788 0.175 1.542 0.342 2.414 0.182v4.309l-4.234-1.469zM27.66 15.422c0.21 0.946 0.361 1.63-0.011 2.529s-0.963 1.275-1.78 1.796c-0.561 0.358-1.197 0.763-1.84 1.406s-1.049 1.279-1.406 1.841c-0.521 0.817-0.897 1.408-1.796 1.78s-1.583 0.221-2.529 0.011c-3.782-0.99-5.137 0.806-7.121-0.011-1.972-0.816-1.676-3.059-5.043-5.027-0.817-0.521-1.408-0.897-1.78-1.796s-0.221-1.583-0.011-2.529c0.399-1.539 0.398-3.054 0-4.591-0.21-0.946-0.361-1.63 0.011-2.529s0.963-1.275 1.78-1.796c0.561-0.358 1.197-0.763 1.84-1.406s1.049-1.279 1.406-1.84c0.521-0.817 0.897-1.408 1.796-1.78 1.975-0.821 3.304 0.978 7.121-0.011 2.025-0.55 3.283-0.028 4.325 1.792 0.358 0.561 0.763 1.197 1.406 1.84s1.279 1.049 1.84 1.406c1.821 1.043 2.341 2.302 1.792 4.325-0.399 1.54-0.398 3.054 0 4.592z"></path>
<path d="M10.382 10.51l0.941 6.456c0.045 0.307 0.308 0.535 0.618 0.535h8.117c0.31 0 0.574-0.228 0.618-0.535l0.941-6.456c0.038-0.26-0.091-0.516-0.323-0.641s-0.516-0.091-0.712 0.085l-2.45 2.189-1.568-3.345c-0.217-0.476-0.915-0.476-1.132 0l-1.568 3.345-2.45-2.189c-0.196-0.175-0.481-0.209-0.712-0.085s-0.361 0.38-0.323 0.641zM13.66 13.635c0.147 0.132 0.348 0.186 0.542 0.146s0.357-0.168 0.441-0.347l1.358-2.898 1.358 2.898c0.084 0.179 0.247 0.308 0.441 0.347s0.394-0.015 0.542-0.146l1.793-1.602-0.615 4.218h-7.037l-0.615-4.218 1.793 1.602z"></path>
<path d="M9.813 7.564c0.16 0 0.32-0.061 0.442-0.183 0.244-0.244 0.244-0.64 0-0.884s-0.64-0.244-0.884 0l-0 0c-0.244 0.244-0.244 0.64 0 0.884 0.122 0.122 0.282 0.183 0.442 0.183z"></path>
</svg>
