<!-- Generated by IcoMoon.io -->
<svg version="1.1" xmlns="http://www.w3.org/2000/svg" width="32" height="32" viewBox="0 0 32 32">
<title>touch-controls</title>
<path d="M27.57 18.156c0-1.415-1.145-2.56-2.56-2.56-0.539 0-1.044 0.168-1.448 0.472-0.37-0.943-1.314-1.617-2.392-1.617-0.539 0-1.044 0.168-1.448 0.472-0.371-0.943-1.314-1.617-2.392-1.617-0.472 0-0.91 0.135-1.28 0.337v-5.861c0-0.674-0.269-1.314-0.741-1.819-0.505-0.505-1.145-0.741-1.819-0.741-1.415 0-2.56 1.145-2.56 2.56v13.17l-1.785-1.785c-0.876-0.876-2.257-1.011-3.267-0.303-0.606 0.404-1.011 1.044-1.112 1.785-0.101 0.707 0.101 1.448 0.573 2.021l5.255 6.333c1.583 1.92 3.907 2.998 6.4 2.998h3.267c1.954 0 3.806-0.775 5.187-2.156s2.156-3.234 2.156-5.187l-0.034-6.501zM24.539 28.935c-1.145 1.145-2.661 1.785-4.278 1.785h-3.267c-2.088 0-4.076-0.943-5.39-2.56l-5.288-6.333c-0.236-0.303-0.337-0.64-0.303-1.011 0.067-0.371 0.269-0.707 0.573-0.91 0.236-0.135 0.472-0.236 0.741-0.236 0.337 0 0.674 0.135 0.91 0.371l2.122 2.088c0.303 0.303 0.775 0.404 1.179 0.236s0.674-0.573 0.674-1.011l-0-13.575c0-0.707 0.573-1.28 1.28-1.28 0.337 0 0.674 0.135 0.91 0.37s0.37 0.573 0.37 0.91v9.364c0 0.337 0.27 0.64 0.64 0.64s0.64-0.269 0.64-0.64v-1.28c0-0.707 0.573-1.28 1.28-1.28s1.28 0.573 1.28 1.28v2.425c0 0.337 0.27 0.64 0.64 0.64s0.64-0.27 0.64-0.64l-0-1.28c0-0.707 0.573-1.28 1.28-1.28s1.28 0.573 1.28 1.28v2.425c0 0.337 0.269 0.64 0.64 0.64s0.64-0.27 0.64-0.64v-1.28c0-0.707 0.573-1.28 1.28-1.28s1.28 0.573 1.28 1.28v6.501c-0 1.617-0.607 3.133-1.752 4.278z"></path>
<path d="M13.49 3.84c0.337 0 0.64-0.269 0.64-0.64l-0-2.56c0-0.337-0.27-0.64-0.64-0.64s-0.64 0.27-0.64 0.64l0 2.56c0 0.371 0.27 0.64 0.64 0.64z"></path>
<path d="M9.819 4.985c0.135 0.135 0.303 0.202 0.438 0.202s0.337-0.067 0.438-0.202c0.236-0.236 0.236-0.64 0-0.91l-1.819-1.819c-0.236-0.236-0.64-0.236-0.909 0-0.236 0.236-0.236 0.64 0 0.91l1.852 1.819z"></path>
<path d="M16.724 5.187c0.168 0 0.337-0.067 0.438-0.202l1.819-1.819c0.236-0.236 0.236-0.64 0-0.91-0.236-0.236-0.64-0.236-0.91 0l-1.819 1.819c-0.236 0.236-0.236 0.64 0 0.91 0.135 0.135 0.303 0.202 0.472 0.202z"></path>
</svg>
