<!-- Generated by IcoMoon.io -->
<svg version="1.1" xmlns="http://www.w3.org/2000/svg" width="32" height="32" viewBox="0 0 32 32">
<title>truck</title>
<path d="M6.881 2.667h10.236c0.703-0 1.309-0 1.809 0.041 0.527 0.043 1.051 0.138 1.556 0.395 0.753 0.384 1.364 0.995 1.748 1.748 0.257 0.505 0.352 1.029 0.395 1.556 0.041 0.499 0.041 1.106 0.041 1.809v1.118h1.783c0.022 0 0.045-0 0.068-0 0.253-0.001 0.572-0.002 0.886 0.074 0.272 0.065 0.532 0.173 0.771 0.319 0.275 0.169 0.5 0.395 0.679 0.574 0.016 0.016 0.032 0.033 0.048 0.048l2.75 2.75c0.016 0.016 0.032 0.032 0.048 0.048 0.18 0.179 0.406 0.403 0.574 0.679 0.146 0.239 0.254 0.499 0.319 0.771 0.075 0.314 0.075 0.633 0.074 0.886 0 0.023 0 0.046 0 0.068v3.692c0 0.337 0 0.664-0.023 0.942-0.025 0.305-0.084 0.664-0.268 1.026-0.256 0.502-0.664 0.91-1.165 1.165-0.362 0.184-0.722 0.243-1.026 0.268-0.192 0.016-0.408 0.020-0.634 0.022 0.288 0.606 0.449 1.285 0.449 2.001 0 2.577-2.089 4.667-4.667 4.667s-4.667-2.089-4.667-4.667c0-0.716 0.161-1.394 0.449-2h-6.232c0.288 0.606 0.449 1.284 0.449 2 0 2.577-2.089 4.667-4.667 4.667s-4.667-2.089-4.667-4.667c0-0.76 0.182-1.478 0.505-2.113-0.334-0.061-0.665-0.159-0.987-0.323-0.753-0.383-1.365-0.995-1.748-1.748-0.257-0.505-0.352-1.029-0.395-1.556-0.041-0.499-0.041-1.106-0.041-1.809v-8.903c-0-0.703-0-1.309 0.041-1.809 0.043-0.527 0.138-1.051 0.395-1.556 0.384-0.753 0.995-1.365 1.748-1.748 0.505-0.257 1.029-0.352 1.556-0.395 0.499-0.041 1.106-0.041 1.809-0.041zM8.665 22.667c-1.105 0-2 0.895-2 2s0.895 2 2 2c1.105 0 2-0.895 2-2s-0.895-2-2-2zM19.999 20v-11.733c0-0.769-0.001-1.265-0.032-1.643-0.030-0.362-0.080-0.497-0.113-0.562-0.128-0.251-0.332-0.455-0.583-0.583-0.066-0.034-0.2-0.084-0.562-0.113-0.378-0.031-0.874-0.032-1.643-0.032h-10.133c-0.769 0-1.265 0.001-1.643 0.032-0.362 0.030-0.497 0.080-0.562 0.113-0.251 0.128-0.455 0.332-0.583 0.583-0.034 0.066-0.084 0.2-0.113 0.562-0.031 0.378-0.032 0.874-0.032 1.643v8.8c0 0.769 0.001 1.265 0.032 1.643 0.030 0.362 0.080 0.497 0.113 0.562 0.128 0.251 0.332 0.455 0.583 0.583 0.066 0.034 0.2 0.084 0.562 0.113 0.378 0.031 0.874 0.032 1.643 0.032h13.067zM22.665 12v8h4.533c0.395 0 0.612-0.001 0.767-0.014 0.006-0.001 0.012-0.001 0.018-0.002 0.001-0.006 0.001-0.011 0.002-0.018 0.013-0.155 0.014-0.372 0.014-0.767v-3.65c0-0.175-0-0.262-0.003-0.325 0-0.002 0-0.003-0-0.005s-0.002-0.002-0.003-0.004c-0.043-0.047-0.104-0.109-0.228-0.232l-2.75-2.75c-0.123-0.123-0.185-0.185-0.232-0.228-0.001-0.001-0.002-0.002-0.003-0.003s-0.003-0-0.005-0c-0.063-0.003-0.151-0.003-0.325-0.003h-1.783zM23.332 22.667c-1.105 0-2 0.895-2 2s0.895 2 2 2c1.105 0 2-0.895 2-2s-0.895-2-2-2z"></path>
</svg>
