<svg xmlns="http://www.w3.org/2000/svg" width="32" height="32"><path d="M4.524.091a.607.607 0 0 0-.2.215c-.092.202-.076 2.436.019 2.62.183.355.731.355.914 0 .042-.081.076-.293.076-.47v-.323h21.334v.323c0 .177.034.389.076.47.183.355.731.355.914 0 .11-.213.11-2.439 0-2.652-.163-.315-.543-.359-.809-.093-.17.17-.181.204-.181.534v.352H5.333V.749c0-.381-.077-.571-.274-.673a.497.497 0 0 0-.535.015M.273 3.274c-.261.145-.355.542-.178.76.143.177.298.233.648.233h.324v26.666H.744c-.372 0-.59.094-.68.292-.133.291-.038.573.239.715.185.095 2.435.081 2.623-.016.355-.184.355-.731 0-.915-.081-.041-.293-.076-.47-.076h-.323V4.267h.323c.372 0 .59-.094.68-.292.124-.273.046-.54-.202-.686-.129-.076-.324-.089-1.342-.087-.887.001-1.225.02-1.319.072m4.251 1.084a.613.613 0 0 0-.2.214c-.04.088-.057 1.721-.057 5.3 0 5.62-.012 5.393.292 5.531a.508.508 0 0 0 .482 0c.303-.138.292.06.292-5.214V5.333h21.334l-.002 4.28-.002 4.28-1.337 1.174c-1.125.987-1.36 1.17-1.478 1.154a9.442 9.442 0 0 0-.648-.026c-.464-.008-.528.004-.756.138-.136.08-.341.255-.455.388l-.206.241-1.274-4.468c-.7-2.457-1.308-4.558-1.351-4.669-.141-.365-.087-.358-2.891-.358-2.83 0-2.747-.011-2.906.384-.051.126-.619 1.645-1.264 3.376-1.033 2.775-1.166 3.168-1.128 3.328.092.379.583.531.85.264.099-.099.448-.975 1.274-3.198l1.138-3.061 2.018-.014 2.018-.014 1.409 4.947c.774 2.721 1.418 4.976 1.43 5.011.013.035-.095.123-.238.196-.144.073-.289.165-.322.205-.033.04-.326.692-.65 1.449-.389.909-.589 1.442-.589 1.57 0 .179.066.259.895 1.088.829.829.909.895 1.088.895.21 0 2.869-1.108 3.049-1.27.055-.049.217-.324.361-.61.254-.505.266-.52.408-.48.673.188 1.499-.208 1.805-.866.183-.393.209-.671.101-1.071l-.092-.341.739-.841c1.2-1.364 1.101-1.227 1.068-1.476-.038-.282-.233-.458-.507-.458a.626.626 0 0 0-.303.074c-.058.041-.466.484-.906.986l-.8.911-.732-.731c-.403-.401-.715-.746-.693-.765.021-.02 1.211-1.07 2.644-2.334 1.957-1.726 2.649-2.306 2.778-2.331.468-.087.884.429.669.831-.029.056-.437.537-.906 1.07-.804.912-.853.981-.853 1.186 0 .312.204.516.515.516.21 0 .253-.026.518-.306.732-.778 1.607-1.823 1.708-2.04.16-.348.155-.996-.011-1.36-.393-.859-1.441-1.214-2.296-.777-.116.059-.567.422-1.003.807l-.791.7-.027-4.152c-.014-2.283-.047-4.195-.073-4.247-.129-.264.476-.251-11.671-.25-10.452.001-11.333.008-11.465.09m2.667 3.2c-.347.215-.326.747.034.912.199.09 4.551.09 4.75 0 .259-.119.358-.453.216-.729-.14-.269-.188-.274-2.607-.273-2.002.001-2.266.011-2.393.09m13.333 0a.551.551 0 0 0-.257.45c0 .158.157.401.304.467.187.086 4.549.08 4.737-.005.153-.07.292-.294.292-.47s-.139-.4-.292-.47c-.101-.046-.756-.063-2.391-.062-2.002.001-2.266.011-2.393.09m-5.872 3.736c-.175.109-.048-.217-1.537 3.952-.642 1.799-1.168 3.352-1.168 3.45 0 .111.048.234.128.328l.129.149H17.965l.132-.124a.592.592 0 0 0 .16-.267c.03-.154-1.67-7.058-1.801-7.309-.117-.227-.289-.273-1.005-.272-.521.002-.681.02-.799.093m1.672 3.919.73 2.92H15.14c-1.052 0-1.913-.007-1.913-.017 0-.023 1.96-5.517 2.035-5.705.047-.118.089-.146.196-.134.134.016.149.067.866 2.936m-5.87.8c-.165.114-.283.41-2.091 5.267-1.054 2.831-1.929 5.222-1.945 5.315-.036.202.1.462.287.547.081.037.645.058 1.567.058 1.169 0 1.469-.015 1.593-.079.183-.095.149-.011 1.337-3.348l.869-2.44h5.782l.675 2.707c.371 1.489.701 2.774.734 2.856.12.3.153.304 2.605.304 2.435 0 2.472-.004 2.603-.292a.711.711 0 0 0 .063-.232c0-.106-.441-1.683-.566-2.024-.086-.235-.281-.385-.5-.385-.269 0-.534.26-.534.524 0 .051.081.374.18.718l.18.624h-3.129l-.053-.2c-.029-.11-.33-1.316-.67-2.68-.339-1.364-.644-2.546-.676-2.628a.716.716 0 0 0-.193-.253c-.129-.102-.234-.105-3.59-.105h-3.456l-.147.126c-.122.105-.321.613-1.145 2.92l-.997 2.794-.759.015c-.704.013-.756.008-.732-.08.014-.053.808-2.202 1.766-4.776.958-2.575 1.741-4.754 1.741-4.844 0-.219-.078-.351-.265-.448-.213-.11-.328-.102-.534.039m-5.915.595c-.282.156-.268-.218-.27 7.648-.002 7.961-.018 7.54.29 7.68.202.093 22.68.093 22.882 0 .303-.137.292.042.292-5.003 0-5.044.011-4.865-.292-5.003a.735.735 0 0 0-.249-.063c-.158 0-.401.157-.467.304-.041.088-.058 1.454-.058 4.445v4.317H5.333v-6.984c0-5.301-.015-7.018-.063-7.124-.117-.256-.471-.361-.731-.217m19.034.729c.314.222 2.387 2.377 2.42 2.516.051.21-.086.497-.286.6-.325.168-.413.107-1.692-1.162-.651-.646-1.224-1.258-1.272-1.359-.076-.16-.077-.208-.013-.378.132-.351.515-.45.843-.217M23.226 20l.852.852-.246.494-.246.494-1.047.446c-.64.272-1.081.432-1.136.411-.071-.028.034-.16.501-.633.325-.328.62-.654.655-.723.136-.266-.062-.649-.374-.727-.235-.058-.43.068-1.048.678-.447.441-.608.571-.632.509-.018-.046.165-.546.411-1.123l.444-1.04.48-.243c.264-.133.492-.243.507-.245.015-.002.411.38.879.85M6.673 28.341c-.358.198-.346.762.019.929.107.048 2.314.063 9.313.063 7.835 0 9.195-.011 9.321-.076.355-.183.355-.731 0-.914-.212-.11-18.456-.111-18.653-.002" fill-rule="evenodd"/></svg>