<svg width="24" height="24" fill="none" xmlns="http://www.w3.org/2000/svg"><path d="M11.544 2.283C9.6 2.455 7.927 3.872 7.417 5.779A4.736 4.736 0 0 0 8.034 9.6c.286.441.925 1.08 1.366 1.366a4.73 4.73 0 0 0 5.2 0c.441-.286 1.08-.925 1.366-1.366 1.211-1.871.99-4.275-.541-5.871a4.626 4.626 0 0 0-3.029-1.448 8.87 8.87 0 0 0-.476-.035c-.011.003-.18.019-.376.037m1.37 1.595c.508.146.893.372 1.321.78.446.425.733.89.894 1.45.129.45.129 1.334 0 1.784-.167.582-.458 1.042-.941 1.492-.633.588-1.319.856-2.188.856-.869 0-1.555-.268-2.188-.856-.483-.45-.774-.91-.941-1.492-.129-.45-.129-1.334 0-1.784.152-.53.375-.91.787-1.343a3.113 3.113 0 0 1 1.775-.967c.321-.058 1.152-.013 1.481.08M11.4 13.305a18.11 18.11 0 0 0-4.82.843c-.86.275-1.377.601-1.757 1.11-.492.659-.603 1.156-.572 2.578.021.961.052 1.133.3 1.644.205.423.746.963 1.169 1.169.668.324 1.03.356 2.2.195a28.336 28.336 0 0 1 3.07-.289c1.576-.072 3.111.015 5.09.289 1.17.161 1.532.129 2.2-.195.423-.206.964-.746 1.169-1.169.248-.511.279-.683.3-1.644.02-.904-.018-1.402-.131-1.737a2.803 2.803 0 0 0-1.436-1.654c-.962-.467-3.061-.951-4.682-1.081a23.546 23.546 0 0 0-2.1-.059m2.6 1.614c1.424.188 3.231.659 3.685.96.215.141.401.391.49.652.093.275.095 1.848.002 2.12-.078.229-.326.516-.571.66-.17.1-.22.109-.586.107-.22-.002-.733-.05-1.14-.108-1.518-.216-2.008-.247-3.88-.247-1.872 0-2.362.031-3.88.247-.407.058-.92.106-1.14.108-.366.002-.416-.007-.586-.107a1.743 1.743 0 0 1-.347-.293c-.261-.296-.287-.426-.287-1.424 0-.963.026-1.109.253-1.425.181-.253.418-.389 1.024-.586a16.428 16.428 0 0 1 3.701-.743c.7-.059 2.56-.014 3.262.079" fill-rule="evenodd" fill="#000"/></svg>