<!-- Generated by IcoMoon.io -->
<svg version="1.1" xmlns="http://www.w3.org/2000/svg" width="32" height="32" viewBox="0 0 32 32">
<title>verification</title>
<path d="M28.5 13.88c-0.005-0.288-0.070-0.572-0.192-0.834s-0.296-0.495-0.514-0.685l-2.309-1.971v-2.074c-0-0.479-0.191-0.939-0.53-1.278s-0.798-0.529-1.278-0.53h-2.744l-2.819-2.404c-0.581-0.49-1.316-0.758-2.076-0.758s-1.495 0.268-2.076 0.758l-2.82 2.404h-2.821c-0.479 0-0.939 0.191-1.278 0.53s-0.529 0.798-0.53 1.278v2.137l-2.31 1.971c-0.219 0.188-0.395 0.421-0.516 0.683s-0.186 0.547-0.188 0.835v12.69c0.012 0.543 0.237 1.059 0.627 1.437s0.913 0.587 1.456 0.583h20.833c0.283 0 0.563-0.057 0.824-0.167s0.496-0.273 0.693-0.477c0.36-0.368 0.563-0.861 0.567-1.376v-12.753zM19.42 20.4l8.154-6.717c0.012 0.065-0.011 13.245-0.068 13.376l-8.086-6.659zM27.068 12.929l-1.582 1.303v-2.653l1.582 1.35zM14.549 4.793c0.417-0.351 0.944-0.543 1.489-0.543s1.072 0.192 1.489 0.543l2.013 1.717h-7.005l2.014-1.717zM8.322 7.413h15.356c0.24 0 0.469 0.096 0.639 0.265s0.265 0.399 0.265 0.639v6.66l-7.281 5.998c-0.37 0.297-0.83 0.459-1.305 0.459s-0.935-0.162-1.305-0.459l-7.273-5.993v-6.665c0-0.24 0.096-0.469 0.265-0.639s0.399-0.265 0.639-0.265zM4.494 27.058c-0.057-0.131-0.078-13.283-0.059-13.364l8.137 6.705-8.078 6.659zM6.514 14.237l-1.547-1.275 1.547-1.32v2.595zM5.168 27.674l8.115-6.689 0.834 0.687c0.53 0.435 1.194 0.673 1.88 0.673s1.35-0.238 1.88-0.673l0.834-0.687 8.122 6.689c-0.13 0.047-21.534 0.047-21.664-0z"></path>
<path d="M16 17.189c1.157-0.001 2.266-0.462 3.084-1.28s1.278-1.927 1.279-3.084c-0.24-5.789-8.488-5.787-8.727 0 0.001 1.157 0.461 2.266 1.28 3.084s1.927 1.278 3.084 1.28zM16 9.365c0.917 0.001 1.797 0.366 2.445 1.015s1.013 1.528 1.014 2.445c-0.174 4.584-6.746 4.583-6.919-0 0.001-0.917 0.366-1.797 1.014-2.445s1.528-1.014 2.445-1.015z"></path>
<path d="M14.533 13.91c0.024 0.066 0.062 0.125 0.112 0.173s0.111 0.084 0.177 0.106c0.066 0.021 0.137 0.027 0.206 0.016s0.135-0.037 0.192-0.076l2.645-1.87c0.098-0.069 0.164-0.175 0.184-0.293s-0.007-0.239-0.077-0.337-0.174-0.164-0.292-0.184c-0.118-0.020-0.239 0.007-0.337 0.076l-2.156 1.525-0.366-1.040c-0.041-0.111-0.125-0.201-0.232-0.251s-0.23-0.056-0.342-0.017c-0.112 0.039-0.203 0.121-0.256 0.227s-0.061 0.229-0.023 0.341l0.564 1.605z"></path>
<path d="M15.97 25.752h-6.764c-0.118 0.002-0.231 0.051-0.314 0.136s-0.129 0.198-0.129 0.316c0 0.118 0.046 0.232 0.129 0.316s0.195 0.133 0.314 0.136h6.764c0.118-0.002 0.231-0.051 0.314-0.136s0.129-0.198 0.129-0.316c0-0.118-0.046-0.232-0.129-0.316s-0.195-0.133-0.314-0.136z"></path>
<path d="M19.585 25.752h-1.459c-0.118 0.002-0.231 0.051-0.314 0.135s-0.129 0.198-0.129 0.317 0.046 0.232 0.129 0.316c0.083 0.084 0.196 0.133 0.314 0.135h1.459c0.118-0.002 0.231-0.051 0.314-0.135s0.129-0.198 0.129-0.317-0.046-0.232-0.129-0.316c-0.083-0.084-0.196-0.133-0.314-0.135z"></path>
</svg>
